<?xml version="1.0" standalone="no"?>
<!DOCTYPE svg PUBLIC "-//W3C//DTD SVG 20010904//EN"
 "http://www.w3.org/TR/2001/REC-SVG-20010904/DTD/svg10.dtd">
<svg version="1.0" xmlns="http://www.w3.org/2000/svg"
 width="515.000000pt" height="515.000000pt" viewBox="0 0 515.000000 515.000000"
 preserveAspectRatio="xMidYMid meet">
<metadata>
Created by potrace 1.11, written by Peter Selinger 2001-2013
</metadata>
<g transform="translate(0.000000,515.000000) scale(0.100000,-0.100000)"
fill="#000000" stroke="none">
<path d="M1090 3791 c0 -35 6 -56 22 -76 l22 -28 -45 5 c-64 7 -102 28 -119
65 -19 41 -30 42 -30 3 0 -60 50 -119 113 -135 37 -10 34 -17 -15 -45 -23 -13
-85 -67 -138 -119 -52 -53 -138 -135 -189 -184 -105 -99 -107 -104 -55 -192
25 -44 27 -45 77 -45 33 0 89 -13 157 -36 87 -30 125 -38 220 -43 63 -4 125
-13 137 -19 12 -7 38 -12 59 -12 50 0 81 36 165 186 84 151 139 276 139 318 0
50 -24 65 -126 77 -117 15 -123 19 -77 50 48 31 82 87 62 100 -29 18 -112 10
-156 -16 l-43 -24 0 29 c0 29 -29 61 -103 110 -20 14 -43 37 -50 53 -18 40
-27 33 -27 -22z"/>
<path d="M1693 3478 c-6 -7 -20 -40 -32 -73 -58 -157 -160 -354 -253 -487 -47
-67 -46 -89 5 -144 28 -30 42 -36 117 -49 168 -29 639 -75 774 -75 62 0 66 20
25 135 -81 232 -252 526 -387 668 l-36 37 -102 0 c-69 0 -105 -4 -111 -12z
m77 -107 c0 -10 -9 -63 -20 -116 -11 -54 -19 -100 -17 -101 2 -2 34 37 71 86
63 83 96 109 96 77 0 -11 -100 -314 -165 -499 -17 -47 -45 -66 -45 -30 0 10
29 103 65 207 36 103 64 189 62 192 -2 2 -30 -31 -62 -72 -83 -109 -95 -102
-65 36 11 51 20 96 20 99 0 3 -43 -74 -96 -170 -52 -96 -104 -184 -115 -195
-47 -48 -13 31 113 262 122 224 158 274 158 224z m215 -105 c20 -9 35 -22 35
-32 0 -9 -6 -14 -12 -11 -54 20 -51 23 -91 -91 -20 -59 -37 -110 -37 -113 0
-4 11 -10 25 -13 14 -4 25 -14 25 -22 0 -13 -7 -15 -33 -10 l-34 6 -32 -92
c-40 -119 -40 -112 -14 -116 30 -4 50 -30 30 -38 -17 -6 -83 12 -92 26 -4 6
118 354 174 493 12 32 11 31 56 13z m127 -182 c-1 -10 -21 -99 -44 -196 -36
-155 -44 -178 -61 -178 -16 0 -18 5 -13 30 3 17 9 43 12 59 5 23 2 32 -15 40
-18 10 -24 6 -57 -44 -36 -54 -54 -68 -54 -42 0 14 149 269 191 328 23 32 46
34 41 3z m106 -147 c3 -14 -1 -17 -20 -12 -22 6 -25 0 -61 -110 -21 -63 -43
-115 -48 -115 -22 0 -18 33 19 137 35 99 38 113 24 126 -8 8 -11 20 -7 26 9
16 89 -29 93 -52z"/>
<path d="M2016 2927 c-31 -52 -32 -57 -8 -57 14 0 21 12 29 47 6 27 10 49 8
51 -2 2 -15 -16 -29 -41z"/>
<path d="M2010 3467 c0 -8 14 -32 31 -53 125 -155 278 -438 344 -636 20 -62
42 -119 47 -125 7 -8 37 -13 84 -13 62 0 75 3 83 19 11 19 46 749 37 758 -9 9
-306 41 -538 58 -73 6 -88 4 -88 -8z m357 -72 c220 -24 205 -18 201 -73 -2
-26 -7 -46 -13 -44 -5 2 -9 18 -7 36 3 39 -11 46 -90 46 -44 0 -48 -2 -48 -24
0 -13 -3 -31 -6 -39 -4 -12 10 -16 70 -22 68 -6 97 -17 83 -31 -3 -3 -40 -11
-83 -18 l-79 -12 80 -25 c44 -14 80 -31 80 -37 0 -7 -3 -12 -7 -12 -5 0 -69 0
-143 0 -113 0 -135 2 -135 15 0 12 16 15 78 16 l77 1 -47 16 c-26 9 -50 21
-55 25 -11 12 17 27 52 27 17 0 36 4 43 8 7 5 -33 14 -95 21 -59 7 -111 15
-115 17 -14 9 3 25 20 20 10 -2 47 -7 85 -11 l67 -7 0 40 0 39 -61 7 c-114 11
-129 9 -129 -19 0 -14 -4 -25 -10 -25 -5 0 -10 18 -10 40 0 48 -7 47 197 25z
m156 -281 c69 -11 37 -23 -45 -18 -80 5 -84 4 -101 -20 -15 -22 -16 -27 -3
-32 8 -3 28 2 45 10 30 16 96 21 125 10 20 -8 20 -28 0 -48 -18 -19 -41 -11
-25 8 12 15 5 26 -17 26 -25 0 -82 -32 -82 -46 0 -8 -7 -17 -15 -20 -8 -4 -15
-10 -15 -15 0 -13 24 -11 56 6 38 20 98 19 115 -1 11 -14 10 -18 -6 -30 -35
-26 -62 -14 -27 12 16 12 15 13 -7 14 -13 0 -39 -9 -57 -21 -61 -37 -131 -5
-90 40 16 17 16 21 4 21 -8 0 -23 9 -32 19 -14 15 -15 24 -7 39 6 11 16 22 23
25 7 2 -2 7 -19 11 -18 4 -33 12 -33 18 0 10 121 5 213 -8z m37 -204 c0 -5
-11 -10 -24 -10 -12 0 -51 -3 -85 -6 -52 -6 -61 -5 -61 10 0 14 13 16 85 16
50 0 85 -4 85 -10z m-4 -45 c19 -15 19 -15 -5 -35 -13 -11 -35 -20 -50 -21
-23 -1 -22 -2 9 -11 45 -13 47 -15 24 -33 -17 -13 -17 -14 -2 -15 9 0 20 -5
24 -11 5 -9 -7 -10 -45 -5 -28 4 -58 9 -66 12 -19 8 -19 24 0 24 8 0 15 5 15
10 0 6 -9 10 -21 10 -15 0 -19 5 -15 15 3 8 1 15 -3 15 -17 0 -20 30 -5 45 20
20 113 20 140 0z"/>
<path d="M2450 2850 c-11 -7 -2 -10 33 -10 30 0 46 4 42 10 -8 13 -55 13 -75
0z"/>
<path d="M3739 3437 c-123 -65 -326 -426 -255 -453 24 -9 659 16 671 27 15 15
-31 155 -95 284 -82 166 -81 165 -189 165 -73 0 -95 -4 -132 -23z m172 -36
c31 -25 18 -37 -21 -21 -17 7 -34 10 -38 6 -15 -16 28 -64 103 -114 107 -71
136 -123 97 -172 -21 -26 -58 -23 -86 6 -22 22 -10 36 19 22 30 -14 39 -7 31
25 -3 15 -29 39 -69 65 -127 82 -179 202 -87 202 15 0 38 -9 51 -19z m-68
-153 c127 -179 124 -175 109 -190 -15 -14 -11 -18 -69 65 -30 44 -33 45 -61
35 -29 -11 -30 -13 -25 -72 4 -57 3 -60 -11 -42 -9 11 -16 23 -16 28 0 4 -11
71 -25 149 -36 205 -29 207 98 27z m-177 -35 c17 -17 16 -18 -13 -21 -26 -3
-33 -9 -38 -33 -9 -40 12 -101 33 -97 10 2 18 14 20 27 3 19 0 22 -16 17 -38
-12 -33 13 9 44 23 16 46 30 51 30 9 0 28 -40 42 -88 8 -25 -20 -44 -34 -22
-5 9 -12 4 -21 -16 -10 -21 -22 -30 -45 -32 -46 -5 -67 26 -72 102 -4 55 -1
67 17 85 26 26 44 27 67 4z"/>
<path d="M3777 3233 c7 -58 6 -57 32 -43 21 11 21 11 -5 50 -15 22 -28 40 -30
40 -2 0 -1 -21 3 -47z"/>
<path d="M3575 3443 c-22 -1 -78 -7 -125 -13 -47 -6 -143 -15 -213 -19 -71 -5
-133 -13 -139 -19 -10 -10 114 -718 129 -733 8 -8 127 12 138 22 2 3 9 54 15
114 5 61 19 148 30 194 35 147 130 321 224 410 54 53 53 53 -59 44z m-56 -79
c13 -12 -25 -23 -129 -40 l-115 -19 105 -3 c58 -1 109 -7 114 -12 12 -12 -306
-12 -344 0 l-25 7 25 7 c14 3 70 15 125 25 l100 19 -70 1 c-99 2 -176 12 -169
23 6 9 373 1 383 -8z m-90 -105 c40 -14 39 -27 -1 -44 -76 -31 -253 -31 -265
1 -7 20 -1 25 54 40 60 16 170 18 212 3z m11 -78 c0 -5 -59 -12 -131 -16 -135
-8 -188 -1 -77 9 35 3 79 8 98 9 73 7 110 7 110 -2z m-147 -54 c119 15 154 16
141 3 -6 -6 -61 -16 -122 -22 -122 -13 -149 -28 -49 -28 66 0 137 -15 137 -29
0 -18 -30 -31 -96 -41 -86 -12 -104 -12 -104 -1 0 5 30 12 67 16 103 11 120
22 43 28 -36 3 -76 5 -90 4 -27 -2 -27 -2 -40 44 -11 37 -1 63 12 33 9 -19 13
-19 101 -7z m80 -146 c8 -32 -13 -41 -97 -40 -93 1 -78 17 17 18 50 1 57 3 57
21 0 25 16 26 23 1z m-13 -76 c0 -25 -1 -25 -77 -24 -85 0 -76 17 10 18 35 1
47 5 47 16 0 8 5 15 10 15 6 0 10 -11 10 -25z m-26 -51 c38 -14 3 -54 -46 -54
-13 0 -33 7 -44 15 -19 15 -19 15 0 30 20 15 62 20 90 9z m-38 -79 c4 -8 17
-15 30 -15 35 0 30 -16 -7 -24 -51 -10 -79 -7 -85 9 -10 25 4 45 31 45 14 0
28 -7 31 -15z"/>
<path d="M3222 3238 c-77 -17 -38 -31 72 -25 104 5 140 13 130 28 -7 12 -146
10 -202 -3z"/>
<path d="M3260 2830 c0 -5 11 -10 24 -10 14 0 28 5 31 10 4 6 -7 10 -24 10
-17 0 -31 -4 -31 -10z"/>
<path d="M3250 2760 c0 -5 7 -10 15 -10 8 0 15 5 15 10 0 6 -7 10 -15 10 -8 0
-15 -4 -15 -10z"/>
<path d="M2695 3400 c-4 -6 -13 -168 -21 -361 -17 -398 -17 -393 53 -401 70
-9 412 4 428 16 14 10 8 52 -49 365 -37 200 -70 359 -78 366 -17 17 -324 30
-333 15z m325 -69 c0 -6 -28 -31 -62 -58 l-63 -48 73 -3 c39 -2 72 -7 72 -12
0 -6 -65 -10 -159 -10 -150 0 -160 1 -166 20 -3 10 -1 28 5 39 25 48 83 50
131 4 l27 -25 63 51 c63 51 79 59 79 42z m-290 -201 l0 -30 65 0 65 0 0 30 c0
38 18 40 22 3 3 -28 4 -28 76 -29 72 0 74 0 69 23 -6 34 11 39 23 7 20 -52 15
-54 -169 -54 -183 0 -188 2 -175 56 9 34 24 30 24 -6z m-10 -101 c0 -20 4 -21
53 -15 123 13 297 18 297 8 0 -11 -60 -19 -232 -28 -107 -6 -118 -8 -118 -25
0 -11 -4 -19 -10 -19 -5 0 -10 23 -10 50 0 28 5 50 10 50 6 0 10 -10 10 -21z
m350 -53 c0 -9 -19 -17 -57 -22 -45 -7 -59 -13 -61 -28 -5 -25 11 -33 80 -41
56 -7 82 -25 36 -25 -39 0 -359 48 -365 54 -13 12 10 18 174 46 206 34 193 33
193 16z m38 -158 c-3 -7 -30 -20 -61 -28 -31 -8 -57 -17 -57 -21 0 -3 29 -14
65 -24 36 -9 65 -21 65 -26 0 -5 -92 -8 -207 -8 -220 1 -237 15 -23 19 l125 1
-47 15 c-27 8 -48 19 -48 24 0 5 19 15 43 22 39 12 32 13 -105 16 -88 1 -148
7 -148 12 0 6 77 10 201 10 156 0 200 -3 197 -12z"/>
<path d="M2740 3249 c-7 -11 -10 -23 -7 -25 3 -3 31 -4 63 -2 l59 3 -25 23
c-31 28 -75 29 -90 1z"/>
<path d="M2875 2933 c-58 -7 -60 -16 -5 -24 30 -4 56 -6 58 -5 5 5 -10 36 -17
35 -3 -1 -19 -4 -36 -6z"/>
<path d="M4090 3371 c0 -5 15 -42 34 -83 63 -139 83 -220 95 -388 6 -85 16
-209 21 -275 8 -83 8 -131 0 -155 -25 -86 1 -187 88 -334 l46 -80 14 44 c8 25
15 88 15 140 2 118 -18 189 -70 249 l-37 44 -7 216 c-9 259 -19 336 -61 461
-24 68 -43 105 -69 132 -33 35 -69 50 -69 29z m256 -978 c-4 -4 -11 -1 -16 7
-8 13 -10 12 -10 -2 0 -9 9 -20 20 -23 24 -8 26 -31 3 -43 -14 -9 -14 -10 5
-16 24 -8 29 -30 10 -42 -7 -5 -4 -10 10 -15 27 -10 28 -23 1 -50 -23 -23 -47
-22 -63 4 -9 15 -7 21 8 33 18 12 18 14 3 14 -26 0 -34 30 -12 46 15 12 16 14
3 14 -8 0 -22 7 -29 16 -11 14 -10 18 9 33 24 18 20 31 -10 31 -32 0 -19 18
20 27 31 8 38 7 46 -9 5 -10 6 -21 2 -25z"/>
<path d="M4305 2350 c-3 -5 -2 -10 4 -10 5 0 13 5 16 10 3 6 2 10 -4 10 -5 0
-13 -4 -16 -10z"/>
<path d="M4340 2230 c-13 -8 -12 -10 3 -10 9 0 17 5 17 10 0 12 -1 12 -20 0z"/>
<path d="M3755 2939 c-126 -4 -244 -10 -261 -14 -59 -11 -68 -32 -72 -177 -4
-118 -3 -133 14 -145 35 -25 700 -11 727 16 6 6 12 71 15 145 4 115 2 139 -12
161 -19 29 0 28 -411 14z m353 -77 c2 -7 -6 -12 -17 -12 -18 0 -21 -6 -21 -40
0 -33 3 -40 20 -40 23 0 27 -18 5 -26 -10 -4 -15 -20 -15 -51 0 -40 2 -44 22
-41 11 2 23 -2 25 -8 4 -13 -57 -28 -68 -17 -4 5 -10 61 -14 125 l-7 116 24 5
c31 6 41 3 46 -11z m-544 -14 c13 -21 0 -36 -16 -20 -22 22 -37 13 -48 -28
-18 -67 6 -126 46 -116 31 8 38 -7 13 -30 -19 -17 -23 -17 -47 -3 -73 40 -60
226 15 217 14 -2 31 -11 37 -20z m281 -88 c18 -116 18 -120 1 -120 -15 0 -25
29 -26 70 -1 22 -2 23 -11 8 -14 -25 -26 -22 -43 10 -15 27 -15 27 -16 -25 0
-52 -12 -69 -24 -37 -3 9 -6 56 -6 105 0 102 16 118 46 47 l17 -43 7 35 c16
91 34 74 55 -50z m175 104 c0 -4 -7 -12 -15 -18 -14 -10 -14 -24 -5 -110 6
-54 9 -100 6 -103 -15 -15 -24 17 -30 106 -7 87 -10 101 -27 106 -11 4 -17 11
-14 16 7 10 85 13 85 3z m-76 -109 c14 -49 26 -97 26 -107 0 -29 -20 -21 -31
12 -13 37 -37 39 -41 3 -2 -14 -9 -29 -17 -31 -12 -4 -13 11 -7 87 7 98 21
150 36 135 4 -5 20 -49 34 -99z m-330 43 c3 -29 7 -66 8 -83 2 -23 9 -31 26
-33 35 -5 20 -27 -19 -27 l-34 0 -6 90 c-4 50 -5 93 -2 98 11 19 22 2 27 -45z
m81 20 c11 -66 10 -161 -1 -165 -15 -5 -24 44 -24 128 0 71 15 94 25 37z"/>
<path d="M3900 2735 c0 -8 5 -15 10 -15 6 0 10 7 10 15 0 8 -4 15 -10 15 -5 0
-10 -7 -10 -15z"/>
<path d="M1490 2675 c0 -4 18 -38 41 -77 22 -38 56 -113 73 -166 61 -178 106
-243 184 -259 20 -4 116 -8 212 -8 150 0 190 3 278 24 137 32 136 31 130 204
-5 156 -19 193 -71 201 -17 3 -81 8 -142 11 -208 11 -577 50 -677 71 -16 3
-28 3 -28 -1z m228 -114 c3 -10 0 -12 -13 -7 -27 10 -35 -10 -35 -89 0 -77 10
-124 36 -163 l17 -25 14 27 c17 32 28 28 19 -7 -8 -32 -34 -42 -57 -21 -65 59
-66 315 -1 302 8 -2 17 -9 20 -17z m101 -33 c5 -18 13 -60 18 -93 l7 -60 11
83 c5 45 15 84 20 85 6 1 14 -32 19 -73 l10 -75 10 72 c6 39 15 75 20 80 8 8
5 -56 -10 -187 -4 -30 -3 -52 1 -47 5 4 19 -3 31 -14 21 -19 24 -20 30 -6 3 9
-2 40 -12 69 -35 103 -19 212 27 187 25 -13 24 -32 -1 -24 -18 6 -20 2 -20
-43 0 -26 7 -72 16 -101 18 -63 15 -110 -9 -125 -15 -9 -22 -6 -42 17 -28 31
-35 34 -35 10 0 -41 -16 6 -26 75 l-10 77 -13 -87 c-7 -49 -17 -88 -22 -88 -5
0 -9 5 -9 11 0 8 -4 8 -14 0 -21 -17 -35 7 -47 81 -10 60 -7 156 7 191 10 27
32 19 43 -15z m302 -86 l2 -97 11 89 c12 97 30 123 42 59 11 -65 20 -67 33 -9
13 56 26 71 35 39 2 -10 7 -69 11 -132 6 -92 4 -112 -7 -109 -8 3 -15 29 -19
74 -5 61 -6 65 -13 36 -5 -18 -13 -35 -18 -38 -14 -9 -28 15 -28 46 -1 44 -17
0 -23 -64 -7 -68 -26 -100 -28 -46 l-1 35 -8 -28 c-10 -32 -28 -57 -42 -57
-15 0 -36 62 -43 127 -8 66 1 173 15 173 4 0 9 -55 12 -123 6 -202 39 -193 43
13 4 133 2 123 15 115 6 -3 11 -50 11 -103z m219 88 c0 -5 -11 -10 -25 -10
-23 0 -25 -4 -25 -45 0 -43 1 -45 30 -45 17 0 30 -4 30 -10 0 -5 -11 -10 -24
-10 -33 0 -37 -9 -30 -64 6 -40 10 -46 31 -46 14 0 21 -4 18 -10 -3 -5 -22
-10 -41 -10 l-34 0 0 130 0 130 35 0 c19 0 35 -4 35 -10z"/>
<path d="M1785 2491 c-7 -41 0 -147 13 -186 10 -33 21 62 15 135 -7 85 -19
106 -28 51z"/>
<path d="M3320 2617 c-25 -4 -55 -10 -67 -13 -18 -3 -23 -13 -27 -52 -4 -26
-16 -92 -28 -147 -38 -175 -37 -177 114 -150 56 10 107 21 111 25 5 4 -1 51
-12 103 -11 52 -24 127 -27 166 -4 40 -10 73 -13 75 -3 1 -26 -2 -51 -7z m34
-56 c27 -30 11 -41 -55 -41 -63 0 -72 9 -42 42 22 24 75 23 97 -1z m6 -61 c0
-5 -8 -14 -17 -19 -17 -10 -16 -10 2 -11 22 0 32 -34 14 -45 -15 -10 -10 -35
6 -35 8 0 15 -4 15 -10 0 -13 -147 -13 -155 0 -4 6 21 23 57 40 l63 29 -57 -6
c-61 -6 -76 5 -35 25 17 8 18 11 5 11 -10 1 -18 8 -18 16 0 12 13 15 60 15 33
0 60 -4 60 -10z m34 -162 c3 -13 2 -26 -2 -29 -7 -7 -135 -29 -167 -29 -41 0
2 18 70 30 62 11 75 16 75 31 0 26 16 24 24 -3z"/>
<path d="M3280 2550 c-11 -7 -7 -10 18 -10 20 0 31 4 27 10 -8 13 -26 13 -45
0z"/>
<path d="M3305 2400 c-3 -5 1 -10 9 -10 9 0 16 5 16 10 0 6 -4 10 -9 10 -6 0
-13 -4 -16 -10z"/>
<path d="M3005 2588 c-82 -4 -232 -5 -331 -2 -100 3 -192 3 -204 -1 -21 -7
-22 -10 -15 -97 4 -49 8 -125 9 -168 1 -49 7 -85 14 -92 17 -17 572 -24 601
-8 49 26 129 387 84 378 -4 0 -75 -5 -158 -10z m85 -77 c0 -5 -9 -11 -20 -14
-15 -4 -20 -14 -20 -41 0 -29 4 -36 20 -36 11 0 20 -4 20 -10 0 -5 -9 -10 -20
-10 -17 0 -20 -7 -20 -44 0 -35 4 -45 20 -49 11 -3 20 -10 20 -15 0 -13 -36
-25 -50 -17 -6 4 -10 53 -10 115 0 93 3 110 18 119 21 13 42 14 42 2z m-410
-21 c0 -5 -7 -10 -15 -10 -16 0 -18 -12 -9 -47 4 -13 13 -23 20 -23 8 0 14 -4
14 -10 0 -5 -7 -10 -15 -10 -16 0 -18 -12 -9 -59 4 -17 13 -31 20 -31 8 0 14
-4 14 -10 0 -5 -4 -10 -9 -10 -5 0 -16 -3 -25 -6 -12 -5 -16 0 -16 17 0 18 -3
20 -9 10 -12 -18 -31 -5 -31 22 0 12 -3 33 -7 45 -4 18 -8 20 -15 10 -7 -10
-11 -9 -23 6 -14 18 -15 15 -15 -37 0 -31 -4 -57 -9 -57 -11 0 -21 182 -10
194 4 4 15 -7 25 -25 l17 -34 9 33 c5 17 13 32 18 32 6 0 10 -1 11 -2 0 -2 7
-39 14 -83 l14 -80 -5 78 c-3 43 -2 82 1 87 8 13 45 13 45 0z m70 0 c0 -5 -5
-10 -11 -10 -7 0 -8 -31 -4 -100 5 -65 4 -100 -2 -100 -13 0 -23 58 -23 138 0
34 -4 62 -10 62 -5 0 -10 5 -10 10 0 6 14 10 30 10 17 0 30 -4 30 -10z m150
-90 c18 -102 30 -110 30 -19 0 117 21 162 35 77 12 -70 22 -77 30 -20 7 56 25
81 24 35 0 -15 -6 -61 -13 -101 -18 -101 -30 -109 -45 -31 l-9 44 -1 -53 c-1
-49 -3 -53 -23 -50 -28 4 -38 16 -38 46 0 13 -6 22 -15 22 -10 0 -15 -10 -15
-34 0 -29 -3 -33 -24 -33 -22 0 -25 5 -28 40 -4 59 -28 61 -28 3 0 -25 -4 -46
-10 -46 -6 0 -10 42 -10 105 0 63 4 105 10 105 6 0 10 -22 10 -50 0 -38 4 -50
15 -50 11 0 15 12 15 50 0 92 19 51 22 -47 l3 -98 13 94 c19 141 30 143 52 11z"/>
<path d="M3433 2543 c-13 -34 51 -279 109 -422 l31 -73 38 5 c148 20 558 374
559 482 0 20 -7 20 -366 20 -270 0 -368 -3 -371 -12z m621 -30 c-6 -21 -4 -25
9 -20 21 8 29 -3 15 -20 -15 -18 -2 -29 16 -14 11 9 16 9 22 0 8 -13 -24 -41
-41 -36 -17 6 -57 86 -51 102 3 8 12 15 21 15 12 0 14 -6 9 -27z m-80 8 c3 -5
-1 -11 -9 -15 -8 -3 -15 -18 -15 -33 0 -33 36 -97 50 -88 16 10 11 33 -7 37
-15 3 -13 7 10 22 27 18 28 18 42 0 19 -25 19 -34 0 -34 -8 0 -15 -9 -15 -19
0 -47 -60 -37 -84 13 -9 19 -16 49 -16 68 0 43 28 75 44 49z m-53 -86 c21 -47
39 -92 39 -100 0 -24 -27 -17 -49 11 -25 32 -27 26 -5 -20 15 -31 16 -36 1
-50 -21 -22 -28 -20 -52 10 -14 18 -25 23 -39 18 -18 -7 -19 -23 -4 -84 1 -8
-3 -15 -11 -15 -9 0 -27 43 -52 130 -21 72 -38 138 -38 148 -1 28 20 15 64
-39 22 -27 53 -65 68 -84 l28 -35 -19 35 c-11 19 -34 59 -51 88 -27 46 -29 53
-14 59 12 5 29 -8 60 -43 45 -52 53 -53 27 -3 -14 28 -13 59 1 59 4 0 24 -38
46 -85z m-363 63 c18 -18 14 -30 -8 -23 -18 6 -20 2 -20 -42 0 -83 51 -233 91
-269 19 -17 20 -17 26 5 3 13 11 20 19 17 8 -3 14 -4 14 -3 0 1 -23 66 -50
145 -52 150 -55 162 -41 162 5 0 23 -38 41 -84 23 -59 37 -83 46 -79 19 7 18
15 -11 96 -25 68 -26 85 -6 73 10 -7 109 -251 113 -282 6 -42 -18 -26 -39 26
-12 30 -24 60 -26 65 -3 6 -10 5 -18 -2 -10 -11 -9 -24 9 -75 26 -74 27 -78 7
-78 -8 0 -15 6 -15 13 0 6 -9 -3 -20 -20 -24 -40 -33 -41 -66 -8 -90 90 -142
375 -69 375 6 0 16 -5 23 -12z"/>
<path d="M3765 2395 c3 -11 9 -33 12 -48 3 -15 11 -26 17 -24 20 7 16 32 -10
62 -19 21 -24 24 -19 10z"/>
<path d="M4069 2317 c-25 -23 -69 -63 -97 -90 -61 -55 -64 -74 -27 -153 41
-86 59 -170 59 -274 0 -138 -19 -234 -55 -275 -25 -28 -59 -92 -59 -110 0 -3
56 -5 125 -5 l125 0 0 58 c0 45 5 65 26 95 25 37 25 39 18 180 -6 146 3 272
32 416 9 41 13 83 10 95 -7 27 -80 106 -97 106 -8 0 -35 -19 -60 -43z m99
-173 c27 -8 29 -24 2 -24 l-20 0 20 -20 c38 -38 18 -70 -45 -70 -60 0 -110 30
-110 66 0 21 5 30 20 32 16 3 18 1 8 -9 -22 -22 -15 -39 22 -55 48 -20 97 -19
93 2 -4 23 -39 43 -45 27 -3 -7 -9 -13 -14 -13 -10 0 -12 53 -2 63 8 9 41 9
71 1z m-76 -135 c43 -12 78 -25 78 -29 0 -4 -17 -12 -37 -17 l-38 -10 33 -7
c17 -4 32 -12 32 -17 0 -11 -1 -11 -78 5 -84 18 -97 32 -41 43 l44 9 -47 12
c-48 12 -73 32 -42 32 10 0 53 -9 96 -21z m68 -109 c0 -6 -28 -10 -65 -10 -37
0 -65 4 -65 10 0 6 28 10 65 10 37 0 65 -4 65 -10z m0 -40 c0 -5 -7 -10 -15
-10 -8 0 -15 -7 -15 -15 0 -8 -6 -15 -12 -16 -7 0 -2 -5 12 -12 l25 -11 -29
-4 c-36 -5 -96 6 -96 17 0 5 10 12 23 15 l22 7 -23 9 c-13 6 -20 14 -17 20 8
13 125 13 125 0z m-79 -96 c16 -14 20 -14 42 1 17 11 27 13 32 5 3 -5 -1 -13
-10 -16 -14 -6 -14 -8 1 -19 26 -19 2 -26 -60 -19 -58 7 -72 24 -44 52 15 15
18 15 39 -4z m79 -73 c0 -5 -10 -15 -22 -23 -20 -13 -21 -17 -9 -32 11 -14 11
-16 -2 -16 -23 0 -107 38 -107 48 0 5 24 14 53 19 70 14 87 15 87 4z m-46 -93
c21 -12 21 -12 -6 -22 -34 -12 -36 -22 -6 -30 38 -9 8 -24 -54 -27 -32 -1 -61
0 -65 4 -3 4 3 7 15 7 11 0 28 3 37 6 13 6 14 9 3 16 -10 7 -9 11 6 23 18 13
17 14 -8 21 -14 3 -26 11 -26 16 0 13 73 2 104 -14z"/>
<path d="M4050 1740 c0 -5 5 -10 10 -10 6 0 10 5 10 10 0 6 -4 10 -10 10 -5 0
-10 -4 -10 -10z"/>
<path d="M3306 2205 c-54 -12 -102 -28 -107 -36 -12 -20 10 -48 72 -92 30 -21
58 -49 62 -62 10 -28 29 -32 47 -10 18 22 35 18 55 -12 l18 -27 18 22 c22 28
33 28 51 0 8 -12 19 -18 25 -15 7 5 -5 42 -34 109 -24 57 -49 113 -54 126 -11
27 -23 27 -153 -3z m124 -20 c10 -12 3 -25 -35 -75 -49 -64 -51 -65 -60 -50
-3 5 13 30 36 55 49 53 42 59 -12 10 -41 -36 -73 -47 -63 -20 4 8 10 15 15 15
4 0 6 7 3 15 -4 9 -19 15 -37 15 -44 0 -28 9 50 30 86 23 88 23 103 5z m44
-41 c10 -27 7 -51 -9 -64 -11 -9 -14 -22 -10 -42 9 -37 -12 -37 -26 0 -10 26
-11 26 -25 8 -9 -13 -18 -16 -23 -10 -12 11 55 124 74 124 7 0 16 -7 19 -16z"/>
<path d="M3338 2153 c7 -3 16 -2 19 1 4 3 -2 6 -13 5 -11 0 -14 -3 -6 -6z"/>
<path d="M2237 2130 c-54 -10 -102 -22 -107 -26 -4 -5 -3 -38 3 -74 7 -36 12
-132 12 -215 -1 -127 -4 -163 -24 -233 -20 -69 -28 -85 -52 -97 -30 -16 -49
-43 -49 -69 0 -14 16 -16 104 -16 l104 0 6 34 c7 38 41 86 61 86 21 0 24 24
13 102 -16 113 1 184 65 270 l21 28 -23 56 c-19 46 -23 66 -17 115 4 44 3 59
-7 58 -6 -1 -56 -10 -110 -19z m90 -102 c0 -18 -5 -36 -11 -40 -19 -13 -76 -9
-107 8 -33 16 -36 46 -6 52 12 2 15 -1 11 -12 -4 -11 2 -19 21 -26 34 -13 65
-13 65 0 0 6 -8 10 -17 8 -12 -2 -19 4 -21 20 -3 19 1 22 31 22 31 0 34 -2 34
-32z m-34 -63 c44 -7 48 -22 10 -32 l-28 -7 33 -8 c22 -6 32 -14 32 -28 0 -16
-7 -20 -36 -20 l-36 0 22 -18 c32 -26 21 -71 -18 -73 -23 -2 -24 -2 -4 -6 20
-4 32 -23 14 -23 -4 0 -8 -17 -7 -37 0 -35 -3 -38 -30 -41 l-30 -4 33 -13 c39
-17 41 -32 5 -46 -28 -11 -28 -11 -5 -20 25 -10 30 -37 7 -45 -8 -4 -12 -10
-9 -15 3 -5 -1 -12 -10 -15 -8 -3 -12 -12 -9 -20 5 -12 -3 -15 -43 -12 -37 2
-50 7 -52 21 -4 22 25 34 48 19 13 -8 22 -7 36 3 18 14 18 14 -4 15 -31 0 -62
17 -62 35 0 7 12 18 28 23 24 9 25 10 5 11 -13 1 -23 6 -23 12 0 7 16 8 46 3
34 -5 45 -4 40 5 -4 6 -22 11 -41 11 -19 0 -37 5 -40 10 -4 6 6 10 22 10 26 1
27 1 8 12 -28 16 -36 31 -24 43 7 7 13 4 20 -7 11 -20 59 -25 59 -7 0 6 -6 9
-14 6 -15 -6 -30 19 -21 34 3 4 -7 12 -22 16 l-28 7 35 7 35 6 -32 2 c-51 2
-39 21 15 23 l47 2 -47 3 c-52 4 -64 23 -29 45 18 11 18 13 3 25 -14 10 -6 13
53 14 l70 1 -60 12 c-60 11 -73 24 -38 37 16 7 15 8 -4 8 -23 1 -37 14 -26 25
6 6 17 5 106 -9z"/>
<path d="M2215 1839 c-15 -6 -11 -8 18 -8 20 -1 37 1 37 3 0 9 -37 12 -55 5z"/>
<path d="M2185 1570 c3 -5 21 -10 38 -9 27 0 29 2 12 9 -28 12 -57 12 -50 0z"/>
<path d="M3786 2093 c-33 -20 -84 -47 -115 -59 l-56 -23 -1 -93 c-1 -116 -15
-154 -95 -259 -59 -77 -109 -156 -109 -171 0 -5 50 -8 110 -8 97 0 111 2 116
18 13 45 42 88 70 107 30 19 32 24 38 101 9 108 38 226 81 330 19 46 35 86 35
89 0 11 -19 3 -74 -32z m-24 -165 c-11 -11 -88 7 -98 23 -4 7 8 8 39 4 37 -6
45 -4 52 12 8 16 9 16 13 -6 2 -13 -1 -28 -6 -33z m-12 -27 c0 -6 -4 -12 -9
-15 -5 -3 -8 -24 -7 -47 3 -61 -10 -73 -59 -56 -54 19 -63 67 -11 58 5 -1 16
1 24 4 12 4 8 10 -16 25 -46 28 -40 40 23 40 30 0 55 -4 55 -9z m-51 -146 c33
-33 -22 -60 -70 -35 -21 12 -26 46 -6 54 18 7 60 -3 76 -19z m1 -84 c0 -29
-12 -32 -72 -20 -79 17 -86 33 -10 25 41 -5 62 -3 62 4 0 5 5 10 10 10 6 0 10
-9 10 -19z m-50 -58 c0 -8 -5 -11 -12 -7 -8 5 -9 2 -5 -11 10 -25 -10 -45 -47
-45 -53 0 -101 61 -61 77 21 7 33 -6 16 -16 -10 -7 -8 -12 10 -25 26 -18 59
-21 59 -7 0 6 -4 13 -10 16 -5 3 -10 1 -10 -4 0 -6 -4 -11 -10 -11 -13 0 -13
12 0 44 8 23 12 24 40 15 16 -6 30 -18 30 -26z"/>
<path d="M3690 1810 c0 -5 5 -10 10 -10 6 0 10 5 10 10 0 6 -4 10 -10 10 -5 0
-10 -4 -10 -10z"/>
<path d="M3640 1740 c20 -13 53 -13 45 0 -3 6 -18 10 -33 10 -21 0 -24 -2 -12
-10z"/>
<path d="M1960 2101 l-85 -6 3 -85 c1 -47 7 -99 11 -117 7 -24 2 -60 -20 -145
-39 -157 -70 -223 -130 -279 -27 -25 -49 -51 -49 -57 0 -10 27 -12 102 -10
l102 3 8 32 c6 22 17 34 37 41 23 8 31 18 34 44 29 211 47 292 71 317 41 43
60 121 50 199 -10 76 0 72 -134 63z m-30 -120 c0 -5 29 -13 65 -16 43 -5 65
-12 65 -20 0 -12 -43 -12 -103 0 -10 2 -21 -3 -24 -11 -3 -8 -9 -11 -14 -8
-12 7 -11 64 1 64 6 0 10 -4 10 -9z m3 -98 c-5 -13 -2 -15 18 -9 55 18 76 18
82 2 9 -22 -2 -46 -21 -46 -12 0 -13 3 -4 12 7 7 12 16 12 20 0 12 -38 10 -45
-2 -8 -13 -52 -13 -60 0 -9 14 1 40 14 40 6 0 8 -7 4 -17z m-13 -88 c0 -18 16
-20 24 -2 3 8 8 7 16 -6 11 -18 12 -18 26 0 13 17 13 17 14 -4 0 -29 -7 -32
-55 -24 -31 5 -41 11 -43 29 -2 12 1 22 7 22 6 0 11 -7 11 -15z m41 -65 c28
15 38 4 13 -15 -11 -8 -14 -15 -6 -15 6 0 12 -4 12 -10 0 -11 -59 -14 -84 -4
-19 7 -21 25 -4 42 7 7 17 8 30 1 12 -7 25 -6 39 1z m-6 -84 c16 -12 17 -16 6
-30 -27 -33 -112 -9 -98 28 8 20 65 22 92 2z m-105 -71 c0 -18 16 -20 23 -2 4
8 8 9 14 1 4 -6 26 -15 48 -20 l40 -9 -59 -3 c-32 -2 -65 -1 -72 2 -16 6 -19
46 -4 46 6 0 10 -7 10 -15z"/>
<path d="M1900 1710 c0 -5 5 -10 11 -10 5 0 7 5 4 10 -3 6 -8 10 -11 10 -2 0
-4 -4 -4 -10z"/>
<path d="M1885 1630 c3 -5 17 -10 31 -10 13 0 24 5 24 10 0 6 -14 10 -31 10
-17 0 -28 -4 -24 -10z"/>
</g>
</svg>
