<?xml version="1.0" encoding="UTF-8"?>
<svg width="3469px" height="2690px" viewBox="0 0 3469 2690" version="1.1" xmlns="http://www.w3.org/2000/svg" xmlns:xlink="http://www.w3.org/1999/xlink">
    <title>All together</title>
    <g id="All-together" stroke="none" stroke-width="1" fill="none" fill-rule="evenodd">
        <rect fill="#FFFFFF" x="0" y="0" width="3469" height="2690"></rect>
        <g id="Linien-vom-Graph" transform="translate(541.000000, 543.588720)" stroke="#979797">
            <line x1="0.149219395" y1="0.5" x2="2248.91767" y2="0.5" id="Path-10" stroke-width="2"></line>
            <line x1="2.27373675e-13" y1="191.41128" x2="2248.76845" y2="191.41128" id="Path-10" stroke-width="2"></line>
            <line x1="2.27373675e-13" y1="383.41128" x2="2248.76845" y2="383.41128" id="Path-10" stroke-width="2"></line>
            <line x1="0.149219395" y1="574.91128" x2="2248.91767" y2="574.91128" id="Path-10" stroke-width="2"></line>
            <line x1="2.27373675e-13" y1="765.822561" x2="2248.76845" y2="765.822561" id="Path-10" stroke-width="2"></line>
            <line x1="2.27373675e-13" y1="957.822561" x2="2248.76845" y2="957.822561" id="Path-10" stroke-width="2"></line>
            <line x1="0.149219395" y1="1148.91128" x2="2248.91767" y2="1148.91128" id="Path-10" stroke-width="2"></line>
            <line x1="2.27373675e-13" y1="1339.82256" x2="2248.76845" y2="1339.82256" id="Path-10" stroke-width="2"></line>
            <line x1="2.27373675e-13" y1="1531.82256" x2="2248.76845" y2="1531.82256" id="Path-10" stroke-width="2"></line>
            <line x1="1279.43127" y1="0.5" x2="1279.43127" y2="1529.91128" id="Path-11" stroke-width="12" stroke-dasharray="29"></line>
        </g>
        <g id="Jahreszahlen" transform="translate(527.000000, 2104.000000)" fill="#1C2A40" font-family="IBMPlexSerif, IBM Plex Serif" font-size="45" font-weight="normal">
            <text id="1961">
                <tspan x="0" y="46">1961</tspan>
            </text>
            <text id="2000">
                <tspan x="965" y="46">2000</tspan>
            </text>
            <text id="2010">
                <tspan x="1216" y="46">2010</tspan>
            </text>
            <text id="2020">
                <tspan x="1463" y="46">2020</tspan>
            </text>
            <text id="2030">
                <tspan x="1711" y="46">2030</tspan>
            </text>
            <text id="2040">
                <tspan x="1959" y="46">2040</tspan>
            </text>
            <text id="2050">
                <tspan x="2207" y="46">2050</tspan>
            </text>
            <text id="1970">
                <tspan x="223" y="46">1970</tspan>
            </text>
            <text id="1980">
                <tspan x="470" y="46">1980</tspan>
            </text>
            <text id="1990">
                <tspan x="718" y="46">1990</tspan>
            </text>
        </g>
        <g id="grammzahlen" transform="translate(458.000000, 514.000000)" fill="#1C2A40" font-family="IBMPlexSerif, IBM Plex Serif" font-size="45" font-weight="normal">
            <text id="0">
                <tspan x="27" y="1575">0</tspan>
            </text>
            <text id="10">
                <tspan x="0" y="1384">10</tspan>
            </text>
            <text id="20">
                <tspan x="0" y="1193">20</tspan>
            </text>
            <text id="30">
                <tspan x="0" y="1002">30</tspan>
            </text>
            <text id="40">
                <tspan x="0" y="811">40</tspan>
            </text>
            <text id="50">
                <tspan x="0" y="619">50</tspan>
            </text>
            <text id="60">
                <tspan x="0" y="428">60</tspan>
            </text>
            <text id="70">
                <tspan x="0" y="236">70</tspan>
            </text>
            <text id="80">
                <tspan x="0" y="46">80</tspan>
            </text>
        </g>
        <polyline id="United-States" stroke="#868A8F" stroke-width="4" points="552.558724 869.057367 579.108219 875.1362 604.489883 856.726055 629.691788 825.167729 654.74328 830.995876 680.830534 802.449452 705.292609 800.851175 731.01912 779.695712 755.876178 800.851175 782.446462 797.139797 810.524531 781.706092 831.848749 773.676799 858.719149 822.005569 882.87422 811.967481 908.353631 847.335247 934.025966 783.757659 1007.16298 806.839127 1036.72616 806.839127 1059.53962 800.274577 1085.27419 817.804408 1111.2409 783.373581 1134.87368 774.365239 1161.41938 747.100994 1186.88218 741.448353 1211.90242 727.663397 1237.55283 745.174179 1264.38848 751.055406 1290.04265 751.862767 1314.22873 744.49883 1337.92353 723.828151 1363.55533 725.482523 1389.02034 697.341366 1414.58149 698.788193 1439.20901 719.596866 1464.88157 725.482523 1492.25834 702.858671 1515.92212 674.043493 1566.2953 691.302432 1591.7756 653.219759 1616.8315 654.678991 1642.53928 643.204042 1670.51143 641.96498 1692.27786 645.000837 1718.60849 653.219759 1735 668.159608 1752.22399 686.621726 1769.5363 707.139793 1794.77185 707.139793 1819.19914 721.981075 2782.99704 698.012141"></polyline>
        <polyline id="European-Union" stroke="#97A3BE" stroke-width="4" points="553.648923 1269.24085 603.664496 1239.26247 681.229803 1204.35129 707.380774 1176.21863 732.495576 1159.55433 756.351365 1151.54322 782.255569 1121.28283 832.04326 1088.02851 858.904314 1074.91084 883.930986 1058.44798 909.098667 1048.69818 933.915707 1028.89681 958.000466 1023.6736 993.151348 989.597189 1007.31369 978.20349 1035.78977 963.409636 1058.81469 971.342956 1085.94558 976.54253 1110.17217 963.409636 1135.16818 956.136535 1161.07881 932.36697 1187.7476 932.36697 1211.77101 916.984379 1237.59722 915.203533 1263.2405 924.133653 1313.75146 912.499619 1363.79975 958.819624 1389.21757 961.731508 1413.58773 956.828388 1439.85668 943.963794 1464.64588 952.059771 1490.61105 913.979287 1540.47048 920.611917 1566.05357 898.91847 1591.96538 891.287677 1619.3226 897.338117 1641.05082 908.742425 1671.34501 906.652711 1693.52616 898.61316 1718.22613 885.187154 1742.89548 898.91847 1772.64094 898.61316 1794.63817 902.146319 1820.7888 910.620872 2782.99704 827.002643"></polyline>
        <polyline id="Japan" stroke="#38393D" stroke-width="4" points="554.163906 1604.57438 576.283052 1575.87751 604.666849 1550.87792 630.669029 1582.62843 655.342989 1508.1924 680.327286 1492.57831 706.124579 1455.69741 730.880494 1428.6167 756.120492 1409.98884 782.266913 1382.73602 806.216936 1350.81122 832.516887 1336.24342 858.369362 1306.91331 882.51881 1303.90556 908.754289 1303.90556 934.388764 1226.83276 959.52823 1217.66745 984.474828 1175.56436 1010.33331 1177.56297 1036.30599 1183.22334 1086.31556 1165.74067 1111.67303 1129.41979 1137.09934 1119.63708 1162.10166 1092.91861 1187.14224 1087.874 1212.30137 1049.49659 1262.82234 1007.16403 1313.74763 1030.10819 1339.5635 1028.55651 1364.55435 1008.91623 1388.95895 997.665979 1415.50641 994.26484 1439.47774 1014.00893 1465.71868 1045.6753 1491.46789 1053.45557 1516.38171 1047.1259 1541.77032 1012.43703 1566.71637 1005.24956 1591.88753 1041.71687 1617.40672 1041.71687 1643.26478 1093.93218 1667.8446 1083.87702 1692.77702 1117.8662 1725.83939 1121.69738 1743.60955 1126.0097 1769.09876 1152.86815 1793.57916 1141.40891 2782.99704 896.314655"></polyline>
        <polyline id="Brazil" stroke="#636A78" stroke-width="4" points="553.521154 1734.31588 580.53203 1728.21605 605.799073 1730.13498 632.012957 1716.07077 653.440157 1709.99755 683.739041 1709.99755 706.021058 1711.65146 731.810049 1691.46659 756.608346 1695.95994 782.183813 1690.22103 807.318212 1705.57105 832.319968 1698.24329 857.786876 1680.62034 881.631502 1671.73033 907.529053 1653.01568 934.079399 1642.0181 959.090141 1651.98867 984.493783 1640.50581 1004.18906 1621.07114 1019.03979 1603.83031 1034.81291 1583.33486 1060.72376 1607.85672 1087.31257 1612.15668 1112.55337 1614.17187 1136.47744 1614.17187 1161.82608 1605.88683 1187.21355 1527.87174 1217.3406 1541.96219 1237.5431 1555.78986 1262.74328 1511.91996 1288.60884 1511.91996 1313.552 1481.4701 1338.9693 1483.85086 1364.34598 1473.70414 1389.07921 1434.709 1414.30168 1348.23812 1439.5716 1330.52243 1465.16253 1328.40301 1490.56329 1334.53698 1515.31917 1302.28942 1540.53265 1284.45187 1566.37269 1305.66267 1591.515 1278.87507 1617.82198 1280.60771 1641.80464 1265.60026 1667.98294 1293.70351 1692.7931 1263.93304 1718.73163 1247.68291 1744.73045 1194.98463 1794.49034 1142.46108 1820.05467 1098.52072 2783.22631 1029.22461"></polyline>
        <polyline id="China" stroke="#3B5783" stroke-width="4" points="553.268606 2008.45327 585.276997 1992.74292 605.343415 1980.63735 633.617833 1968.76981 659.701579 1963.13514 688.930203 1959.57039 706.143832 1957.69778 732.18896 1959.57039 781.004442 1969.73384 807.956733 1959.57039 833.28568 1954.19411 869.504795 1954.19411 908.967791 1950.20456 934.607977 1958.27084 961.238941 1955.8107 984.664134 1950.20456 1011.62037 1938.00611 1037.60569 1930.55877 1064.60315 1926.5139 1087.35821 1917.45163 1112.46975 1913.76509 1136.9083 1898.70347 1160.77548 1877.98003 1187.43094 1867.88603 1237.02021 1832.39971 1264.24009 1823.3056 1289.30673 1810.05521 1322.19636 1781.56684 1365.37111 1735.28977 1390.45643 1689.83021 1415.01021 1655.23381 1440.47851 1630.15355 1467.10488 1614.37721 1490.03071 1589.12616 1512.83829 1572.12405 1540.88648 1544.75898 1567.144 1544.75898 1593.70469 1528.54913 1617.41468 1502.58545 1643.64818 1486.72896 1693.64191 1448.97679 1725.39277 1416.93155 1744.06346 1395.19032 1794.25924 1357.23327 1829.35625 1351.41466 2782.91054 1145.9667"></polyline>
        <polyline id="Indonesia" stroke="#C2D0EE" stroke-width="4" points="552.78356 1977.23946 608.639781 1980.89181 660.708626 1979.06564 680.21963 1975.51434 710.828208 1975.51434 731.655273 1977.23946 757.875187 1975.51434 779.041022 1966.23546 839.764108 1965.54936 858.436863 1967.92625 883.007712 1963.03938 909.09868 1965.54936 937.831671 1958.91861 957.273278 1953.12189 996.28992 1948.16917 1035.7658 1935.12007 1061.13102 1935.12007 1086.79619 1926.99196 1114.5938 1914.6693 1133.5548 1912.14243 1161.27207 1912.14243 1212.03077 1900.66309 1239.27053 1900.66309 1261.64929 1894.72087 1296.3576 1891.30689 1316.22225 1886.4876 1339.1261 1875.50647 1364.1162 1866.15785 1389.41418 1844.85514 1414.85249 1848.84869 1440.20563 1833.40063 1491.01329 1864.26606 1515.92443 1858.66448 1541.16173 1841.19568 1570.31984 1832.62247 1596.21428 1827.46323 1617.93762 1824.04167 1641.32002 1814.29139 1668.88181 1814.29139 1694.02912 1798.62543 1719.06266 1787.40674 1744.62371 1779.45309 1768.84874 1774.72138 1793.73974 1755.70973 1811.59449 1747.00686 1821.38304 1742.99331 2783.0239 1436.63276"></polyline>
        <polyline id="Nigeria" stroke="#414F67" stroke-width="4" points="552.459624 1958.07464 583.159259 1958.07464 602.350137 1959.67381 630.778334 1960.07442 657.962599 1964.5892 684.769314 1961.33192 706.238875 1965.85778 728.986838 1960.07442 757.944744 1960.07442 782.441559 1964.12333 806.553937 1958.07464 816.78181 1958.42444 828.369076 1959.67381 875.164798 1955.57227 887.831808 1954.61609 920.158401 1954.61609 944.694729 1950.94701 979.906459 1950.94701 1008.42732 1950.94701 1035.90707 1948.29983 1110.10417 1929.01028 1140.22129 1920.1859 1161.43237 1915.04325 1186.8273 1913.74586 1210.98094 1916.12911 1238.17602 1916.12911 1263.04177 1909.85586 1287.90643 1909.85586 1313.62839 1912.11271 1340.1417 1905.94381 1365.20174 1904.49163 1392.8103 1899.82271 1421.73699 1893.93368 1441.99866 1890.5853 1470.04404 1889.0589 1510.98042 1885.46143 1521.46873 1885.78212 1541.79022 1889.0589 1559.47457 1887.65104 1567.86605 1887.36659 1588.00306 1890.5853 1598.18487 1890.5853 1624.13779 1888.09551 1667.26946 1881.41359 1729.39158 1858.35148 1743.46582 1854.49629 1769.11878 1853.12265 1794.91501 1844.64874 1821.30509 1842.83208 2782.98539 1661.921"></polyline>
        <polyline id="India" stroke="#6A7892" stroke-width="4" points="552.724848 1982.66738 580.079644 1987.20079 606.144469 1978.01901 630.878432 1971.4596 667.779169 1974.80642 708.38163 1976.12263 732.516898 1980.93147 775.628322 1969.959 804.277726 1958.90381 822.496807 1962.26167 885.494753 1958.90381 912.512463 1948.73058 933.375334 1932.88102 960.016653 1925.14321 984.924274 1902.17354 1009.8739 1898.82886 1036.49298 1880.65837 1060.82819 1867.6338 1086.5726 1864.36077 1111.35997 1895.10614 1136.21571 1919.35158 1162.4724 1931.70244 1186.90947 1948.73058 1212.35744 1936.8524 1237.26342 1946.32926 1266.59583 1944.28664 1287.18486 1938.99671 1313.03326 1938.99671 1338.85664 1952.47491 1364.15882 1942.31292 1389.22095 1950.46618 1415.02989 1929.27592 1440.00089 1940.6876 1465.71203 1942.31292 1490.06236 1927.58948 1516.92095 1929.27592 1541.08068 1936.8524 1566.2256 1917.9387 1618.18799 1917.9387 1641.27918 1910.28054 1668.47061 1908.01398 1693.99116 1892.35314 1717.95308 1866.59754 1743.59476 1885.17229 1768.89861 1895.10614 1794.80423 1889.32254 1820.56761 1877.37354 2782.97244 1792.10281"></polyline>
        <polyline id="Ethiopia" stroke="#979797" stroke-width="4" points="552.37262 1848.94368 579.831902 1848.94368 608.424231 1857.58731 629.894706 1860.5287 656.892928 1860.5287 681.519591 1860.5287 782.726343 1867.80296 807.385584 1890.87251 837.26888 1899.45429 861.903826 1903.17811 883.423443 1904.09415 907.910961 1911.86646 1009.65331 1904.09415 1033.86972 1908.19565 1063.32122 1908.19565 1110.12679 1912.8946 1135.6198 1921.98879 1160.15757 1911.86646 1186.77645 1891.67426 1212.51849 1935.04866 1236.38592 1933.05588 1267.83572 1933.05588 1288.09529 1930.67604 1311.89812 1938.56762 1338.82622 1942.78507 1364.43077 1977.60143 1417.07882 1980.63946 1441.06166 1973.00077 1460.16223 1975.18901 1516.47998 1975.18901 1541.92496 1979.13259 1566.95967 1975.18901 1592.20256 1930.67604 1642.94784 1935.04866 1668.01403 1946.41612 1719.45117 1935.04866 1744.02925 1919.56699 1769.24894 1933.05588 1794.37642 1904.82302 1820.34595 1927.70593 2783.05542 1915.45806"></polyline>
        <polyline id="World" stroke="#1C2A40" stroke-width="12" points="548.934972 1700.33726 582.231827 1691.5 604.29518 1682.361 632.10724 1682.361 657.226756 1678.68088 683.444317 1669.98254 729.971392 1659.49528 762.825428 1659.49528 811.032336 1652.91706 833.406089 1651.58828 859.062912 1653.49325 883.644552 1644.69984 904.089774 1644.69984 933.002807 1638.28674 959.742902 1638.28674 992.687693 1631.60549 1035.31801 1625.01376 1087.20491 1625.01376 1138.18152 1615.76373 1164.11977 1605.50841 1234.74325 1594.58487 1268.32943 1594.58487 1289.31168 1592.46239 1338.85587 1600.79723 1367.17601 1593.35256 1388.98849 1580.97898 1414.40714 1569.96917 1466.65095 1562.15286 1540.29783 1541.01433 1566.58171 1541.01433 1602.67768 1531.01259 1650.82951 1519.76574 1697.691 1502.70361 1719.31332 1490.13088 1743.47291 1483.80139 1772.94942 1479.52513 1795.80182 1470.80249 1820.81624 1467.87009 2787.65589 1393.83376"></polyline>
        <text id="g-animal-based-prote" transform="translate(372.500000, 1337.500000) rotate(-90.000000) translate(-372.500000, -1337.500000) " font-family="IBMPlexSerif, IBM Plex Serif" font-size="45" font-weight="normal" fill="#1C2A40">
            <tspan x="-93.045" y="1354.5">g animal-based protein available/capita/day</tspan>
        </text>
        <text id="United-States" font-family="IBMPlexSerif, IBM Plex Serif" font-size="45" font-weight="normal" fill="#868A8F">
            <tspan x="2824" y="708">United States</tspan>
        </text>
        <text id="European-Union" font-family="IBMPlexSerif, IBM Plex Serif" font-size="45" font-weight="normal" fill="#97A3BE">
            <tspan x="2824" y="843">European Union</tspan>
        </text>
        <text id="Japan" font-family="IBMPlexSerif, IBM Plex Serif" font-size="45" font-weight="normal" fill="#38393D">
            <tspan x="2824" y="912">Japan</tspan>
        </text>
        <text id="Brazil" font-family="IBMPlexSerif, IBM Plex Serif" font-size="45" font-weight="normal" fill="#636A78">
            <tspan x="2824" y="1045">Brazil</tspan>
        </text>
        <text id="China" font-family="IBMPlexSerif, IBM Plex Serif" font-size="45" font-weight="normal" fill="#3B5783">
            <tspan x="2824" y="1161">China</tspan>
        </text>
        <text id="World" font-family="IBMPlexSerif-Bold, IBM Plex Serif" font-size="45" font-weight="bold" fill="#1C2A40">
            <tspan x="2824" y="1409">World</tspan>
        </text>
        <text id="Indonesia" font-family="IBMPlexSerif, IBM Plex Serif" font-size="45" font-weight="normal" fill="#C2D0EE">
            <tspan x="2824" y="1451">Indonesia</tspan>
        </text>
        <text id="Nigeria" font-family="IBMPlexSerif, IBM Plex Serif" font-size="45" font-weight="normal" fill="#414F67">
            <tspan x="2824" y="1677">Nigeria</tspan>
        </text>
        <text id="India" font-family="IBMPlexSerif, IBM Plex Serif" font-size="45" font-weight="normal" fill="#6A7892">
            <tspan x="2817" y="1808">India</tspan>
        </text>
        <text id="Ethiopia" font-family="IBMPlexSerif, IBM Plex Serif" font-size="45" font-weight="normal" fill="#979797">
            <tspan x="2817" y="1930">Ethiopia</tspan>
        </text>
    </g>
</svg>