<?xml version="1.0" encoding="UTF-8"?>
<svg width="3469px" height="2690px" viewBox="0 0 3469 2690" version="1.1" xmlns="http://www.w3.org/2000/svg" xmlns:xlink="http://www.w3.org/1999/xlink">
    <title>World+China</title>
    <g id="World+China" stroke="none" stroke-width="1" fill="none" fill-rule="evenodd">
        <rect fill="#FFFFFF" x="0" y="0" width="3469" height="2690"></rect>
        <g id="Linien-vom-Graph" transform="translate(541.000000, 543.588720)" stroke="#979797">
            <line x1="0.149219395" y1="0.5" x2="2248.91767" y2="0.5" id="Path-10" stroke-width="2"></line>
            <line x1="2.27373675e-13" y1="191.41128" x2="2248.76845" y2="191.41128" id="Path-10" stroke-width="2"></line>
            <line x1="2.27373675e-13" y1="383.41128" x2="2248.76845" y2="383.41128" id="Path-10" stroke-width="2"></line>
            <line x1="0.149219395" y1="574.91128" x2="2248.91767" y2="574.91128" id="Path-10" stroke-width="2"></line>
            <line x1="2.27373675e-13" y1="765.822561" x2="2248.76845" y2="765.822561" id="Path-10" stroke-width="2"></line>
            <line x1="2.27373675e-13" y1="957.822561" x2="2248.76845" y2="957.822561" id="Path-10" stroke-width="2"></line>
            <line x1="0.149219395" y1="1148.91128" x2="2248.91767" y2="1148.91128" id="Path-10" stroke-width="2"></line>
            <line x1="2.27373675e-13" y1="1339.82256" x2="2248.76845" y2="1339.82256" id="Path-10" stroke-width="2"></line>
            <line x1="2.27373675e-13" y1="1531.82256" x2="2248.76845" y2="1531.82256" id="Path-10" stroke-width="2"></line>
            <line x1="1279.43127" y1="0.5" x2="1279.43127" y2="1529.91128" id="Path-11" stroke-width="12" stroke-dasharray="29"></line>
        </g>
        <g id="Jahreszahlen" transform="translate(527.000000, 2104.000000)" fill="#1C2A40" font-family="IBMPlexSerif, IBM Plex Serif" font-size="45" font-weight="normal">
            <text id="1961">
                <tspan x="0" y="46">1961</tspan>
            </text>
            <text id="2000">
                <tspan x="965" y="46">2000</tspan>
            </text>
            <text id="2010">
                <tspan x="1216" y="46">2010</tspan>
            </text>
            <text id="2020">
                <tspan x="1463" y="46">2020</tspan>
            </text>
            <text id="2030">
                <tspan x="1711" y="46">2030</tspan>
            </text>
            <text id="2040">
                <tspan x="1959" y="46">2040</tspan>
            </text>
            <text id="2050">
                <tspan x="2207" y="46">2050</tspan>
            </text>
            <text id="1970">
                <tspan x="223" y="46">1970</tspan>
            </text>
            <text id="1980">
                <tspan x="470" y="46">1980</tspan>
            </text>
            <text id="1990">
                <tspan x="718" y="46">1990</tspan>
            </text>
        </g>
        <g id="grammzahlen" transform="translate(458.000000, 514.000000)" fill="#1C2A40" font-family="IBMPlexSerif, IBM Plex Serif" font-size="45" font-weight="normal">
            <text id="0">
                <tspan x="27" y="1575">0</tspan>
            </text>
            <text id="10">
                <tspan x="0" y="1384">10</tspan>
            </text>
            <text id="20">
                <tspan x="0" y="1193">20</tspan>
            </text>
            <text id="30">
                <tspan x="0" y="1002">30</tspan>
            </text>
            <text id="40">
                <tspan x="0" y="811">40</tspan>
            </text>
            <text id="50">
                <tspan x="0" y="619">50</tspan>
            </text>
            <text id="60">
                <tspan x="0" y="428">60</tspan>
            </text>
            <text id="70">
                <tspan x="0" y="236">70</tspan>
            </text>
            <text id="80">
                <tspan x="0" y="46">80</tspan>
            </text>
        </g>
        <polyline id="China" stroke="#3B5783" stroke-width="4" points="553.268606 2008.45327 585.276997 1992.74292 605.343415 1980.63735 633.617833 1968.76981 659.701579 1963.13514 688.930203 1959.57039 706.143832 1957.69778 732.18896 1959.57039 781.004442 1969.73384 807.956733 1959.57039 833.28568 1954.19411 869.504795 1954.19411 908.967791 1950.20456 934.607977 1958.27084 961.238941 1955.8107 984.664134 1950.20456 1011.62037 1938.00611 1037.60569 1930.55877 1064.60315 1926.5139 1087.35821 1917.45163 1112.46975 1913.76509 1136.9083 1898.70347 1160.77548 1877.98003 1187.43094 1867.88603 1237.02021 1832.39971 1264.24009 1823.3056 1289.30673 1810.05521 1322.19636 1781.56684 1365.37111 1735.28977 1390.45643 1689.83021 1415.01021 1655.23381 1440.47851 1630.15355 1467.10488 1614.37721 1490.03071 1589.12616 1512.83829 1572.12405 1540.88648 1544.75898 1567.144 1544.75898 1593.70469 1528.54913 1617.41468 1502.58545 1643.64818 1486.72896 1693.64191 1448.97679 1725.39277 1416.93155 1744.06346 1395.19032 1794.25924 1357.23327 1829.35625 1351.41466 2782.91054 1145.9667"></polyline>
        <polyline id="World" stroke="#1C2A40" stroke-width="12" points="548.934972 1700.33726 582.231827 1691.5 604.29518 1682.361 632.10724 1682.361 657.226756 1678.68088 683.444317 1669.98254 729.971392 1659.49528 762.825428 1659.49528 811.032336 1652.91706 833.406089 1651.58828 859.062912 1653.49325 883.644552 1644.69984 904.089774 1644.69984 933.002807 1638.28674 959.742902 1638.28674 992.687693 1631.60549 1035.31801 1625.01376 1087.20491 1625.01376 1138.18152 1615.76373 1164.11977 1605.50841 1234.74325 1594.58487 1268.32943 1594.58487 1289.31168 1592.46239 1338.85587 1600.79723 1367.17601 1593.35256 1388.98849 1580.97898 1414.40714 1569.96917 1466.65095 1562.15286 1540.29783 1541.01433 1566.58171 1541.01433 1602.67768 1531.01259 1650.82951 1519.76574 1697.691 1502.70361 1719.31332 1490.13088 1743.47291 1483.80139 1772.94942 1479.52513 1795.80182 1470.80249 1820.81624 1467.87009 2787.65589 1393.83376"></polyline>
        <text id="g-animal-based-prote" transform="translate(372.500000, 1337.500000) rotate(-90.000000) translate(-372.500000, -1337.500000) " font-family="IBMPlexSerif, IBM Plex Serif" font-size="45" font-weight="normal" fill="#1C2A40">
            <tspan x="-93.045" y="1354.5">g animal-based protein available/capita/day</tspan>
        </text>
        <text id="China" font-family="IBMPlexSerif, IBM Plex Serif" font-size="45" font-weight="normal" fill="#3B5783">
            <tspan x="2824" y="1161">China</tspan>
        </text>
        <text id="World" font-family="IBMPlexSerif-Bold, IBM Plex Serif" font-size="45" font-weight="bold" fill="#1C2A40">
            <tspan x="2824" y="1409">World</tspan>
        </text>
    </g>
</svg>