<?xml version="1.0" encoding="UTF-8"?>
<svg width="3469px" height="2690px" viewBox="0 0 3469 2690" version="1.1" xmlns="http://www.w3.org/2000/svg" xmlns:xlink="http://www.w3.org/1999/xlink">
    <title>World+Indonesia</title>
    <g id="World+Indonesia" stroke="none" stroke-width="1" fill="none" fill-rule="evenodd">
        <rect fill="#FFFFFF" x="0" y="0" width="3469" height="2690"></rect>
        <g id="Linien-vom-Graph" transform="translate(541.000000, 543.588720)" stroke="#979797">
            <line x1="0.149219395" y1="0.5" x2="2248.91767" y2="0.5" id="Path-10" stroke-width="2"></line>
            <line x1="2.27373675e-13" y1="191.41128" x2="2248.76845" y2="191.41128" id="Path-10" stroke-width="2"></line>
            <line x1="2.27373675e-13" y1="383.41128" x2="2248.76845" y2="383.41128" id="Path-10" stroke-width="2"></line>
            <line x1="0.149219395" y1="574.91128" x2="2248.91767" y2="574.91128" id="Path-10" stroke-width="2"></line>
            <line x1="2.27373675e-13" y1="765.822561" x2="2248.76845" y2="765.822561" id="Path-10" stroke-width="2"></line>
            <line x1="2.27373675e-13" y1="957.822561" x2="2248.76845" y2="957.822561" id="Path-10" stroke-width="2"></line>
            <line x1="0.149219395" y1="1148.91128" x2="2248.91767" y2="1148.91128" id="Path-10" stroke-width="2"></line>
            <line x1="2.27373675e-13" y1="1339.82256" x2="2248.76845" y2="1339.82256" id="Path-10" stroke-width="2"></line>
            <line x1="2.27373675e-13" y1="1531.82256" x2="2248.76845" y2="1531.82256" id="Path-10" stroke-width="2"></line>
            <line x1="1279.43127" y1="0.5" x2="1279.43127" y2="1529.91128" id="Path-11" stroke-width="12" stroke-dasharray="29"></line>
        </g>
        <g id="Jahreszahlen" transform="translate(527.000000, 2104.000000)" fill="#1C2A40" font-family="IBMPlexSerif, IBM Plex Serif" font-size="45" font-weight="normal">
            <text id="1961">
                <tspan x="0" y="46">1961</tspan>
            </text>
            <text id="2000">
                <tspan x="965" y="46">2000</tspan>
            </text>
            <text id="2010">
                <tspan x="1216" y="46">2010</tspan>
            </text>
            <text id="2020">
                <tspan x="1463" y="46">2020</tspan>
            </text>
            <text id="2030">
                <tspan x="1711" y="46">2030</tspan>
            </text>
            <text id="2040">
                <tspan x="1959" y="46">2040</tspan>
            </text>
            <text id="2050">
                <tspan x="2207" y="46">2050</tspan>
            </text>
            <text id="1970">
                <tspan x="223" y="46">1970</tspan>
            </text>
            <text id="1980">
                <tspan x="470" y="46">1980</tspan>
            </text>
            <text id="1990">
                <tspan x="718" y="46">1990</tspan>
            </text>
        </g>
        <g id="grammzahlen" transform="translate(458.000000, 514.000000)" fill="#1C2A40" font-family="IBMPlexSerif, IBM Plex Serif" font-size="45" font-weight="normal">
            <text id="0">
                <tspan x="27" y="1575">0</tspan>
            </text>
            <text id="10">
                <tspan x="0" y="1384">10</tspan>
            </text>
            <text id="20">
                <tspan x="0" y="1193">20</tspan>
            </text>
            <text id="30">
                <tspan x="0" y="1002">30</tspan>
            </text>
            <text id="40">
                <tspan x="0" y="811">40</tspan>
            </text>
            <text id="50">
                <tspan x="0" y="619">50</tspan>
            </text>
            <text id="60">
                <tspan x="0" y="428">60</tspan>
            </text>
            <text id="70">
                <tspan x="0" y="236">70</tspan>
            </text>
            <text id="80">
                <tspan x="0" y="46">80</tspan>
            </text>
        </g>
        <polyline id="Indonesia" stroke="#C2D0EE" stroke-width="4" points="552.78356 1977.23946 608.639781 1980.89181 660.708626 1979.06564 680.21963 1975.51434 710.828208 1975.51434 731.655273 1977.23946 757.875187 1975.51434 779.041022 1966.23546 839.764108 1965.54936 858.436863 1967.92625 883.007712 1963.03938 909.09868 1965.54936 937.831671 1958.91861 957.273278 1953.12189 996.28992 1948.16917 1035.7658 1935.12007 1061.13102 1935.12007 1086.79619 1926.99196 1114.5938 1914.6693 1133.5548 1912.14243 1161.27207 1912.14243 1212.03077 1900.66309 1239.27053 1900.66309 1261.64929 1894.72087 1296.3576 1891.30689 1316.22225 1886.4876 1339.1261 1875.50647 1364.1162 1866.15785 1389.41418 1844.85514 1414.85249 1848.84869 1440.20563 1833.40063 1491.01329 1864.26606 1515.92443 1858.66448 1541.16173 1841.19568 1570.31984 1832.62247 1596.21428 1827.46323 1617.93762 1824.04167 1641.32002 1814.29139 1668.88181 1814.29139 1694.02912 1798.62543 1719.06266 1787.40674 1744.62371 1779.45309 1768.84874 1774.72138 1793.73974 1755.70973 1811.59449 1747.00686 1821.38304 1742.99331 2783.0239 1436.63276"></polyline>
        <polyline id="World" stroke="#1C2A40" stroke-width="12" points="548.934972 1700.33726 582.231827 1691.5 604.29518 1682.361 632.10724 1682.361 657.226756 1678.68088 683.444317 1669.98254 729.971392 1659.49528 762.825428 1659.49528 811.032336 1652.91706 833.406089 1651.58828 859.062912 1653.49325 883.644552 1644.69984 904.089774 1644.69984 933.002807 1638.28674 959.742902 1638.28674 992.687693 1631.60549 1035.31801 1625.01376 1087.20491 1625.01376 1138.18152 1615.76373 1164.11977 1605.50841 1234.74325 1594.58487 1268.32943 1594.58487 1289.31168 1592.46239 1338.85587 1600.79723 1367.17601 1593.35256 1388.98849 1580.97898 1414.40714 1569.96917 1466.65095 1562.15286 1540.29783 1541.01433 1566.58171 1541.01433 1602.67768 1531.01259 1650.82951 1519.76574 1697.691 1502.70361 1719.31332 1490.13088 1743.47291 1483.80139 1772.94942 1479.52513 1795.80182 1470.80249 1820.81624 1467.87009 2787.65589 1393.83376"></polyline>
        <text id="g-animal-based-prote" transform="translate(372.500000, 1337.500000) rotate(-90.000000) translate(-372.500000, -1337.500000) " font-family="IBMPlexSerif, IBM Plex Serif" font-size="45" font-weight="normal" fill="#1C2A40">
            <tspan x="-93.045" y="1354.5">g animal-based protein available/capita/day</tspan>
        </text>
        <text id="World" font-family="IBMPlexSerif-Bold, IBM Plex Serif" font-size="45" font-weight="bold" fill="#1C2A40">
            <tspan x="2824" y="1409">World</tspan>
        </text>
        <text id="Indonesia" font-family="IBMPlexSerif, IBM Plex Serif" font-size="45" font-weight="normal" fill="#C2D0EE">
            <tspan x="2824" y="1451">Indonesia</tspan>
        </text>
    </g>
</svg>