<?xml version="1.0" encoding="UTF-8"?>
<svg width="3469px" height="2690px" viewBox="0 0 3469 2690" version="1.1" xmlns="http://www.w3.org/2000/svg" xmlns:xlink="http://www.w3.org/1999/xlink">
    <title>World+Nigeria</title>
    <g id="World+Nigeria" stroke="none" stroke-width="1" fill="none" fill-rule="evenodd">
        <rect fill="#FFFFFF" x="0" y="0" width="3469" height="2690"></rect>
        <g id="Linien-vom-Graph" transform="translate(541.000000, 543.588720)" stroke="#979797">
            <line x1="0.149219395" y1="0.5" x2="2248.91767" y2="0.5" id="Path-10" stroke-width="2"></line>
            <line x1="2.27373675e-13" y1="191.41128" x2="2248.76845" y2="191.41128" id="Path-10" stroke-width="2"></line>
            <line x1="2.27373675e-13" y1="383.41128" x2="2248.76845" y2="383.41128" id="Path-10" stroke-width="2"></line>
            <line x1="0.149219395" y1="574.91128" x2="2248.91767" y2="574.91128" id="Path-10" stroke-width="2"></line>
            <line x1="2.27373675e-13" y1="765.822561" x2="2248.76845" y2="765.822561" id="Path-10" stroke-width="2"></line>
            <line x1="2.27373675e-13" y1="957.822561" x2="2248.76845" y2="957.822561" id="Path-10" stroke-width="2"></line>
            <line x1="0.149219395" y1="1148.91128" x2="2248.91767" y2="1148.91128" id="Path-10" stroke-width="2"></line>
            <line x1="2.27373675e-13" y1="1339.82256" x2="2248.76845" y2="1339.82256" id="Path-10" stroke-width="2"></line>
            <line x1="2.27373675e-13" y1="1531.82256" x2="2248.76845" y2="1531.82256" id="Path-10" stroke-width="2"></line>
            <line x1="1279.43127" y1="0.5" x2="1279.43127" y2="1529.91128" id="Path-11" stroke-width="12" stroke-dasharray="29"></line>
        </g>
        <g id="Jahreszahlen" transform="translate(527.000000, 2104.000000)" fill="#1C2A40" font-family="IBMPlexSerif, IBM Plex Serif" font-size="45" font-weight="normal">
            <text id="1961">
                <tspan x="0" y="46">1961</tspan>
            </text>
            <text id="2000">
                <tspan x="965" y="46">2000</tspan>
            </text>
            <text id="2010">
                <tspan x="1216" y="46">2010</tspan>
            </text>
            <text id="2020">
                <tspan x="1463" y="46">2020</tspan>
            </text>
            <text id="2030">
                <tspan x="1711" y="46">2030</tspan>
            </text>
            <text id="2040">
                <tspan x="1959" y="46">2040</tspan>
            </text>
            <text id="2050">
                <tspan x="2207" y="46">2050</tspan>
            </text>
            <text id="1970">
                <tspan x="223" y="46">1970</tspan>
            </text>
            <text id="1980">
                <tspan x="470" y="46">1980</tspan>
            </text>
            <text id="1990">
                <tspan x="718" y="46">1990</tspan>
            </text>
        </g>
        <g id="grammzahlen" transform="translate(458.000000, 514.000000)" fill="#1C2A40" font-family="IBMPlexSerif, IBM Plex Serif" font-size="45" font-weight="normal">
            <text id="0">
                <tspan x="27" y="1575">0</tspan>
            </text>
            <text id="10">
                <tspan x="0" y="1384">10</tspan>
            </text>
            <text id="20">
                <tspan x="0" y="1193">20</tspan>
            </text>
            <text id="30">
                <tspan x="0" y="1002">30</tspan>
            </text>
            <text id="40">
                <tspan x="0" y="811">40</tspan>
            </text>
            <text id="50">
                <tspan x="0" y="619">50</tspan>
            </text>
            <text id="60">
                <tspan x="0" y="428">60</tspan>
            </text>
            <text id="70">
                <tspan x="0" y="236">70</tspan>
            </text>
            <text id="80">
                <tspan x="0" y="46">80</tspan>
            </text>
        </g>
        <polyline id="Nigeria" stroke="#414F67" stroke-width="4" points="552.459624 1958.07464 583.159259 1958.07464 602.350137 1959.67381 630.778334 1960.07442 657.962599 1964.5892 684.769314 1961.33192 706.238875 1965.85778 728.986838 1960.07442 757.944744 1960.07442 782.441559 1964.12333 806.553937 1958.07464 816.78181 1958.42444 828.369076 1959.67381 875.164798 1955.57227 887.831808 1954.61609 920.158401 1954.61609 944.694729 1950.94701 979.906459 1950.94701 1008.42732 1950.94701 1035.90707 1948.29983 1110.10417 1929.01028 1140.22129 1920.1859 1161.43237 1915.04325 1186.8273 1913.74586 1210.98094 1916.12911 1238.17602 1916.12911 1263.04177 1909.85586 1287.90643 1909.85586 1313.62839 1912.11271 1340.1417 1905.94381 1365.20174 1904.49163 1392.8103 1899.82271 1421.73699 1893.93368 1441.99866 1890.5853 1470.04404 1889.0589 1510.98042 1885.46143 1521.46873 1885.78212 1541.79022 1889.0589 1559.47457 1887.65104 1567.86605 1887.36659 1588.00306 1890.5853 1598.18487 1890.5853 1624.13779 1888.09551 1667.26946 1881.41359 1729.39158 1858.35148 1743.46582 1854.49629 1769.11878 1853.12265 1794.91501 1844.64874 1821.30509 1842.83208 2782.98539 1661.921"></polyline>
        <polyline id="World" stroke="#1C2A40" stroke-width="12" points="548.934972 1700.33726 582.231827 1691.5 604.29518 1682.361 632.10724 1682.361 657.226756 1678.68088 683.444317 1669.98254 729.971392 1659.49528 762.825428 1659.49528 811.032336 1652.91706 833.406089 1651.58828 859.062912 1653.49325 883.644552 1644.69984 904.089774 1644.69984 933.002807 1638.28674 959.742902 1638.28674 992.687693 1631.60549 1035.31801 1625.01376 1087.20491 1625.01376 1138.18152 1615.76373 1164.11977 1605.50841 1234.74325 1594.58487 1268.32943 1594.58487 1289.31168 1592.46239 1338.85587 1600.79723 1367.17601 1593.35256 1388.98849 1580.97898 1414.40714 1569.96917 1466.65095 1562.15286 1540.29783 1541.01433 1566.58171 1541.01433 1602.67768 1531.01259 1650.82951 1519.76574 1697.691 1502.70361 1719.31332 1490.13088 1743.47291 1483.80139 1772.94942 1479.52513 1795.80182 1470.80249 1820.81624 1467.87009 2787.65589 1393.83376"></polyline>
        <text id="g-animal-based-prote" transform="translate(372.500000, 1337.500000) rotate(-90.000000) translate(-372.500000, -1337.500000) " font-family="IBMPlexSerif, IBM Plex Serif" font-size="45" font-weight="normal" fill="#1C2A40">
            <tspan x="-93.045" y="1354.5">g animal-based protein available/capita/day</tspan>
        </text>
        <text id="World" font-family="IBMPlexSerif-Bold, IBM Plex Serif" font-size="45" font-weight="bold" fill="#1C2A40">
            <tspan x="2824" y="1409">World</tspan>
        </text>
        <text id="Nigeria" font-family="IBMPlexSerif, IBM Plex Serif" font-size="45" font-weight="normal" fill="#414F67">
            <tspan x="2824" y="1677">Nigeria</tspan>
        </text>
    </g>
</svg>