<svg xmlns="http://www.w3.org/2000/svg" viewBox="0 0 1366 768" xmlns:v="https://vecta.io/nano"><g fill="#fff"><path d="M67.7 472.7c10.1 0 19.3 4.1 25.9 10.7s10.7 15.8 10.7 25.9-4.1 19.3-10.7 25.9-15.8 10.7-25.9 10.7-19.3-4.1-25.9-10.7-10.7-15.8-10.7-25.9 4.1-19.3 10.7-25.9c6.7-6.6 15.8-10.7 25.9-10.7zm19.9 16.7c-5.1-5.1-12.1-8.2-19.9-8.2s-14.8 3.1-19.9 8.2-8.2 12.1-8.2 19.9 3.1 14.8 8.2 19.9 12.1 8.2 19.9 8.2 14.8-3.1 19.9-8.2 8.2-12.1 8.2-19.9c.1-7.8-3.1-14.8-8.2-19.9zM67.7 300.1h0c9.2 0 17.5 3.8 23.6 9.8 6 6 9.8 14.4 9.8 23.6v128.8c7.2 5.1 13.2 11.8 17.4 19.6 4.5 8.2 7 17.6 7 27.5 0 15.9-6.5 30.4-16.9 40.8s-24.9 16.9-40.8 16.9-30.4-6.5-40.8-16.9-17-24.9-17-40.9c0-9.9 2.5-19.3 7-27.5 4.2-7.8 10.2-14.5 17.4-19.6V333.4c0-9.2 3.8-17.5 9.8-23.6 6-6 14.4-9.7 23.5-9.7zm0 8.5h0c-6.8 0-13 2.8-17.5 7.3s-7.3 10.7-7.3 17.5v131c0 1.4-.7 2.8-1.9 3.6h0c-6.9 4.5-12.6 10.6-16.5 17.9-3.8 7-5.9 15-5.9 23.5 0 13.6 5.5 25.9 14.4 34.8s21.2 14.4 34.8 14.4 25.9-5.5 34.8-14.4S117 523 117 509.4c0-8.5-2.1-16.5-5.9-23.5-3.9-7.1-9.5-13.2-16.3-17.7a4.21 4.21 0 0 1-2.2-3.7v-131c0-6.8-2.8-13-7.3-17.5a24.46 24.46 0 0 0-17.6-7.4zm-9 38.7a4.23 4.23 0 0 0-4.2 4.2 4.23 4.23 0 0 0 4.2 4.2h16.4a4.23 4.23 0 0 0 4.2-4.2 4.23 4.23 0 0 0-4.2-4.2H58.7zm0 16a4.23 4.23 0 0 0-4.2 4.2 4.23 4.23 0 0 0 4.2 4.2h8.2a4.23 4.23 0 0 0 4.2-4.2 4.23 4.23 0 0 0-4.2-4.2h-8.2zm0 16a4.23 4.23 0 0 0-4.2 4.2 4.23 4.23 0 0 0 4.2 4.2h16.4a4.23 4.23 0 0 0 4.2-4.2 4.23 4.23 0 0 0-4.2-4.2H58.7zm0 16a4.23 4.23 0 0 0-4.2 4.2 4.23 4.23 0 0 0 4.2 4.2h8.2a4.23 4.23 0 0 0 4.2-4.2 4.23 4.23 0 0 0-4.2-4.2h-8.2zm0 16.1a4.23 4.23 0 0 0-4.2 4.2 4.23 4.23 0 0 0 4.2 4.2h16.4a4.23 4.23 0 0 0 4.2-4.2 4.23 4.23 0 0 0-4.2-4.2H58.7zm0 16a4.23 4.23 0 0 0-4.2 4.2 4.23 4.23 0 0 0 4.2 4.2h8.2a4.23 4.23 0 0 0 4.2-4.2 4.23 4.23 0 0 0-4.2-4.2h-8.2zm0 16a4.23 4.23 0 0 0-4.2 4.2 4.23 4.23 0 0 0 4.2 4.2h16.4a4.23 4.23 0 0 0 4.2-4.2 4.23 4.23 0 0 0-4.2-4.2H58.7z"/><path d="M1279.2 489.5c-1.7 0-3.4-.4-4.8-1.1-3.7-1.8-5.4-5.4-4.3-9 2.2-7.2 5.8-17.9 7-21.4 1.1-3.1 3.5-5.5 6.4-6.2 3.1-.8 6.3.2 9.2 2.8 6.3 5.7 10.6 11.6.6 26.1h0c-4.4 6.3-9.7 8.8-14.1 8.8zm6.3-33.8c-.3 0-.7 0-1 .1-1.6.4-2.9 1.7-3.5 3.5-1.2 3.5-4.8 14.1-6.9 21.3-.6 2 .7 3.4 2.1 4.1 3.4 1.7 9 .3 13.6-6.3h0c8.8-12.7 4.9-16.2.1-20.7-1.5-1.3-3-2-4.4-2zm24.6 41c-1 0-2-.2-2.9-.6-4.2-1.8-5.9-7.3-5-16.2.7-6.7 2.5-10.7 5.8-12.6 3-1.7 6.8-1.5 11.8.7 3.6 1.6 5.8 4 6.5 7.2 1.5 6.7-4 13.9-5.7 15.9h0c-2.3 2.8-6.5 5.6-10.5 5.6zm2.3-26.3c-.9 0-1.7.2-2.4.6-2 1.1-3.2 4.3-3.7 9.4-.7 6.6.2 10.9 2.5 11.9s6.4-1.2 8.5-3.7c2.8-3.3 5.7-8.5 4.9-12.3-.4-1.9-1.8-3.3-4.1-4.4-2.3-1-4.2-1.5-5.7-1.5zm19.2 44.6c-.4 0-.8 0-1.2-.1-1.8-.2-5.9-1.5-5.9-8l.1-.6c1.6-5.2 5.9-17.6 9.9-19.3.9-.4 1.9-.4 2.7.1.5.3 1.2.6 2 .9 5.1 2.2 14.7 6.4 12.7 13.4h0c-1.5 4.9-12.7 13.6-20.3 13.6zm-2.9-7.8c.1 3.3 1.6 3.5 2.3 3.6 5.2.7 15.9-7.1 16.9-10.6h0c1-3.5-6.7-6.8-10.4-8.4-.6-.3-1.2-.5-1.7-.7-1.6 1.4-4.7 8.4-7.1 16.1zm-130.8 48.3c-1.7 0-3.2-.6-4.5-1.6-1.5-1.2-2.4-3-2.6-5-.3-3.8 2.4-7.1 6.2-7.6 30.8-3.5 57.9-19.5 72.4-42.7l1.1-1.8 12.1 7.5-1.1 1.8c-16.8 26.8-47.7 45.2-82.8 49.2-.3.2-.6.2-.8.2zm73.9-52.9c-15.4 23.3-43 39.2-74.4 42.8-1.5.2-2.6 1.5-2.5 3.1.1.8.4 1.5 1.1 2 .6.5 1.4.8 2.2.7 33-3.8 62.2-20.8 78.6-45.5l-5-3.1zm72.3 27c-.3 0-.5 0-.8-.1-2.7-.4-4.2-2.5-4.2-5.6l.1-.6c1.5-4.9 3.9-11 6.4-12 .8-.3 1.6-.3 2.3.1.3.1.7.3 1.2.5 3.3 1.4 9.4 4.1 8 9-1.1 3.6-8.3 8.7-13 8.7zm-.9-5.3c.1 1.1.4 1.2.6 1.2 2.8.4 8.7-4.2 9.1-5.7.2-.6-.7-1.8-5.7-4-.1-.1-.3-.1-.4-.2-.9 1.3-2.4 5-3.6 8.7zm2.7-9.2h0zm-28.2 48.4c9.7-9.5 15.7-19.2 19-25.6.5-1 .1-2.3-.9-2.8s-2.3-.1-2.8.9c-3.2 6.1-8.9 15.4-18.2 24.5-.8.8-.8 2.1 0 3 .4.4 1 .6 1.6.6.4 0 .9-.2 1.3-.6zm-28.4 7.4c-.7 0-1.4 0-2.1-.2-1.9-.5-3.5-1.7-4.4-3.5h0a7.2 7.2 0 0 1 2.5-9.5c24.8-15.5 32.4-38 32.5-38.2l.6-2 13.5 4.3-.6 2c-.4 1.1-9.1 27.6-38.5 46-1.1.7-2.3 1.1-3.5 1.1zm-2.9-5.7c.4.7 1.1 1.2 1.8 1.4.8.2 1.6.1 2.3-.3 24-14.9 33.5-35.3 36-41.7l-5.6-1.8c-2.5 6-11.6 24.9-33.5 38.5-1.3.9-1.8 2.6-1 3.9h0zm-53.4-66h-48.5c-6.5 0-11.8-5.3-11.8-11.8V484l10-10 9.6 9.6 9.5-9.5 7.4 7.4h2.5c8.8 0 17.2-4.2 22.5-11.2l4.3-5.9.8-.9c4.5-4.9 9.5-7.1 16.4-7.1l11.6.2-8 23.9c-3.8 11.1-14.4 18.7-26.3 18.7zm-56.1-13.5v1.7a7.6 7.6 0 0 0 7.6 7.6h48.5c10.1 0 19.1-6.4 22.3-16h0l6.2-18.4-5.8-.1c-5.7 0-9.6 1.7-13.3 5.8l-.7.8-4 5.4c-6.1 8.3-15.8 13.2-26 13.2h-4.2l-5.7-5.7-9.5 9.5-9.6-9.6-5.8 5.8zm68.2 81.7a7.64 7.64 0 0 1-3.3-.8 7.04 7.04 0 0 1-3.5-4.4v-.1c-.9-3.6 1.1-7.3 4.6-8.5 35.9-12.1 48.4-41.9 48.5-42.2l.8-1.9 13.2 5.2-.8 1.9c-.6 1.5-14.9 36.3-57.2 50.4-.8.3-1.5.4-2.3.4zm-2.8-6.3c.2.8.7 1.4 1.4 1.7.7.4 1.5.4 2.3.2 35.4-11.9 50.2-38.7 53.8-46.1l-5.5-2.2c-3.4 7.1-17.4 31.7-50.2 42.7-1.4.6-2.2 2.2-1.8 3.7h0zm-72.9-77v-19.9a17.15 17.15 0 0 1 11.4-16.1l21.9-7.8 16.3-13c5.7-4.6 12.6-7.7 19.8-9l26.7-4.8c.5-.1 1.1-.1 1.6-.1 2.8 0 5.3 1.3 7 3.5s2.2 5 1.5 7.7l-8.1 29.1-11.7-.2c-7.3 0-12.3 2.1-17.1 7.4l-1.7 1.8a20.76 20.76 0 0 1-15.3 6.8l-18.7.1-10.8 10.8-9.6-9.6-13.2 13.3zm13.3-19.3l9.6 9.6 9.1-9 20.4-.1c4.6 0 9.1-2 12.2-5.4l1.7-1.8c5.6-6.1 11.6-8.8 20.2-8.8l8.5.1 7.3-26c.4-1.4.1-2.9-.8-4.1-1.1-1.4-2.7-2.1-4.5-1.8l-26.7 4.8c-6.5 1.2-12.7 4-17.9 8.1l-16.9 13.4-.3.1-22.2 7.9c-5.1 1.8-8.6 6.7-8.6 12.2v9.9l8.9-9.1zm46.3-13.3c-2.1 0-4.2-.8-5.7-2.4-1.6-1.6-2.5-3.9-2.4-6.3.2-2.3 1.3-4.5 3.1-5.9l4.1-3.1c5.1-4 12.4-3.4 16.9 1.2 2 2.1 2.8 5 2 7.8s-2.9 4.9-5.7 5.7h0l-10.2 2.7c-.7.2-1.4.3-2.1.3zm6.9-16.1c-1.8 0-3.7.6-5.2 1.8l-4.1 3.1c-.9.7-1.5 1.7-1.5 2.9-.1 1.1.3 2.2 1.1 3 1 1 2.4 1.4 3.8 1l10.2-2.7c1.4-.4 2.4-1.4 2.8-2.7.4-1.4 0-2.8-1-3.8-1.6-1.7-3.9-2.6-6.1-2.6zm-53.1 26.7c-1.3 2.3-3.7 3.5-5.3 2.6s-1.7-3.5-.4-5.9c1.4-2.4 3.7-3.5 5.3-2.6 1.6 1 1.8 3.6.4 5.9zm5.8 72c1 0 24-.7 43.8-11.9 1-.6 1.4-1.8.8-2.8s-1.8-1.4-2.8-.8c-18.9 10.7-41.7 11.4-41.9 11.4-1.2 0-2.1 1-2 2.1 0 1.1.9 2 2.1 2z" stroke="#fff" stroke-miterlimit="10"/><path d="M984.4 252.1c0 1.9.3 3.7.8 5.5a3.54 3.54 0 0 0 3.4 2.6h44.6c-.1.8-.1 1.5-.1 2.3 0 1.9.3 3.7.8 5.5a3.54 3.54 0 0 0 3.4 2.6H1147c1.6 0 2.9-1 3.3-2.6.5-1.8.8-3.7.8-5.5-.2-12.4-10.4-22.2-22.8-22-1.3 0-2.7.1-4 .4-5.3-11.6-17-19-29.8-18.9a33.53 33.53 0 0 0-19.8 6.5 32.86 32.86 0 0 0-28.8-17c-13.3-.2-25.3 7.8-30.3 20.1-2.7-1-5.5-1.5-8.3-1.5-12.4-.1-22.6 9.7-22.9 22zm134.4-6c.6 1.8 2.5 2.8 4.4 2.2 1.6-.6 3.3-.9 5.1-.9 8.5-.2 15.6 6.5 15.8 15 0 .4 0 .8-.1 1.2h-104c0-.4-.1-.8-.1-1.2.2-8.5 7.3-15.3 15.8-15 3 0 6 .8 8.6 2.5 1.6 1 3.8.5 4.8-1.1.2-.3.3-.7.4-1 3.9-13.7 18.2-21.7 31.9-17.9 8.2 2.4 14.6 8.4 17.4 16.2h0zm-111.6-9c3 0 6 .8 8.6 2.5 1.6 1 3.8.5 4.8-1.1.2-.3.3-.7.4-1 2.9-11.3 13.2-19.1 24.8-18.8 10.1-.1 19.3 5.8 23.5 15-2.2 2.6-3.9 5.5-5.2 8.6-2.7-1-5.5-1.5-8.3-1.5-8.8-.1-16.8 4.9-20.7 12.7h-43.7c0-.4-.1-.8-.1-1.2.3-8.7 7.4-15.4 15.9-15.2zm60.5 134.2c-1.9 0-3.5 1.6-3.5 3.5 0 13.4 10.9 24.3 24.3 24.3 1.9 0 3.5-1.6 3.5-3.5 0-13.4-10.8-24.3-24.3-24.3zm4 7.4c6.4 1.5 11.5 6.5 13 13-6.5-1.5-11.5-6.5-13-13zm31.8-79.3c-1.4 1.4-1.4 3.6 0 4.9 0 0 1.3 1.4.8 2.7-.3.8-2 3.2-10.2 5.3 2-10.7 1.8-21.7-.7-32.3-.5-1.8-2.4-2.8-4.2-2.4l-9 2.2c-20.9 5.2-42.8 5.2-63.7 0l-9-2.2c-1.9-.5-3.7.7-4.2 2.5-.3 1.2.1 2.4.9 3.3 8.5 7.8 13.8 18.4 14.9 29.9-11.1-2.1-12.9-4.8-13.2-5.7-.4-1.2 1.2-2.9 1.6-3.3 1.5-1.2 1.7-3.4.4-4.9s-3.4-1.7-4.9-.4c-3.3 2.6-4.8 6.9-3.7 11 1.3 3.5 5 7.7 19.6 10.3-.9 7.5-3.6 14.6-7.9 20.8a47.65 47.65 0 0 0-3 3.6c-5-1.3-5.7-2.8-5.7-2.9-.2-.5.7-1.8 1.7-2.6 1.5-1.2 1.7-3.4.5-4.9s-3.4-1.7-4.9-.5c-.6.5-5.8 4.9-3.9 10.3 1.5 3.3 4.5 5.7 8.1 6.6-4.6 7.2-7.2 15.6-7.4 24.1-1.1-.6-2.1-1.5-2.9-2.4-1.7-2.1-2.5-4.8-2.2-7.5.4-1.9-.9-3.7-2.7-4.1-1.9-.4-3.7.9-4.1 2.7-.7 4.7.6 9.4 3.6 13.1 2.4 2.8 5.4 4.9 8.9 6 3.5 21.1 20.6 35.6 21.4 36.3 1.5 1.2 3.7 1.1 4.9-.4.8-.9 1-2.1.7-3.3-3.6-11.5-4-21.3-1.5-29.2 13.7 3.1 14.2 12.4 14.2 12.8 0 1.9 1.6 3.5 3.5 3.5s3.5-1.6 3.5-3.5c0-.2-.3-14.5-18.2-19.2 3.9-5.9 9.9-10.2 16.8-12.1.2 0 .3-.1.5-.1 7.5-2.7 14.6-6.3 21.2-10.6 9.1 2.5 10.6 5.7 10.8 6.3.6 1.8 2.6 2.8 4.4 2.2s2.8-2.6 2.2-4.4c-1-3.1-3.9-6.5-10.7-9.1 4.9-4 9.1-8.6 12.7-13.8 13.2-2.1 17.3-5.2 18.1-6.1a3.42 3.42 0 0 0 .1-4.7c-1.3-1.4-3.4-1.5-4.8-.3-2.6 1.6-5.6 2.6-8.6 3.1 1.6-3.3 3-6.7 4.1-10.3 13.3-2.7 17.1-6.8 18.5-10.2 1.3-3.6.4-7.6-2.3-10.2-1.5-1.2-3.7-1.2-5 .1zm-87.2-12.3c21.6 5.1 44 5 65.5-.4l5.6-1.4c1.8 9.4 1.7 19.1-.5 28.5-11 1.5-22 2.2-33.1 2-9.3.1-18.6-.3-27.9-1.3-.3-9.9-3.7-19.5-9.6-27.4zm-2 117.5c-4.6-5.9-8-12.7-9.9-19.9 2.6.3 5.2.5 7.8.5 1.1 0 2.1.1 3.1.1-1.6 6.3-2 12.9-1 19.3zm26.1-43.6c-8.9 2.3-16.7 7.9-21.5 15.8-.3.6-.6 1.1-.9 1.7-1.8-.2-3.7-.3-5.8-.3-3 0-5.9-.2-8.9-.8-.3-8.9 2.3-17.7 7.6-24.9 7.3 1.1 14.7 1.5 22.1 1.4 6.9-.1 13.7.3 20.6 1.1-4.3 2.4-8.7 4.4-13.2 6h0zm39.1-29.3c-8.5 1-17.1 1.5-25.6 1.4h-19c-1.9 0-3.5 1.6-3.5 3.5s1.6 3.5 3.5 3.5h19c7.9 0 14.4-.3 19.9-.8-3.4 3.8-7.2 7.3-11.4 10.3-9.7-1.9-19.5-2.7-29.4-2.5-5.7 0-11.4-.2-17.1-.8l.5-.5c5.3-7.1 8.5-15.5 9.4-24.3 9.3 1 18.7 1.4 28.1 1.3 10.3.1 20.6-.4 30.8-1.6-1.4 3.6-3.1 7.2-5.2 10.5h0z"/><g stroke="#fff" stroke-miterlimit="10"><path d="M246.5 311.7c18.3 0 33.1-14.8 33.2-33.1 0-18.3-14.8-33.1-33.1-33.2s-33.1 14.8-33.2 33.1v.1a33.08 33.08 0 0 0 33.1 33.1zm0-60.6c15.2 0 27.6 12.3 27.6 27.5s-12.3 27.6-27.5 27.6-27.6-12.3-27.6-27.5v-.1c0-15.2 12.3-27.5 27.5-27.5zm0-26.3a2.69 2.69 0 0 0 2.7-2.7v-21.6c.4-1.5-.4-3-1.9-3.5-1.5-.4-3 .4-3.5 1.9-.1.5-.1 1 0 1.5V222c.1 1.5 1.2 2.8 2.7 2.8zm-30.7 6.5c.5.9 1.4 1.4 2.4 1.4.5 0 .9-.1 1.3-.4 1.3-.7 1.8-2.4 1-3.7l-10.8-18.8c-.8-1.3-2.4-1.8-3.8-1-1.3.8-1.8 2.4-1 3.8l10.9 18.7zM177.2 242l18.9 10.8c.4.2.9.4 1.3.4 1 0 2-.5 2.5-1.5.8-1.3.3-3-1-3.8l-18.8-10.8c-1.3-.8-3-.3-3.8 1-.7 1.4-.3 3.1.9 3.9zm-9.1 39.4H190c1.5-.4 2.3-2 1.9-3.5-.3-.9-1-1.7-1.9-1.9h-21.8c-1.5.4-2.3 2-1.9 3.5.2.9.9 1.6 1.8 1.9zm28 23.1l-18.9 10.8c-1.5.4-2.4 1.9-2 3.4s1.9 2.4 3.4 2c.5 0 1-.1 1.4-.4l18.8-10.8c1.3-.8 1.8-2.4 1-3.8-.8-1.3-2.4-1.8-3.8-1h0v-.2zm9.8 44.4c.4.2.9.4 1.3.4 1 0 1.9-.5 2.4-1.4l10.8-18.8c.8-1.3.3-3-1-3.8s-3-.3-3.8 1L204.9 345c-.7 1.4-.3 3.1 1 3.9zm37.8-13.7v21.5c-.4 1.5.4 3 1.9 3.5 1.5.4 3-.4 3.5-1.9.1-.5.1-1 0-1.5v-21.5c.4-1.5-.4-3-1.9-3.5-1.5-.4-3 .4-3.5 1.9-.2.4-.2 1 0 1.5zm33.5-9c-.8-1.3-2.5-1.8-3.8-1s-1.8 2.5-1 3.8l10.8 18.8c.5.9 1.4 1.4 2.4 1.4.5 0 1-.1 1.4-.4 1.3-.8 1.8-2.5 1-3.8l-10.8-18.8zm16.9-16.9l18.8 10.8c.4.3.9.4 1.4.4 1 0 1.9-.5 2.4-1.4.8-1.3.3-3-1-3.8l-18.8-10.8c-1.3-.8-3-.3-3.8 1s-.3 3 1 3.8zm6.2-30.7c0 1.5 1.2 2.8 2.7 2.8h21.6c1.5-.4 2.3-2 1.9-3.5-.3-.9-1-1.7-1.9-1.9H303c-1.4 0-2.6 1.1-2.7 2.6zm-4.9-25.5c.5 0 1-.1 1.5-.3l18.8-10.8c1.3-.8 1.8-2.5 1-3.8-.7-1.3-2.4-1.8-3.7-1L294.2 248c-1.3.7-1.8 2.4-1 3.7.4.8 1.3 1.4 2.2 1.4zm-22-21.1c.4.3.9.4 1.4.4 1 0 1.9-.5 2.4-1.4l10.8-18.8c.8-1.3.3-3-1-3.8s-3-.3-3.8 1l-10.8 18.8c-.8 1.4-.3 3 1 3.8z" stroke-width="3.366"/><path d="M520 453.6H412.3v-65.8l27.6-27.6c.9-.9.9-2.5 0-3.4s-2.4-1-3.3-.1L412.3 381v-34.4c-.7-18.4 13.7-33.9 32-34.5 18.4-.7 33.9 13.7 34.5 32v16.6c0 .6.3 1.2.7 1.7-9 7.3-14.8 17.8-16.2 29.3-1.3 13.1 4.1 26.5 16.1 39.8.9 1 2.5 1.1 3.5.2l.2-.2c12-13.3 17.4-26.7 16.1-39.8-1.4-11.5-7.2-22-16.2-29.3.4-.5.7-1.1.7-1.7v-14.1c.7-21.1-15.7-38.7-36.8-39.5-21.1-.7-38.7 15.7-39.5 36.8V419l-24.2-24.2c-.9-.9-2.5-.9-3.4 0s-1 2.4-.1 3.3l27.7 27.7v27.9H235c-1.3.4-2.1 1.7-1.7 3 .2.8.9 1.4 1.7 1.7h25.1l25.2 18.5-5 28.2-44.6 8.5c-1.3.3-2 1.7-1.7 2.9.3 1 1.1 1.7 2.1 1.8h.4l42.9-7.8-6.6 37.6c-.2 1.1.4 2.2 1.5 2.7l14.4 6-18.4 21.7c-.8 1-.7 2.5.3 3.4.4.4 1 .6 1.6.6.7 0 1.4-.3 1.8-.9l19.3-22.9 15.3 6.4h.6l51.3 7.8h.8l17.6-2.9 2.5 16c.2 1.2 1.2 2.1 2.4 2.1h.4c1.3-.2 2.2-1.5 2-2.8l-2.8-17.1 4-5.8 40.5 8.5 18.8 15.8c.4.4 1 .6 1.6.6.7 0 1.4-.3 1.9-.9.8-1 .7-2.5-.3-3.4l-17.2-14.8 14.4-14.1c.5-.5.7-1.1.8-1.8v-26.9l12.5-2.4 24.2 32.9-17.7 22.8c-.8 1.1-.6 2.6.4 3.4.4.3 1 .5 1.5.5.7 0 1.4-.4 1.9-.9l18.4-23.5 14.1-3.4c1.3-.3 2.1-1.6 1.8-2.9s-1.6-2.1-2.9-1.8l-13.5 3.2-25.2-34.4c-.5-.8-1.5-1.1-2.4-.9l-15.3 3.1-12.8-6.1 13.6-18.5 39.9-12.6 14.1 28.9c.6 1.2 2 1.7 3.2 1.1s1.7-2 1.2-3.2v-.1l-14.6-29.9 6-22.3h24c1.3-.4 2.1-1.7 1.7-3-.2-.8-.9-1.4-1.7-1.7v-.1zm-38.7-86.3c7.2 6.4 11.9 15.3 13.1 24.8 1.1 11.1-3.3 22.5-13.1 34-9.6-11.5-14.3-22.8-13.1-34 1.1-9.5 5.8-18.4 13.1-24.8zm-117.9 91.1h61.2l-17.9 22.9-22.4 3.7-20.9-6.9v-19.7zm17.8 30.7l-2.5 9.4c-.2.8-.1 1.6.5 2.2l13.6 16.1v16.3l-49.3-5.8-21.2-12.8v-18.8l39-13 19.9 6.4zm-22.5-30.7v19.7l-20.8 7-15.2-11.8 7-14.9h29zm-90.2 0h55.7l-6.2 13.3-29.2 1.7-20.3-15zm21.7 19.8l28.7-1.7 13.5 10.4-13.5 4.7c-1 .3-1.6 1.3-1.6 2.3l.2 20.9-11.5 7.7-22.3-8.2 6.5-36.1zm20.2 82.4l-32.3-13.5 4.7-28 22.6 8.3c.7.3 1.6.2 2.2-.3l12.1-8.4 19.4 11.7-9.4 14.1c-.3.5-.5 1.1-.4 1.7l2.8 17.7-21.7-3.3zm69.3 4.7l-18.8 3.1-23.5-3.5-2.9-18.3 9.4-14.1 48.9 5.7v8.3l-13.1 18.8zm63.2-40.4v26.4l-14.6 14.4-37.6-7.9 6.5-9.4c.3-.4.4-.9.4-1.4v-9.4l20.5-4.7c.6-.1 1.1-.4 1.4-.8l10.4-13.5 13 6.3zm-15.7-10.5h0l-11 14.1-18.8 4v-16.7c0-.6-.2-1.2-.6-1.6l-13.3-15.8 2.4-8.8 21.3-3.5 25.6 20.5-5.6 7.8zm17-22.4c-.5.2-.9.5-1.3.9l-7.1 9.8-24.4-19.3 19.2-24.8h6.6l24.3 28.2-17.3 5.2zm41.6-13l-18.8 6-23-26.5h47.1l-5.3 20.5z" stroke-width="2.941"/></g><path d="M683.2 469.4c7.6 0 15.1-2 21.8-5.7l4.7-2.6a35.82 35.82 0 0 1 35.3 0c13 7.2 28.6 7.5 41.9.9l3.2-1.6c11.4-5.7 25-5 35.7 1.8 10.4 6.4 22.9 8.4 34.7 5.5l20.9-9c2.4-.6.6-.6 0-2.9s0-2.9-2.9-2.9l-20 6.3c-3.7.9-7.6 1.2-11.5.9v-39.4h17.1c1.9.1 3.6-1.1 4.3-2.9.6-1.7 0-3.7-1.4-4.8l-98.3-77a4.35 4.35 0 0 0-5.3 0l-98.3 77c-1.4 1.1-2 3.1-1.4 4.8s2.1 2.8 3.8 2.9h17.1v40.1c-3.3.1-6.6-.2-9.8-1l-16.9-6.9c-2.1-1.2-7.7.9-8.8 2.9-1.2 2.1 1.2 1.7 3.2 2.9l.6.3 18.6 8.8.8.3c3.5.8 7.2 1.3 10.9 1.3zm82.6-124.5l85.9 67.2H679.9l85.9-67.2zm72.7 75.8v37.9c-3-.9-5.9-2.2-8.5-3.8-13.3-8.3-29.9-9-43.9-2.1l-3.2 1.6c-10.7 5.4-23.4 5.1-33.9-.7-13.6-7.6-30.1-7.6-43.6 0l-4.7 2.6c-2.4 1.3-4.9 2.3-7.5 3v-38.5h145.3zm40.2 98.7l-24.1-10.9c-15.5-7.1-33.7-5.1-47.4 5.1-8.1 6.1-18.3 8.7-28.3 7.3l-42.5-6.1c-2.4-.3-4.5 1.3-4.9 3.7-.3 2.4 1.3 4.5 3.7 4.9l42.5 6.1c2.2.3 4.4.5 6.7.5 10.1 0 19.9-3.3 28-9.4 11.1-8.3 25.8-9.9 38.5-4.3l24.2 10.9c2.1 1.1 4.7.3 5.8-1.8s.3-4.7-1.8-5.8c-.2-.1-.3-.2-.5-.2h.1zm-129.1-25L771 489c2.3-.5 3.8-2.8 3.3-5.2-.5-2.3-2.8-3.8-5.2-3.3h0l-21.4 5.4c-6.7 1.6-13.8 0-19.2-4.3-8.1-6.5-19-8.4-28.8-5.1l-24.9 8.3c-2.2.8-3.4 3.2-2.7 5.4.8 2.2 3.2 3.4 5.4 2.7l24.7-8.1c7.1-2.4 14.9-1 20.7 3.7 5.4 4.4 12.2 6.7 19.2 6.7 2.6 0 5.1-.3 7.5-.8z"/></g><path d="M878.5 455.8h294.1M99 455.8h144.1m267.7 0h144.1" stroke="#fff" stroke-miterlimit="10" fill="none" stroke-width="6.604"/></svg>