<svg xmlns="http://www.w3.org/2000/svg" xmlns:xlink="http://www.w3.org/1999/xlink" viewBox="0 0 1201.4 345.5" xmlns:v="https://vecta.io/nano"><g fill="#37485e"><path d="M585.4 171.8c1.1.9 2.6.8 3.5-.3.9-1 .8-2.5-.2-3.5-2.3-2.1-4.8-7-3.5-10.1.4-.8.9-1.6 1.4-2.4 2-3.1 4.4-6.9.6-15.5-.5-1.3-1.9-2-3.2-1.5s-2 1.9-1.5 3.2c0 .1.1.2.1.2 2.7 6.2 1.5 8.1-.2 10.8-.7 1-1.3 2-1.8 3.1-2.4 5.8 1.4 13 4.8 16zm-19.7-44.6c1 1 2.6.9 3.6-.1s.9-2.6-.1-3.6l-.1-.1c-2.3-2.1-4.8-7-3.5-10.1.4-.8.9-1.6 1.4-2.4 2-3.1 4.4-6.9.6-15.5-.6-1.3-2.1-1.8-3.4-1.2-1.2.6-1.8 2-1.3 3.2 2.7 6.2 1.5 8.1-.2 10.8-.7 1-1.3 2-1.8 3.1-2.4 5.7 1.4 12.8 4.8 15.9zM300.7 97c1 .9 2.6.8 3.6-.2.9-1 .8-2.6-.2-3.6-2.3-2.1-4.8-7-3.5-10.1.4-.8.9-1.6 1.4-2.4 2-3.1 4.4-6.9.6-15.5-.5-1.3-1.9-2-3.2-1.5s-2 1.9-1.5 3.2c0 .1.1.2.1.2 2.7 6.2 1.5 8.1-.2 10.8-.7 1-1.3 2-1.8 3.1-2.5 5.8 1.3 13 4.7 16zm520.8 67.1c1 1 2.6.9 3.6-.1s.9-2.6-.1-3.6l-.1-.1c-2.3-2.1-4.8-7-3.5-10.1.4-.8.9-1.6 1.4-2.4 2-3.1 4.4-6.9.6-15.5-.5-1.3-1.9-2-3.2-1.5s-2 1.9-1.5 3.2c0 .1.1.2.1.2 2.7 6.2 1.5 8.1-.2 10.8-.7 1-1.3 2-1.8 3.1-2.5 5.8 1.3 13 4.7 16zM193.2 68.7c1 1 2.6.9 3.6-.1s.9-2.6-.1-3.6l-.1-.1c-2.3-2.1-4.8-7-3.5-10.1.4-.8.9-1.6 1.4-2.4 2-3.1 4.4-6.9.6-15.5-.5-1.3-1.9-2-3.2-1.5s-2 1.9-1.5 3.2c0 .1.1.2.1.2 2.7 6.2 1.5 8.1-.2 10.8-.7 1-1.3 2-1.8 3.1-2.5 5.8 1.3 12.9 4.7 16z"/><use xlink:href="#B"/><use xlink:href="#B" x="146.8" y="24.5"/><path d="M1030.9 176.4c-1-1-2.5-1.1-3.6-.1-1 1-1.1 2.5-.1 3.6l.1.1c2.2 2.2 4.4 7.3 2.9 10.3-.4.8-.9 1.6-1.5 2.3-2.1 2.9-4.8 6.6-1.5 15.5.4 1.3 1.8 2.1 3.2 1.6 1.3-.4 2.1-1.8 1.6-3.2 0-.1-.1-.2-.1-.2-2.4-6.3-1-8.2.8-10.7.7-1 1.4-2 1.9-3 2.9-5.7-.5-13-3.7-16.2zm-785.2-40.6h-49.2c-1.7 0-3.3 1.2-3.3 2.8l-4.8 89.1c0 .9.2 1.6 1 2.3.6.5 1.5.9 2.5.9h58.8c1 0 1.7-.4 2.3-.9s1-1.4 1-2.3l-4.8-89.1c-.2-1.5-1.5-2.8-3.5-2.8zm-51.4 89.9l4.6-84.5h44.5l4.6 84.5h-53.7zm4.8-106.3c5 3.9 9.3 3.9 12.5 3.4 2.9 2.3 6.7 3.7 10.6 3.7 5.2 0 10-2.3 13.1-6.2 8.1-1.1 14.1-7.3 14.1-14.9 0-8.3-7.5-15.2-16.6-15.1-2.7-4.1-7.5-6.4-12.9-6.4-6.7 0-12.7 3.9-15.2 9.6-3.3.7-6.2 2.5-8.3 4.8-2.7 2.8-3.9 6.6-3.7 10.3.6 4 2.9 8.1 6.4 10.8zm1.7-17.8c1.5-1.8 3.9-2.8 6.4-3.2 1.3-.2 2.3-1.1 2.7-2.1 1.3-4.1 5.4-7.1 10-7.1 3.9 0 7.3 1.9 9.3 5.1.6.9 1.7 1.4 2.9 1.4h1.4c5.8 0 10.6 4.4 10.6 9.7 0 5.1-4.4 9.4-10 9.6-1.2 0-2.1.5-2.7 1.4-1.9 3-5.2 4.6-9.1 4.6-2.9 0-5.6-1.1-7.5-3-.6-.5-1.5-.9-2.3-.9-.4 0-.6 0-1 .2-2.7.7-5.4.5-8.9-1.9-2.3-1.8-3.9-4.4-4-7.1-.1-2.6.7-4.9 2.2-6.7zm104.9 70.6c0-1.6-1.5-2.8-3.3-2.8h-30.7c-1.7 0-3.3 1.2-3.3 2.8l-3.1 55.6c0 .9.4 1.6 1 2.3.6.5 1.5.9 2.3.9h36.6c1 0 1.7-.4 2.5-.9.6-.5 1-1.4 1-2.3l-3-55.6zm-34.3 53.5l2.7-51h26l2.7 51h-31.4zm.8-65.2c3.5 2.7 6.4 3 8.7 2.7 1.9 1.4 4.4 2.3 6.9 2.3 3.5 0 6.7-1.4 8.9-4.1 5.4-.9 9.4-5.1 9.4-10.3 0-5.7-4.8-10.3-11-10.5-2.1-2.5-5.4-3.9-8.9-3.9-4.4 0-8.5 2.5-10.2 6.2-3.9 1.1-6.9 4.3-7.7 8-.8 3.4.8 7.1 3.9 9.6zm1.7-8.7c.4-2.1 2.3-3.7 4.4-4.1 1.2-.2 2.3-1.1 2.5-2.1.8-2.1 2.9-3.7 5.2-3.7 1.9 0 3.9 1.1 4.8 2.7.6.9 1.7 1.4 2.9 1.4h.6c3.1 0 5.6 2.3 5.6 5.1 0 2.7-2.3 5-5.2 5.1-1 0-1.9.5-2.5 1.4-1 1.6-2.7 2.5-4.6 2.5-1.5 0-2.9-.5-3.9-1.6-.6-.5-1.5-.9-2.3-.9-.2 0-.6 0-.8.2-1.3.4-2.5.5-4.8-1.2-1.3-1.5-2.1-3.2-1.9-4.8zm16-17.8c2.1 1.6 3.9 1.9 5.3 1.6 1.2.9 2.7 1.4 4.2 1.4 2.1 0 4.1-.9 5.4-2.5 3.3-.5 5.8-3.2 5.8-6.3 0-3.5-2.9-6.3-6.7-6.5-1.3-1.5-3.3-2.4-5.4-2.4-2.7 0-5.2 1.5-6.2 3.8-2.3.7-4.2 2.6-4.7 4.9-.6 2.2.4 4.5 2.3 6zm1.4-5.3c.2-1.2 1.4-2.2 2.6-2.4.7-.1 1.4-.6 1.5-1.2.5-1.2 1.7-2.2 3.1-2.2 1.1 0 2.3.6 2.9 1.5.3.5 1 .8 1.7.8h.3c1.8 0 3.3 1.3 3.3 3 0 1.5-1.4 2.9-3.1 3-.6 0-1.1.3-1.5.8-.6.9-1.6 1.4-2.7 1.4-.9 0-1.7-.3-2.3-.9-.3-.3-.9-.5-1.4-.5-.1 0-.3 0-.5.1-.8.2-1.5.3-2.9-.7-.7-.8-1.1-1.8-1-2.7zm-53.8-44.1c3.5 2.7 6.4 3 8.7 2.7 1.9 1.4 4.4 2.3 6.9 2.3 3.5 0 6.7-1.4 8.9-4.1 5.4-.9 9.4-5.1 9.4-10.3 0-5.7-4.8-10.3-11-10.5-2.1-2.5-5.4-3.9-8.9-3.9-4.4 0-8.5 2.5-10.2 6.2-3.9 1.1-6.9 4.3-7.7 8-.8 3.4.8 7.2 3.9 9.6zm1.7-8.6c.4-2.1 2.3-3.7 4.4-4.1 1.2-.2 2.3-1.1 2.5-2.1.8-2.1 2.9-3.7 5.2-3.7 1.9 0 3.9 1.1 4.8 2.7.6.9 1.7 1.4 2.9 1.4h.6c3.1 0 5.6 2.3 5.6 5.1 0 2.7-2.3 5-5.2 5.1-1 0-1.9.5-2.5 1.4-1 1.6-2.7 2.5-4.6 2.5-1.5 0-2.9-.5-3.9-1.6-.6-.5-1.5-.9-2.3-.9-.2 0-.6 0-.8.2-1.3.4-2.5.5-4.8-1.2-1.3-1.5-2.1-3.3-1.9-4.8z"/><g stroke="#37485e" stroke-miterlimit="10"><path d="M699.4 194.3h-97.3v-61.6h97.3v61.6zm-93.8-3.5h90.3v-54.6h-90.3v54.6zm144.4 23h-15.4v-3.5h11.9v-9.8h-20.6V197H750zm-110.6-3.5h66.2v3.5h-66.2zm-8.7-13.3h83.5v3.5h-83.5z"/><path d="M610.4 213.8h-8.3V197h17v3.5h-13.5v9.8h4.8zM750 200.5h-48.3v-57h29l19.3 36v21zm-44.8-3.5h41.3v-16.7l-17.9-33.4h-23.5l.1 50.1z"/><path d="M742.1 177.8h-30v-24h17.6l12.4 24zm-26.5-3.5h20.9l-8.8-17.1h-12l-.1 17.1zm-90.7 54c-9 0-16.2-7.3-16.2-16.3s7.3-16.2 16.3-16.2c8.9 0 16.2 7.3 16.2 16.2 0 9-7.2 16.3-16.3 16.3h0zm0-29c-7.1 0-12.7 5.8-12.7 12.8 0 7.1 5.8 12.7 12.8 12.7s12.7-5.7 12.7-12.8c.1-7-5.7-12.7-12.8-12.7h0zm95.2 29a16.2 16.2 0 0 1-16.2-16.2c0-8.9 7.3-16.2 16.2-16.2a16.2 16.2 0 0 1 16.2 16.2h0c0 8.9-7.3 16.2-16.2 16.2zm0-29a12.8 12.8 0 1 0 0 25.6 12.76 12.76 0 0 0 12.8-12.8c-.1-7.1-5.8-12.8-12.8-12.8z"/></g><path d="M938.9 217.1l2.7 4c7.8-4.7 12.4-13.1 12.4-22.1v-18h-7.3v-38h-7.3v-30.9h-92.9V143h-7.3v38h-7.3v18c0 8.8 4.6 17.1 12.4 22.1l2.7-4c-6.3-4-10.2-10.7-10.2-18v-1.4h5.4c16.1 0 31.5-5 44.4-14l3.9-2.6v47.5h4.9V181l3.7 2.6c12.9 9.3 28.5 14 44.4 14h5.6v1.4c-.2 7.4-4.1 14-10.2 18.1zm-87.6-100.2h82.9V143h-82.9v-26.1zm90.3 30.8V181c-14.4-.2-28.3-5-39.8-13.1l-9-6.4-9 6.4c-11.5 8.1-25.4 12.6-39.8 13.1v-33.2h97.6zm-57.9 32.1c-12.2 8.5-26.6 13.3-41.7 13.1h-5.4v-7.1h5.4c16.1 0 31.5-5 44.4-14l3.9-2.6v5.9l-6.6 4.7zm59.8 13c-14.9 0-29.5-4.5-41.7-13.1l-6.6-4.7v-5.9l3.7 2.6c12.9 9.3 28.5 14 44.4 14h5.6v7.1h-5.4zm13.2 39c-2 2.4-2.9 3.8-5.4 3.8-2.4 0-3.4-1.4-5.4-3.8-2-2.6-4.4-5.7-9.3-5.7s-7.3 3.1-9.3 5.7c-2 2.4-2.9 3.8-5.4 3.8-2.4 0-3.4-1.4-5.4-3.8-2-2.6-4.4-5.7-9.3-5.7s-7.3 3.1-9.3 5.7c-2 2.4-2.9 3.8-5.4 3.8-2.4 0-3.4-1.4-5.4-3.8-2-2.6-4.4-5.7-9.3-5.7s-7.3 3.1-9.3 5.7c-2 2.4-2.9 3.8-5.4 3.8-2.4 0-3.4-1.4-5.4-3.8-2-2.6-4.4-5.7-9.3-5.7s-7.3 3.1-9.3 5.7c-2 2.4-3.2 3.8-5.4 3.8-2.4 0-3.4-1.4-5.4-3.8-2-2.6-4.4-5.7-9.3-5.7v4.7c2.4 0 3.4 1.4 5.4 3.8 2 2.6 4.4 5.7 9.3 5.7s7.3-3.1 9.3-5.7c2-2.4 2.9-3.8 5.4-3.8 2.4 0 3.4 1.4 5.4 3.8 2 2.6 4.4 5.7 9.3 5.7s7.3-3.1 9.3-5.7c2-2.4 2.9-3.8 5.4-3.8 2.4 0 3.4 1.4 5.4 3.8 2 2.6 4.4 5.7 9.3 5.7s7.3-3.1 9.3-5.7c2-2.4 2.9-3.8 5.4-3.8 2.4 0 3.4 1.4 5.4 3.8 2 2.6 4.4 5.7 9.3 5.7s7.3-3.1 9.3-5.7c2-2.4 2.9-3.8 5.4-3.8 2.4 0 3.4 1.4 5.4 3.8 2 2.6 4.4 5.7 9.3 5.7s7.3-3.1 9.3-5.7c2-2.4 2.9-3.8 5.4-3.8v-4.7c-4.9 0-7.4 3.1-9.3 5.7zm229-74.1c.6-2.6.7-5.3.4-8-.4-4.2-2.9-7.9-6.6-9.8-4.3-2.2-9.9-1.6-15.7 1.5-.1 0-.1.1-.2.1-5 2.9-9.3 6.8-12.6 11.5l-15.2 21.2-60.4-13.3c-10.7-2.6-20.8 1.4-25.1 9.9-1.9 3.7-.5 8.3 3.2 10.3l55.6 30.2-4.6 6.4c-4.6 6.4-8.9 13-12.9 19.7h-25.7c-1.5 0-2.8 1.1-3 2.6l-1.9 12.1c-.2 1.5.7 3 2.2 3.4l16.1 4.7c-3.3 6.5-6.3 13-9.2 19.4-1.4 3.3 0 7.1 3.3 8.5 2.3 1 4.9.6 6.8-1 5.3-4.6 10.7-9.4 15.9-14.4l9.2 14.1c.8 1.3 2.5 1.8 3.9 1.1l11-5.3c1.4-.7 2.1-2.2 1.6-3.7l-7.4-24.6c5.2-5.6 10.2-11.6 14.9-17.7l5-6.5 44.9 44.6a7.7 7.7 0 0 0 10.8.1c7-6.6 7.9-17.4 2.3-26.8l-30.1-54.1 15.9-20.6c3.7-4.5 6.3-9.9 7.6-15.6zm-129.3 18.2c-.8-.4-1.1-1.4-.7-2.1 3.7-7.3 12.1-8.2 18.2-6.7l57.9 12.7-19.2 26.7-56.2-30.6zm130.6 75.3c3.2 5.4 4.7 13.7-1.2 19.3a1.57 1.57 0 0 1-2.2 0l-45.5-45.1 20.1-26 28.8 51.8zm-62.6-18.2c-4.9 6.4-10.2 12.6-15.6 18.4-.7.7-1.1 1.7-1 2.7 0 .2.1.3.1.5l7.1 23.8-6.2 3-9.7-14.9c-.9-1.4-2.8-1.8-4.3-.9-.2.1-.3.2-.5.4-6 5.8-12.2 11.4-18.4 16.7-.1.1-.3.1-.4-.1-.1-.1-.1-.2 0-.3 3.3-7.4 6.9-15 10.7-22.4.8-1.5.2-3.4-1.3-4.2-.2-.1-.4-.2-.5-.2l-17.1-5 1.1-6.8h24.8a3.12 3.12 0 0 0 3-2.2c4-6.8 8.4-13.6 13.1-20.1l46.6-64.8c2.8-4 6.5-7.4 10.7-9.8.1 0 .1-.1.2-.1 3.8-2 7.4-2.5 9.8-1.3 1.9 1.1 3.1 3 3.2 5.2.2 1.9.1 3.9-.3 5.8-1.1 4.8-3.3 9.3-6.3 13.1l-48.8 63.5zM114.9 187.6l-2.6 2.8-6.9 7.5-22.8 24.8-13.7 15-13.8 15-35.5 38.8 5 2.9 1.9-7.8 4.6-18.5 12.6-51.4c.5-1.9-.9-3.8-2.9-3.8h-31l2.9 3.8 1.6-8.8 3.8-21.4 4.6-25.7 3.9-22.3 1.3-7.3.6-3.5v-.2l-2.9 2.2h63.3l-2.9-3.8L66.8 189c-.6 1.9 1 3.8 2.9 3.8h47c1.6 0 3.1-1.4 3-3s-1.3-3-3-3h-47l2.9 3.8 16.8-55.3 2.4-7.8c.6-1.9-1-3.8-2.9-3.8H25.6c-1.2 0-2.7.9-2.9 2.2l-1.6 8.8-8.4 47.1-5.8 33.1v.2c-.3 1.9.8 3.8 2.9 3.8h31l-2.9-3.8-1.9 7.8-4.6 18.5-12.6 51.3v.1c-.7 2.8 2.9 5.2 5 2.9l2.6-2.8 29.7-32.3 13.7-15 13.8-15 23.8-26 7.8-8.5 3.7-4.1.2-.2c1.1-1.2 1.2-3.1 0-4.3-1.1-1-3.1-1.1-4.2.1zm344-14.1c-6 0-11.2-2.3-15.7-6.7-8.9-8.8-12.9-25.2-12.9-36.7 0-1.3 1.1-2.4 2.4-2.4s2.4 1.1 2.4 2.4c0 10.8 4 25.7 11.5 33.2 3.5 3.5 7.7 5.3 12.3 5.3h.1c17.9-.2 23.9-26.5 23.9-38.5 0-1.3 1.1-2.4 2.4-2.4s2.4 1.1 2.4 2.4c.1 14.1-7 43.2-28.8 43.4h0z"/><path d="M406.4 228.4c-1.3 0-2.4-1.1-2.4-2.4 0-15.5 4-29.6 11.1-38.7 3.9-5.2 9.8-6 14.9-6.7 4.3-.6 8.3-1.1 11.2-3.9 2.1-2 1.8-6.3 1.6-11.3-.1-1.3.9-2.5 2.3-2.6s2.5.9 2.6 2.3c.3 5.9.7 11.4-3 15-4 3.9-9.3 4.6-13.9 5.2-4.8.7-9 1.2-11.7 4.8-6.4 8.3-10.1 21.4-10.1 35.8-.2 1.4-1.3 2.5-2.6 2.5zm105.3 0c-1.3 0-2.4-1.1-2.4-2.4 0-14.4-3.7-27.4-10.1-35.8-2.7-3.6-6.9-4.2-11.7-4.8-4.6-.6-9.8-1.3-13.8-5.2-3.6-3.5-3.5-8.7-3-15.2.1-1.3 1.3-2.4 2.6-2.2 1.3.1 2.3 1.3 2.2 2.6-.4 5.2-.5 9.4 1.6 11.4 2.8 2.8 6.9 3.3 11.1 3.9 5.2.7 11 1.5 14.9 6.7 7.1 9.1 11.1 23.3 11.1 38.7 0 1.2-1.1 2.3-2.5 2.3z"/><path d="M511.7 228.4H406.4c-1.3 0-2.4-1.1-2.4-2.4s1.1-2.4 2.4-2.4h105.3c1.3 0 2.4 1.1 2.4 2.4s-1 2.4-2.4 2.4zm-79-95.8c-.9 0-1.8-.5-2.2-1.4-.5-1.2 0-2.7 1.2-3.2 17.4-7.7 37.3-7.7 54.6 0 1.2.5 1.8 2 1.2 3.2-.5 1.2-2 1.8-3.2 1.2-16.1-7.1-34.5-7.1-50.7 0a2.39 2.39 0 0 1-.9.2z"/><path d="M434.1 228.4h-.2c-1.3-.1-2.3-1.3-2.2-2.6 1-12.1 4.1-22.8 9.3-31.8.6-1.1 1.9-1.5 3.1-1a37.53 37.53 0 0 0 30.1 0c1.2-.5 2.7 0 3.2 1.3.5 1.2 0 2.7-1.3 3.2a42.44 42.44 0 0 1-31.9.8c-4.2 8-6.8 17.4-7.6 28-.2 1.1-1.3 2.1-2.5 2.1z"/><path d="M484 228.4a2.48 2.48 0 0 1-2.4-2.2c-1-11.4-3.9-21.4-8.7-29.8-.7-1.2-.3-2.6.9-3.3s2.6-.3 3.3.9c5.1 9 8.3 19.7 9.3 31.8.1 1.3-.9 2.5-2.2 2.6h-.2zm-40.9-30.9c-1 0-2-.7-2.3-1.7-2.4-7.4-3.6-11.9-4.1-14.4-.2-1.3.6-2.6 1.9-2.8 1.3-.3 2.6.6 2.8 1.9.4 2.3 1.7 6.6 4 13.9.4 1.3-.3 2.6-1.6 3-.2.1-.5.1-.7.1z"/><path d="M475.1 197.5c-.2 0-.5 0-.7-.1-1.3-.4-2-1.8-1.6-3 2.6-8.1 3.5-12 3.9-13.9.2-1.3 1.5-2.2 2.8-1.9 1.3.2 2.2 1.5 1.9 2.8-.5 2.8-1.9 7.8-4 14.4-.4 1.1-1.3 1.7-2.3 1.7zm7.4-103.4c-.3 0-.7-.1-1-.2-14.2-6.3-30.6-6.3-44.8 0-1.2.5-2.7 0-3.2-1.2s0-2.7 1.2-3.2c15.5-6.9 33.3-6.8 48.8 0 1.2.5 1.8 2 1.2 3.2-.4.8-1.3 1.4-2.2 1.4z"/><path d="M432.7 132.6c-1.3 0-2.4-1.1-2.4-2.4-.1-15 .9-28.2 3-39 .3-1.3 1.5-2.2 2.8-1.9s2.2 1.5 1.9 2.8c-2 10.5-3 23.3-2.9 38 0 1.4-1 2.4-2.4 2.5zm52.6 0c-1.4 0-2.4-1.1-2.4-2.5.2-14.6-.8-27.4-2.8-38-.3-1.3.6-2.6 1.9-2.8s2.6.6 2.8 1.9c2.1 10.9 3.1 24.1 2.9 39 0 1.3-1 2.4-2.4 2.4zM459 103.2a2.34 2.34 0 0 1-1.7-.7c-3.7-3.6-6.2-8.5-7.7-14.9-.3-1.3.5-2.6 1.8-2.9s2.6.5 2.9 1.8c1.2 5.5 3.3 9.6 6.3 12.5 1 .9 1 2.5 0 3.4-.3.6-1 .8-1.6.8z"/><path d="M459 103.2c-.6 0-1.3-.2-1.7-.7-.9-1-.9-2.5 0-3.4 3.1-3 5.2-7.1 6.4-12.5.3-1.3 1.6-2.1 2.9-1.8s2.1 1.6 1.8 2.9c-1.4 6.3-4 11.3-7.7 14.9-.5.4-1.1.6-1.7.6zm45.3 77.5a3.08 3.08 0 0 1-1.3-.3L480.9 167c-.6-.4-1-1-1.1-1.7s.1-1.4.5-2c4.9-5.9 9.5-12.3 13.5-19 4.2-6.9 7.6-13.9 10.3-20.8.3-.7.8-1.2 1.5-1.4s1.4-.2 2 .2l22.3 13.3c1 .6 1.5 1.9 1 3-3 7.6-6.6 14.8-10.7 21.6s-8.8 13.4-14 19.6c-.5.7-1.2.9-1.9.9zm-18.5-16.4l18 10.9c4.6-5.6 8.7-11.4 12.3-17.4 3.6-5.9 6.8-12.3 9.6-19L507.6 128c-2.6 6.3-5.9 12.6-9.6 18.9-3.7 6.1-7.8 11.9-12.2 17.4z"/><path d="M510.5 156.8a3.08 3.08 0 0 1-1.3-.3c-1.1-.7-1.5-2.2-.8-3.3 3.9-6.5 7.4-13.5 10.3-20.9.5-1.2 1.9-1.9 3.2-1.4 1.2.5 1.9 1.9 1.4 3.2-3 7.6-6.6 14.8-10.7 21.6a2.61 2.61 0 0 1-2.1 1.1zm-25.9 19.8c-.4 0-.9-.1-1.3-.4-1.1-.7-1.5-2.2-.8-3.3 1.8-2.9 3.9-4.8 6.4-5.7 1.3-.5 2.7.2 3.1 1.4.5 1.3-.2 2.7-1.4 3.1-1.5.5-2.8 1.8-4 3.7-.4.8-1.2 1.2-2 1.2zm-5.4-4.3c-.4 0-.9-.1-1.2-.3-1.1-.7-1.5-2.2-.8-3.3l3-4.9c.7-1.2 2.2-1.5 3.3-.8 1.2.7 1.5 2.2.8 3.3l-3 4.9a2.61 2.61 0 0 1-2.1 1.1zm-54.2 6.6c-.6 0-1.2-.2-1.7-.6-2.8-2.6-5.1-5.7-7.6-9.1-4.1-5.4-8.3-11-14.3-14-8.3-4-10.3-9.8-10.5-13.9-.4-7.2 4.4-14.1 9.3-17 8.3-5.1 20.9-1.2 28.2 8.5.8 1.1.6 2.6-.5 3.4s-2.6.6-3.4-.5c-5.8-7.8-15.6-11.1-21.8-7.3-3.6 2.2-7.2 7.6-7 12.7.2 4.1 2.8 7.4 7.7 9.8 7.1 3.4 11.8 9.8 16.1 15.4 2.4 3.2 4.6 6.1 7.1 8.4a2.39 2.39 0 0 1 .1 3.4c-.4.6-1.1.8-1.7.8zm-10-31.3c-2.2 0-4.7-1.2-6.8-3.4-2-2-3.2-4.6-3.2-6.8 0-1.5.5-2.8 1.5-3.7 2.5-2.3 6.9-1.4 10.3 2.1h0c2 2.1 3.2 4.7 3.1 6.9 0 1.4-.6 2.7-1.5 3.6-.8.9-2.1 1.3-3.4 1.3zm-5.1-10.3h-.2c0 .2.3 1.9 1.9 3.5 1.7 1.7 3.2 2 3.6 1.9.1-.3-.2-1.9-1.8-3.5h0c-1.5-1.4-2.9-1.9-3.5-1.9z"/><path d="M418.3 182.1c-.7 0-1.3-.3-1.8-.8-2-2.2-3.9-4.7-5.8-7.3-4.1-5.4-8.3-11.1-14.3-14-6.7-3.3-8.7-8.3-9.2-11.9-1-7.4 3.3-15 7.8-18.9 1-.9 2.5-.8 3.4.2s.8 2.5-.2 3.4c-3.5 3.1-6.9 9.2-6.2 14.6.5 3.5 2.7 6.3 6.5 8.2 7.1 3.4 11.9 9.8 16.1 15.4 1.9 2.5 3.7 4.9 5.5 6.9.9 1 .9 2.5-.1 3.4a2.11 2.11 0 0 1-1.7.8zm6.7 46.3c-1.3 0-2.4-1.1-2.4-2.4v-9.8c0-1.3 1.1-2.4 2.4-2.4s2.4 1.1 2.4 2.4v9.8c0 1.3-1.1 2.4-2.4 2.4zm68.1 0c-1.3 0-2.4-1.1-2.4-2.4v-9.8c0-1.3 1.1-2.4 2.4-2.4s2.4 1.1 2.4 2.4v9.8c.1 1.3-1 2.4-2.4 2.4z"/></g><path d="M84.1 228.6h736.7m145.2-.1h137.4" stroke="#37485e" stroke-miterlimit="10" fill="none" stroke-width="5"/><defs ><path id="B" d="M957.2 135.7c1 1 2.6.9 3.6-.1s.9-2.6-.1-3.6l-.1-.1c-2.3-2.1-4.8-7-3.5-10.1.4-.8.9-1.6 1.4-2.4 2-3.1 4.4-6.9.6-15.5-.5-1.3-1.9-2-3.2-1.5s-2 1.9-1.5 3.2c0 .1.1.2.1.2 2.7 6.2 1.5 8.1-.2 10.8-.7 1-1.3 2-1.8 3.1-2.5 5.8 1.4 12.9 4.7 16z"/></defs></svg>