<svg xmlns="http://www.w3.org/2000/svg" xmlns:xlink="http://www.w3.org/1999/xlink" viewBox="0 0 6367 1363.6" xmlns:v="https://vecta.io/nano"><style><![CDATA[.M{fill:#fff}.N{font-family:IBMPlexSerif-Light}.O{font-size:72px}.P{stroke:#fff}.Q{font-family:IBMPlexSerif-Medium}.R{font-size:101.744px}.S{stroke-linecap:round}.T{stroke-width:8.304}.U{stroke-linejoin:round}]]></style><text transform="translate(5729.326 546.798)" class="M Q R">Land Use</text><text transform="translate(4747.588 546.798)" class="M Q R">Agriculture</text><text transform="translate(3798.725 546.798)" class="M Q R">Animal feed</text><text transform="translate(2007.678 546.798)" class="M Q R">Transport</text><text transform="translate(1195.097 546.798)" class="M Q R">Retail</text><text transform="translate(147.656 546.798)" class="M Q R">Packaging</text><text transform="translate(2899.409 546.798)" class="M Q R">Processing</text><path d="M3155.2 145.7h-76.8c-2.7 0-5.1 2.1-5.1 4.8l-7.5 151.6c0 1.5.3 2.7 1.5 3.9.9.9 2.4 1.5 3.9 1.5h91.9c1.5 0 2.7-.6 3.6-1.5s1.5-2.4 1.5-3.9l-7.5-151.6c-.3-2.7-2.4-4.8-5.5-4.8zm-80.4 152.7l7.2-143.8h69.6l7.2 143.8h-84zm73.2-28.6h-60c-2.4 0-4.5 2.1-4.5 4.5s2.1 4.5 4.5 4.5h60c2.4 0 4.5-2.1 4.5-4.5s-2.1-4.5-4.5-4.5zm-65.7-152.2c7.8 6.6 14.5 6.6 19.6 5.7 4.5 3.9 10.5 6.3 16.6 6.3 8.1 0 15.7-3.9 20.5-10.5 12.7-1.8 22-12.4 22-25.3 0-14.2-11.8-25.9-25.9-25.6-4.2-6.9-11.8-10.8-20.2-10.8-10.5 0-19.9 6.6-23.8 16.3-5.1 1.2-9.6 4.2-13 8.1-4.2 4.8-6 11.2-5.7 17.5.9 6.9 4.5 13.8 9.9 18.3zm2.7-30.1c2.4-3 6-4.8 9.9-5.4 2.1-.3 3.6-1.8 4.2-3.6 2.1-6.9 8.4-12.1 15.7-12.1 6 0 11.5 3.3 14.5 8.7.9 1.5 2.7 2.4 4.5 2.4h2.1c9 0 16.6 7.5 16.6 16.6 0 8.7-6.9 16-15.7 16.3-1.8 0-3.3.9-4.2 2.4-3 5.1-8.1 7.8-14.2 7.8-4.5 0-8.7-1.8-11.8-5.1a5.54 5.54 0 0 0-3.6-1.5c-.6 0-.9 0-1.5.3-4.2 1.2-8.4.9-13.9-3.3-3.6-3-6-7.5-6.3-12.1.1-4.5 1.3-8.4 3.7-11.4zm164 119.9c0-2.7-2.4-4.8-5.1-4.8H3196c-2.7 0-5.1 2.1-5.1 4.8l-4.8 94.6c0 1.5.6 2.7 1.5 3.9a5.54 5.54 0 0 0 3.6 1.5h57.3c1.5 0 2.7-.6 3.9-1.5.9-.9 1.5-2.4 1.5-3.9l-4.9-94.6zm-53.7 91l4.2-86.8h40.7l4.2 86.8h-49.1zm39.5-18h-29.5c-2.4 0-4.5 2.1-4.5 4.5s2.1 4.5 4.5 4.5h29.5c2.4 0 4.5-2.1 4.5-4.5s-2.1-4.5-4.5-4.5zm-38.3-92.9c5.4 4.5 9.9 5.1 13.6 4.5 3 2.4 6.9 3.9 10.8 3.9 5.4 0 10.5-2.4 13.9-6.9 8.4-1.5 14.8-8.7 14.8-17.5 0-9.6-7.5-17.5-17.2-17.8-3.3-4.2-8.4-6.6-13.9-6.6-6.9 0-13.3 4.2-16 10.5-6 1.8-10.8 7.2-12.1 13.6-1.1 5.8 1.3 12.1 6.1 16.3zm2.7-14.7c.6-3.6 3.6-6.3 6.9-6.9 1.8-.3 3.6-1.8 3.9-3.6 1.2-3.6 4.5-6.3 8.1-6.3 3 0 6 1.8 7.5 4.5.9 1.5 2.7 2.4 4.5 2.4h.9a8.71 8.71 0 0 1 8.7 8.7c0 4.5-3.6 8.4-8.1 8.7-1.5 0-3 .9-3.9 2.4-1.5 2.7-4.2 4.2-7.2 4.2-2.4 0-4.5-.9-6-2.7a5.54 5.54 0 0 0-3.6-1.5c-.3 0-.9 0-1.2.3-2.1.6-3.9.9-7.5-2.1-2.1-2.4-3.3-5.4-3-8.1zm25-30.2c3.3 2.8 6.1 3.2 8.3 2.8 1.8 1.5 4.2 2.4 6.6 2.4 3.3 0 6.4-1.5 8.4-4.3 5.1-.9 9-5.4 9-10.8 0-6-4.6-10.8-10.5-11-2-2.6-5.1-4.1-8.4-4.1-4.2 0-8.1 2.6-9.7 6.5-3.7 1.1-6.6 4.5-7.3 8.4-.8 3.5.7 7.4 3.6 10.1zm2.2-9.1c.4-2.1 2.1-3.7 4.1-4 1.1-.2 2.1-1.1 2.3-2.1.7-2.1 2.7-3.7 4.8-3.7 1.8 0 3.6 1.1 4.5 2.6.5.9 1.6 1.4 2.7 1.4h.6c2.9 0 5.2 2.3 5.2 5.1 0 2.6-2.1 4.9-4.8 5.1-.9 0-1.8.5-2.3 1.4-.9 1.6-2.5 2.5-4.3 2.5-1.4 0-2.7-.5-3.6-1.6-.5-.5-1.4-.9-2.1-.9-.2 0-.5 0-.7.2-1.2.4-2.3.5-4.5-1.2-1.4-1.5-2.1-3.2-1.9-4.8zm-84.1-74.9c5.4 4.5 9.9 5.1 13.6 4.5 3 2.4 6.9 3.9 10.8 3.9 5.4 0 10.5-2.4 13.9-6.9 8.4-1.5 14.8-8.7 14.8-17.5 0-9.6-7.5-17.5-17.2-17.8-3.3-4.2-8.4-6.6-13.9-6.6-6.9 0-13.3 4.2-16 10.5-6 1.8-10.8 7.2-12.1 13.6-1.1 5.7 1.3 12 6.1 16.3zm2.7-14.8c.6-3.6 3.6-6.3 6.9-6.9 1.8-.3 3.6-1.8 3.9-3.6 1.2-3.6 4.5-6.3 8.1-6.3 3 0 6 1.8 7.5 4.5.9 1.5 2.7 2.4 4.5 2.4h.9a8.71 8.71 0 0 1 8.7 8.7c0 4.5-3.6 8.4-8.1 8.7-1.5 0-3 .9-3.9 2.4-1.5 2.7-4.2 4.2-7.2 4.2-2.4 0-4.5-.9-6-2.7a5.54 5.54 0 0 0-3.6-1.5c-.3 0-.9 0-1.2.3-2.1.6-3.9.9-7.5-2.1-2.1-2.4-3.3-5.4-3-8.1zm-794.8 103.9c1.3-3.4 2-7 2.1-10.6a16.6 16.6 0 0 0-6.9-14.4c-5.3-3.7-12.9-4.1-21.3-1.1-.1 0-.2.1-.3.1-7.2 2.9-13.8 7.3-19.1 13L2280 160l-78.3-29.6c-13.9-5.6-28.1-2.2-35.6 8.4-3.3 4.6-2.3 11.1 2.3 14.5l68.5 51.3-7.4 7.6c-7.4 7.7-14.5 15.7-21.2 23.9l-34.4-5c-2-.3-4 .9-4.6 2.9l-5 15.8c-.6 2 .3 4.2 2.2 5l20.6 9.5c-5.6 8-11 16.1-16.1 24.2-2.2 3.4-1.7 7.9 1.2 10.8s7.4 3.4 10.8 1.2a531.56 531.56 0 0 0 24.1-16.1l9.5 20.6c.9 1.9 3 2.9 5 2.2l15.8-5c2-.6 3.2-2.6 2.9-4.6l-5-34.5c8-6.5 15.9-13.5 23.5-20.8l8-7.7 51.4 68.5c3.4 4.6 9.8 5.6 14.5 2.3 10.6-7.4 14-21.7 8.4-35.5l-29.7-78.4 25.4-24.5c6-5.3 10.5-11.9 13.4-19.3zm-176.7-1.2c-.9-.7-1.2-2-.5-3 6.3-9.1 17.7-8.6 25.7-5.4l75 28.4-30.9 32-69.3-52zm160.1 126.6c3.2 7.8 3.7 19.2-5.4 25.6-1 .7-2.3.5-3-.5l-52-69.4 32-30.9 28.4 75.2zm-80.3-36.6c-7.9 7.6-16.1 14.9-24.5 21.6-1.1.8-1.8 2.1-1.8 3.5v.6l4.9 33.3-8.9 2.8-10.1-21.9c-.5-1.1-1.5-2-2.7-2.3s-2.5-.1-3.5.6c-9.2 6.6-18.6 12.9-27.9 18.8-.1.1-.3.1-.4-.1-.1-.1-.1-.3-.1-.4 5.9-9.3 12.2-18.7 18.8-27.9.7-1 1-2.3.6-3.5-.3-1.2-1.2-2.2-2.3-2.7l-21.9-10.1 2.8-8.9 33.2 4.8c1.8.3 3.7-.6 4.5-2.3 6.7-8.3 14-16.5 21.5-24.4l75.1-77.6a44.39 44.39 0 0 1 16.3-11c.1 0 .2-.1.3-.1 5.6-2 10.4-1.9 13.4.1 2.3 1.8 3.5 4.7 3.3 7.6-.1 2.7-.6 5.3-1.5 7.8-2.4 6.2-6.2 11.8-11.1 16.3l-78 75.4z" class="M"/><g fill="none" class="P"><path d="M1239.1 139.5h26.9l4.6 20.5 21 94.5h111.5" class="S T U"/><g stroke-width="7.769"><circle cx="1312.6" cy="290" r="17.5"/><circle cx="1382.6" cy="290" r="17.5"/></g><path d="M1272.1 160.5h157l-15.4 70h-126.5z" class="T U"/></g><g class="M"><path d="M357.238 78c-18.8 0-34.1 15.3-34.1 34.1v161.3c0 18.8 15.3 34.1 34.1 34.1h99.7c18.8 0 34.1-15.3 34.1-34.1V112.1c0-18.8-15.3-34.1-34.1-34.1h-99.7zm5.2 22.5h26.9a13.74 13.74 0 0 1-13.5 11.2c-6.7 0-12.2-4.8-13.4-11.2zm33.2 50.1h-39.5v-14.8c0-10.1 8.9-18.3 19.7-18.3 10.9 0 19.7 8.2 19.7 18.3v14.8h.1zm89.7 5.7v72.9h-156.4v-72.9h156.4zm-60.5-55.8h26.9a13.74 13.74 0 0 1-13.5 11.2c-6.7 0-12.2-4.8-13.4-11.2zm33.2 50.1h-39.5v-14.8c0-10.1 8.9-18.3 19.7-18.3 10.9 0 19.7 8.2 19.7 18.3v14.8h.1zm-6.3 134.6h-26.9a13.74 13.74 0 0 1 13.5-11.2c6.7 0 12.3 4.8 13.4 11.2zm-33.2-50.3h39.5v15c0 10.1-8.9 18.3-19.7 18.3-10.9 0-19.7-8.2-19.7-18.3v-15h-.1zm-29.2 50.3h-26.9a13.74 13.74 0 0 1 13.5-11.2c6.7 0 12.3 4.8 13.4 11.2zm-33.2-50.3h39.5v15c0 10.1-8.9 18.3-19.7 18.3-10.9 0-19.7-8.2-19.7-18.3v-15h-.1zm100.8 66.9h-99.7c-15.6 0-28.4-12.7-28.4-28.4v-38.5h21.5v15c0 9.6 6 17.8 14.5 21.7-5.1 3.5-8.5 9.4-8.5 16v.4c0 1.6 1.3 2.9 2.9 2.9h33.1c1.6 0 2.9-1.3 2.9-2.9v-.4c0-6.7-3.4-12.5-8.5-16 8.6-3.9 14.5-12.1 14.5-21.7v-15h11.5v15c0 9.6 6 17.8 14.5 21.7-5.1 3.5-8.5 9.4-8.5 16v.4c0 1.6 1.3 2.9 2.9 2.9h33.1c1.6 0 2.9-1.3 2.9-2.9v-.4c0-6.7-3.4-12.5-8.5-16 8.6-3.9 14.5-12.1 14.5-21.7v-15h21.5v38.5c.2 15.6-12.6 28.4-28.2 28.4zm28.4-189.7v38.5h-21.5v-14.8c0-9.6-6-17.8-14.5-21.7 5.1-3.5 8.5-9.4 8.5-16v-.4c0-1.6-1.3-2.9-2.9-2.9h-33.1c-1.6 0-2.9 1.3-2.9 2.9v.4c0 6.7 3.4 12.5 8.5 16-8.6 3.9-14.5 12.1-14.5 21.7v14.8h-11.5v-14.8c0-9.6-6-17.8-14.5-21.7 5.1-3.5 8.5-9.4 8.5-16v-.4c0-1.6-1.3-2.9-2.9-2.9h-33.1c-1.6 0-2.9 1.3-2.9 2.9v.4c0 6.7 3.4 12.5 8.5 16-8.6 3.9-14.5 12.1-14.5 21.7v14.8h-21.5v-38.5c0-15.6 12.7-28.4 28.4-28.4h99.7c15.4.1 28.2 12.8 28.2 28.4zm-142.9 98.8h61.8c1.6 0 2.9-1.3 2.9-2.9v-32.7c0-1.6-1.3-2.9-2.9-2.9h-61.8c-1.6 0-2.9 1.3-2.9 2.9V208c.1 1.6 1.4 2.9 2.9 2.9zm2.9-32.7h56.1v26.9h-56.1v-26.9zm79.7 10.1h42.4c1.3 0 2.3-1.3 2.3-2.9s-1-2.9-2.3-2.9h-42.4c-1.3 0-2.3 1.3-2.3 2.9s1 2.9 2.3 2.9zm1.4 12.6h39.9c2 0 3.7-1.3 3.7-2.9s-1.6-2.9-3.7-2.9h-39.9c-2 0-3.7 1.3-3.7 2.9s1.6 2.9 3.7 2.9z"/><path d="M4153.07 68.5c-1.3 0-2.8.1-4.3.4-5.3 1-11.7 5-18.3 10.8h-109.5c-5.7-4.9-11.4-8.3-16-9.3-5.3-1.1-9.5-.5-10.8-.6h-.4c-1.3 0-3.1.2-4.9 1.5-4.3 3.2-6 8.4-6.2 15.8-.2 6.8 2.1 15.9 7.1 25.7-2.5 17.4-4.1 44.3-4.1 75.2s1.6 57.8 4.1 75.2c-5 9.9-7.3 18.9-7.1 25.7.3 7.4 1.9 12.6 6.2 15.8 5.8 4.3 18.1 4.1 32.2-8.4h109.5c14.1 12.5 26.4 12.6 32.2 8.4 4.4-3.2 6-8.4 6.2-15.8.2-6.9-2.1-15.9-7.1-25.7 1.3-9.3 2.4-21.2 3.1-35 .6-12.1 1-25.7 1-40.2 0-30.9-1.6-57.8-4.1-75.3 5-9.9 7.3-18.9 7.1-25.7-.3-7.4-1.9-12.6-6.2-15.8-2.4-1.6-5.7-2.7-9.7-2.7zm1.9 10.1c1 .2 1.6.5 1.8.6-.6-.5 2 2.8 2.2 8.2.2 5.5-1.2 13.2-6.5 22.8a4.68 4.68 0 0 0-.5 3.1c2.4 16.6 4.1 43.8 4.1 74.8s-1.6 58.2-4.1 74.7c-.2 1.1 0 2.1.5 3.1 5.3 9.6 6.7 17.4 6.5 22.9s-2.8 8.7-2.2 8.2c-.6.5-8.4 4.2-21.6-8.9-.9-.9-2.2-1.4-3.5-1.4h-111.7c-1.3 0-2.6.5-3.5 1.4-13.2 13-21 9.3-21.6 8.9.6.5-2-2.8-2.2-8.2-.2-5.5 1.2-13.3 6.5-22.9.5-.9.7-2 .5-3.1-2.4-16.5-4.1-43.7-4.1-74.7s1.6-58.2 4.1-74.8c.2-1.1 0-2.1-.5-3.1-5.3-9.6-6.7-17.4-6.5-22.8.2-5.1 2.3-7.7 2.1-7.7 2.8 0 5.2-.3 8.3.3 3.5.7 7.9 2.6 13.5 8 .9.9 2.2 1.5 3.5 1.5h111.7c1.3 0 2.6-.5 3.5-1.5 6.6-6.5 11.9-8.8 15.5-9.5 1.7-.2 3.2-.1 4.2.1zm-134.3 70.1c-2.8 0-5 2.2-5 4.9v59.1c0 2.7 2.2 4.9 5 4.9h110.2c2.8 0 5-2.2 5-4.9v-59.1c0-2.7-2.2-4.9-5-4.9h-110.2zm5 9.9h100.2v49.3h-100.2v-49.3z" stroke="#1c2a40" stroke-width="2"/></g><path d="M4038.27 175l59.1.1m-59.1 16.1h59.4" fill="none" stroke-width="8" class="P S"/><g class="M"><g stroke-width="2" class="P"><path d="M5141.9 201.1c-43.4 7.2-127 30-198.9 100.8a3.14 3.14 0 0 0 0 4.4c.6.6 1.4.9 2.2.9s1.6-.3 2.2-.9c70.7-69.6 152.9-91.9 195.6-99.1 1.7-.3 2.9-1.9 2.6-3.6-.4-1.7-2-2.8-3.7-2.5zm-.2 31.1c-37.2 8.7-92.8 27.9-146 69.4-1.4 1.1-1.6 3-.5 4.4.6.8 1.5 1.2 2.5 1.2.7 0 1.3-.2 1.9-.7 52.3-40.8 106.9-59.6 143.5-68.2 1.7-.4 2.7-2.1 2.3-3.8-.3-1.6-2-2.6-3.7-2.3z"/><path d="M5145.4 267c-.5-1.7-2.2-2.6-3.9-2.1-29.8 8.9-58.2 21.3-84.5 36.8-1.5.9-2 2.8-1.1 4.3.6 1 1.6 1.5 2.7 1.5.5 0 1.1-.1 1.6-.4 25.9-15.2 53.9-27.4 83.2-36.2 1.6-.5 2.5-2.3 2-3.9zm-246.9-117.3c.7 0 69.7 4.1 144.3 46.7-10.2 4.1-20.8 8.8-31.7 14.3-44.6-23.2-85.5-33.3-112-37.8-1.7-.3-3.3.9-3.6 2.6s.9 3.3 2.6 3.6c25.3 4.2 63.9 13.8 106.2 35.1-9.3 5-18.8 10.5-28.3 16.7a389.92 389.92 0 0 0-76.7-26.8c-1.7-.4-3.4.6-3.8 2.3s.6 3.4 2.3 3.8c24.7 5.8 48.9 14.1 72 24.8-8.3 5.7-16.6 11.8-24.9 18.6-14.7-6.5-30.1-12.2-45.5-16.8-1.7-.5-3.4.4-3.9 2.1s.4 3.4 2.1 3.9c14.2 4.3 28.3 9.4 41.9 15.3-15 12.7-29.6 27.3-43.5 44.1-1.1 1.3-.9 3.3.4 4.4.6.5 1.3.7 2 .7.9 0 1.8-.4 2.4-1.1 98.8-119.5 240.1-128.1 241.5-128.2 1.7-.1 3-1.6 3-3.3-.1-1.7-1.6-3.1-3.3-3-.8 0-40.1 2.4-91.9 21.9-77.7-45.8-150.8-50-151.5-50-1.7-.1-3.2 1.2-3.3 3 .2 1.5 1.5 3 3.2 3.1z"/><use xlink:href="#B"/><use xlink:href="#B" x="31"/><use xlink:href="#B" x="62"/></g><path d="M6002.4 280.5c-10.2 0-19.8-5.4-25.8-14.4 10.1-9.7 16.4-22.9 17.7-37.3v-.1c0-.4.1-.9.1-1.3v-.4c0-.4 0-.7.1-1.1v-5c0-.5 0-1-.1-1.5v-.2c-.4-7.6-1.9-16.9-4.2-26.5-.1-.3-.1-.6-.2-.9l-.3-1.2c-.1-.5-.2-1-.4-1.5 0-.2-.1-.4-.1-.6-.1-.3-.2-.7-.3-1 5.8-8.3 10.4-10.1 13.3-10.1 6.8 0 14.9 9.7 21.6 25.8 5.9 14.1 10.2 32.1 10.2 42.7.2 19.1-14.1 34.6-31.6 34.6h0zm-57.8-30l22.6-16.3c1.8-1.3 2.2-3.8.9-5.6s-3.8-2.2-5.6-.9l-17.9 12.9V207l14.8-10.7c1.8-1.3 2.2-3.8.9-5.6s-3.8-2.2-5.6-.9l-10.2 7.3v-20.8c0-2.2-1.8-4-4-4s-4 1.8-4 4v44.1l-17.6-12.7c-1.8-1.3-4.3-.9-5.6.9s-.9 4.3.9 5.6l22.3 16.1v42.4c-21.6-2-38.9-20.3-41.7-43.4v-.1c0-.3-.1-.7-.1-1v-.4c0-.3 0-.6-.1-.9v-6.6c.4-8.7 2.4-20.3 5.7-32.5v-.2c2.3-8.5 5.2-17.1 8.6-25 9.9-23.6 21.4-37.1 31.7-37.1s21.8 13.5 31.7 37.1c3.3 7.9 6.2 16.5 8.6 25v.2c3.3 12.2 5.3 23.8 5.7 32.5v6.6c0 .3 0 .6-.1.9v.4c0 .3-.1.7-.1 1v.1c-2.7 23.2-20.1 41.4-41.7 43.5v-22.3zm-65.7 30c-17.5 0-31.8-15.6-31.8-34.7 0-10.7 4.3-28.7 10.2-42.7 6.8-16.2 14.8-25.8 21.6-25.8 2.9 0 7.5 1.8 13.3 10.1a12.59 12.59 0 0 1-.3 1c0 .2-.1.4-.1.5-.1.5-.3 1-.4 1.5l-.3 1.2c-.1.3-.1.6-.2.9-2.3 9.7-3.8 18.9-4.2 26.5v.2c0 .5 0 1-.1 1.5v5c0 .4 0 .7.1 1.1v.4c0 .4.1.9.1 1.3v.1c1.4 14.4 7.6 27.6 17.7 37.3-5.8 9.2-15.4 14.6-25.6 14.6h0zm163.2-34.6c0-11.8-4.4-30.6-10.8-45.8-10.6-25.4-21.6-30.7-29-30.7-5.5 0-10.9 2.9-16 8.7-2-6.4-4.2-12.6-6.7-18.5-5.1-12.1-10.6-21.8-16.5-28.9-7.2-8.7-14.8-13.1-22.5-13.1s-15.3 4.4-22.5 13.1c-5.9 7.1-11.5 16.8-16.5 28.9-2.5 5.9-4.7 12.2-6.7 18.5-5.1-5.7-10.5-8.7-16-8.7-13.3 0-23.1 16.7-29 30.7-6.4 15.2-10.8 34-10.8 45.8 0 22.1 15.7 40.3 35.8 42.4v15.2c0 2.2 1.8 4 4 4s4-1.8 4-4v-15.2c11.1-1.2 21.3-7.4 27.9-17 7.5 5.4 16.3 8.8 25.8 9.5v22.7c0 2.2 1.8 4 4 4s4-1.8 4-4v-22.7c9.5-.7 18.3-4.2 25.8-9.5 6.7 9.6 16.8 15.8 27.9 17v15.2c0 2.2 1.8 4 4 4s4-1.8 4-4v-15.2c20.1-2.1 35.8-20.4 35.8-42.4h0z"/></g><path d="M5851.1 307.5h177" fill="none" stroke-width="7" class="P S"/><text><tspan x="5733.313" y="803.209" class="M N O">Aboveground </tspan><tspan x="5778.013" y="889.609" class="M N O">changes in </tspan><tspan x="5706.713" y="976.009" class="M N O">biomass due to </tspan><tspan x="5727.613" y="1062.409" class="M N O">deforestation, </tspan><tspan x="5666.413" y="1148.809" class="M N O">and underground </tspan><tspan x="5711.713" y="1235.209" class="M N O">changes in soil </tspan><tspan x="5841.213" y="1321.609" class="M N O">carbon</tspan><tspan x="4885.226" y="803.209" class="M N O">methane </tspan><tspan x="4775.926" y="889.609" class="M N O">emissions from </tspan><tspan x="4714.726" y="976.009" class="M N O">animals, emissions </tspan><tspan x="4776.526" y="1062.409" class="M N O">from fertilizers, </tspan><tspan x="4742.826" y="1148.809" class="M N O">manure and farm </tspan><tspan x="4853.926" y="1235.209" class="M N O">machinery</tspan><tspan x="3851.781" y="803.209" class="M N O">emissions from </tspan><tspan x="3843.081" y="889.609" class="M N O">crop production </tspan><tspan x="3808.181" y="976.009" class="M N O">and its processing </tspan><tspan x="3780.281" y="1062.409" class="M N O">into feed for farmed </tspan><tspan x="3976.381" y="1148.809" class="M N O">animals</tspan><tspan x="2927.665" y="803.209" class="M N O">emissions from </tspan><tspan x="2901.265" y="889.609" class="M N O">energy use in the </tspan><tspan x="3016.165" y="976.009" class="M N O">process of </tspan><tspan x="2935.765" y="1062.409" class="M N O">converting raw </tspan><tspan x="2881.865" y="1148.809" class="M N O">products into final </tspan><tspan x="3010.165" y="1235.209" class="M N O">food items</tspan><tspan x="2003.549" y="803.209" class="M N O">emissions from </tspan><tspan x="1977.149" y="889.609" class="M N O">energy use in the </tspan><tspan x="1984.549" y="976.009" class="M N O">transport of food </tspan><tspan x="1983.749" y="1062.409" class="M N O">items in-country </tspan><tspan x="1945.149" y="1148.809" class="M N O">and internationally</tspan><tspan x="1079.432" y="803.209" class="M N O">emissions from </tspan><tspan x="1053.032" y="889.609" class="M N O">energy use in the </tspan><tspan x="1105.832" y="976.009" class="M N O">refridgeration </tspan><tspan x="1082.532" y="1062.409" class="M N O">and other retail </tspan><tspan x="1171.532" y="1148.809" class="M N O">processes</tspan><tspan x="93.721" y="803.209" class="M N O">emissions from the </tspan><tspan x="87.521" y="889.609" class="M N O">production of pack</tspan><tspan x="708.521" y="889.609" class="M N O">-</tspan><tspan x="105.221" y="976.009" class="M N O">age materials, ma</tspan><tspan x="690.821" y="976.009" class="M N O">-</tspan><tspan x="92.021" y="1062.409" class="M N O">terial transport and </tspan><tspan x="237.621" y="1148.809" class="M N O">end-of-life </tspan><tspan x="274.921" y="1235.209" class="M N O">disposal</tspan></text><defs ><path id="B" d="M4997.6 80.6c0-9.8-3.9-15.1-7-19.3l-1.8-2.4c-1-1.4-2.9-1.8-4.3-.8s-1.8 2.9-.8 4.3c.6.9 1.3 1.8 1.9 2.7 3 4 5.8 7.8 5.8 15.5 0 6.1-2 9.1-4.3 12.4-2.5 3.7-5.4 7.9-5.4 16s2.9 12.3 5.4 16c.6.9 1.6 1.4 2.6 1.4.6 0 1.2-.2 1.8-.5 1.4-1 1.8-2.9.8-4.3-2.3-3.4-4.3-6.3-4.3-12.4s2-9.1 4.3-12.4c2.4-3.9 5.3-8.1 5.3-16.2z"/></defs></svg>