
<svg xmlns="http://www.w3.org/2000/svg" xmlns:xlink="http://www.w3.org/1999/xlink" viewBox="0 0 1201.4 345.5" xmlns:v="https://vecta.io/nano"><style><![CDATA[.F{stroke:#37485e}.G{stroke-miterlimit:10}.H{stroke-width:5}.I{fill:#37485e}]]></style><path d="M125.3 247.5h930.5" fill="none" class="F G H"/><g class="I"><path d="M19.8 267.8c-1.8 0-9.5-.3-14.5-5.3C-.2 257 0 248 0 247.5c0-1.3 1-2.3 2.5-2.5.5 0 9.5-.3 15 5.3 5.5 5.5 5.3 14.5 5.3 15 0 1.3-1 2.3-2.5 2.5h-.5zm.2-2.5h0zm0 0h0zm-15-15c.3 2.5 1.3 6.3 3.8 8.8s6.3 3.3 8.8 3.8c-.3-2.5-1.3-6.3-3.8-8.8s-6.3-3.3-8.8-3.8z"/><use xlink:href="#B"/><use xlink:href="#C"/><use xlink:href="#D"/><use xlink:href="#B" y="-74.5"/><path d="M36.8 267.8h-.5c-1.3 0-2.3-1-2.5-2.5 0-.5-.3-9.3 5.3-15 5.5-5.5 14.5-5.3 15-5.3 1.3 0 2.3 1 2.5 2.5 0 .5.3 9.3-5.3 15-5 5.1-12.8 5.3-14.5 5.3zm14.7-17.5c-2.5.3-6.3 1.3-8.8 3.8s-3.5 6.3-3.8 8.8c2.5-.3 6.3-1.3 8.8-3.8 2.6-2.5 3.3-6.3 3.8-8.8z"/><use xlink:href="#E"/><use xlink:href="#F"/><path d="M36.8 193.3h-.5c-1.3 0-2.3-1-2.5-2.5 0-.5-.3-9.3 5.3-15 5.5-5.5 14.5-5.3 15-5.3 1.3 0 2.3 1 2.5 2.5 0 .5.3 9.3-5.3 15-5 5.1-12.8 5.3-14.5 5.3zm14.7-17.5c-2.5.3-6.3 1.3-8.8 3.8s-3.3 6.3-3.8 8.8c2.5-.3 6.3-1.3 8.8-3.8 2.6-2.5 3.3-6.3 3.8-8.8z"/><use xlink:href="#E" y="-74.5"/><path d="M27.8 151.1c-.5 0-1.3-.3-1.8-.8-.3-.3-6.8-6.3-6.8-14.3s6.5-14 6.8-14.3c1-1 2.5-1 3.5 0 .3.3 6.8 6.5 6.8 14.3 0 8-6.5 14-6.8 14.3-.5.5-1.2.8-1.7.8zm0-23.8c-1.5 2-3.5 5.3-3.5 8.8s2 6.8 3.5 8.8c1.5-2 3.5-5.3 3.5-8.8s-2-6.8-3.5-8.8z"/><use xlink:href="#G"/><use xlink:href="#D" x="72" y="74.5"/><use xlink:href="#H"/><use xlink:href="#C" x="72"/><use xlink:href="#D" x="72"/><use xlink:href="#H" y="-74.5"/><path d="M108.8 267.8h-.5c-1.3 0-2.3-1-2.5-2.5 0-.5-.3-9.3 5.3-15 5.5-5.5 14.5-5.3 15-5.3 1.3 0 2.3 1 2.5 2.5 0 .5.3 9.3-5.3 15-5 5.1-12.8 5.3-14.5 5.3zm14.7-17.5c-2.5.3-6.3 1.3-8.8 3.8s-3.5 6.3-3.8 8.8c2.5-.3 6.3-1.3 8.8-3.8s3.3-6.3 3.8-8.8z"/><use xlink:href="#I"/><use xlink:href="#F" x="72"/><path d="M108.8 193.3h-.5c-1.3 0-2.3-1-2.5-2.5 0-.5-.3-9.3 5.3-15 5.5-5.5 14.5-5.3 15-5.3 1.3 0 2.3 1 2.5 2.5 0 .5.3 9.3-5.3 15-5 5.1-12.8 5.3-14.5 5.3zm14.7-17.5c-2.5.3-6.3 1.3-8.8 3.8s-3.3 6.3-3.8 8.8c2.5-.3 6.3-1.3 8.8-3.8s3.3-6.3 3.8-8.8z"/><use xlink:href="#I" y="-74.5"/><path d="M99.8 151.1c-.5 0-1.3-.3-1.8-.8-.3-.3-6.8-6.5-6.8-14.3 0-8 6.5-14 6.8-14.3 1-1 2.5-1 3.5 0 .3.3 6.8 6.3 6.8 14.3s-6.5 14-6.8 14.3c-.5.5-1.2.8-1.7.8zm0-23.8c-1.5 2-3.5 5.3-3.5 8.8s2 6.8 3.5 8.8c1.5-2 3.5-5.3 3.5-8.8s-2-6.8-3.5-8.8z"/><use xlink:href="#G" x="72"/></g><path d="M1143.4 214.9h30.9c8.9 0 15.5-6.6 15.5-15.6 0-5-2.2-9.8-6.4-12.6-1.8-1.2-4.1-2.1-6.7-2.5-3.5-6.6-10.4-10.7-18.1-10.1-7.3.6-13.2 5.4-15.6 12.2-6.1.4-11 4-12.7 9.9-2.6 9.3 3.4 18.7 13.1 18.7z" fill="none" class="F G H"/><g class="I"><path d="M817.3 249.7c-1.5 0-2.6-1.2-2.6-2.6 0-1.5 1.2-2.6 2.6-2.6a2.65 2.65 0 0 0 2.6-2.6c0-1.5 1.2-2.6 2.6-2.6 1.5 0 2.6 1.2 2.6 2.6.1 4.2-3.5 7.8-7.8 7.8z"/><path d="M822.5 244.4c-1.5 0-2.6-1.2-2.6-2.6v-105c0-1.5 1.2-2.6 2.6-2.6 1.5 0 2.6 1.2 2.6 2.6v105c.1 1.4-1.1 2.6-2.6 2.6z"/><path d="M822.5 139.4c-1.5 0-2.6-1.2-2.6-2.6 0-7.2-5.9-13.1-13.1-13.1-1.5 0-2.6-1.2-2.6-2.6 0-1.5 1.2-2.6 2.6-2.6 10.1 0 18.4 8.2 18.4 18.4 0 1.3-1.2 2.5-2.7 2.5z"/><use xlink:href="#J"/><path d="M728 244.4c-1.5 0-2.6-1.2-2.6-2.6v-86.2c0-1.5 1.2-2.6 2.6-2.6 1.5 0 2.6 1.2 2.6 2.6v86.2c.1 1.4-1.1 2.6-2.6 2.6zm84-105c-1.5 0-2.6-1.2-2.6-2.6a2.65 2.65 0 0 0-2.6-2.6c-1.5 0-2.6-1.2-2.6-2.6 0-1.5 1.2-2.6 2.6-2.6a7.92 7.92 0 0 1 7.9 7.9c0 1.3-1.2 2.5-2.7 2.5z"/><path d="M812 144.7c-1.5 0-2.6-1.2-2.6-2.6v-5.3c0-1.5 1.2-2.6 2.6-2.6 1.5 0 2.6 1.2 2.6 2.6v5.3c.1 1.4-1.1 2.6-2.6 2.6z"/><use xlink:href="#K"/><path d="M741,130.4c-0.7,0-1.3-0.3-1.9-0.8c-1-1-2.7-1-3.7,0s-2.7,1-3.7,0s-1-2.7,0-3.7c3.1-3.1,8.1-3.1,11.1,0 c1,1,1,2.7,0,3.7C742.3,130.2,741.6,130.4,741,130.4z"/><path d="M720.6 143.4c-.7 0-1.3-.3-1.9-.8a2.66 2.66 0 0 1 0-3.7l12.9-12.9a2.66 2.66 0 0 1 3.7 0 2.66 2.66 0 0 1 0 3.7l-12.9 12.9c-.5.5-1.1.8-1.8.8zm7.4 14.8c-.7 0-1.3-.3-1.9-.8l-7.4-7.4a2.66 2.66 0 0 1 0-3.7 2.66 2.66 0 0 1 3.7 0l7.4 7.4a2.66 2.66 0 0 1 0 3.7c-.4.6-1.1.8-1.8.8z"/><path d="M720.6 150.8c-.7 0-1.3-.3-1.9-.8-1.5-1.5-2.3-3.5-2.3-5.6s.8-4.1 2.3-5.6a2.66 2.66 0 0 1 3.7 0 2.66 2.66 0 0 1 0 3.7c-.5.5-.8 1.2-.8 1.9s.3 1.4.8 1.9a2.66 2.66 0 0 1 0 3.7c-.4.5-1.1.8-1.8.8zm27.8-12.9c-.7 0-1.3-.3-1.9-.8l-7.4-7.4a2.66 2.66 0 0 1 0-3.7 2.66 2.66 0 0 1 3.7 0l7.4 7.4a2.66 2.66 0 0 1 0 3.7c-.5.5-1.1.8-1.8.8zm68.9 111.8h-84c-1.5 0-2.6-1.2-2.6-2.6 0-1.5 1.2-2.6 2.6-2.6h84c1.5 0 2.6 1.2 2.6 2.6a2.65 2.65 0 0 1-2.6 2.6z"/><use xlink:href="#L"/><use xlink:href="#K" y="73.5"/><path d="M806.8 223.4h-63c-1.5 0-2.6-1.2-2.6-2.6 0-1.5 1.2-2.6 2.6-2.6h63c1.5 0 2.6 1.2 2.6 2.6a2.65 2.65 0 0 1-2.6 2.6z"/><use xlink:href="#L" x="-73.5"/><use xlink:href="#J" x="10.5" y="-26.3"/><path d="M797 199.4c-.7 0-1.4-.3-2-.9-2-2.2-3.9-4.7-6-7.3-8.4-10.6-18-22.6-30.9-20.4-1.4.2-2.8-.7-3-2.1s.7-2.8 2.1-3c16-2.8 27 11.1 35.9 22.3 2 2.6 4 5 5.8 7.1 1 1.1.9 2.7-.2 3.7-.5.4-1.1.6-1.7.6z"/><path d="M797 199.4h-.2c-1.4-.1-2.5-1.4-2.4-2.8.6-8.1.4-17.2-6-23.9-4.5-4.7-11.3-7.1-18.2-6.1-3.7.5-7.5 1.8-11.2 4.1-1.2.7-2.9.3-3.6-.9s-.3-2.9.9-3.6c4.4-2.6 8.8-4.2 13.2-4.7 8.5-1.1 17 1.8 22.6 7.7 7.8 8.3 8.1 19.3 7.4 28 0 1.2-1.2 2.2-2.5 2.2z"/><path d="M784.6 201.8c-3.9 0-7.8-.9-11.2-3.4-5.2-3.8-6.8-9.5-8.4-15-1-3.3-1.9-6.5-3.5-9.1-1.2-1.9-2.7-3-4.5-3.5-1.4-.4-2.2-1.8-1.8-3.2s1.8-2.2 3.2-1.8c3 .8 5.6 2.8 7.5 5.7 2.1 3.2 3.1 6.9 4.2 10.5 1.4 4.9 2.7 9.5 6.4 12.2 5.4 3.9 12.7 2.4 19.7.2 1.4-.4 2.9.3 3.3 1.7s-.3 2.9-1.7 3.3c-4.3 1.2-8.8 2.4-13.2 2.4zm-1.4-7.9c-1.3 0-2.4-1-2.6-2.3-.2-1.4.9-2.7 2.3-2.9l8.1-1c1.4-.2 2.7.9 2.9 2.3s-.9 2.7-2.3 2.9l-8.1 1c-.1-.1-.2 0-.3 0zm-7.4-7.9c-1.4 0-2.5-1.1-2.6-2.5s1-2.7 2.5-2.8l9.4-.5c1.4-.1 2.7 1 2.8 2.5.1 1.4-1 2.7-2.5 2.8l-9.4.5h-.2zm2-8.1h-.2l-5.6-.4c-1.4-.1-2.5-1.3-2.5-2.8.1-1.4 1.4-2.5 2.8-2.5l5.6.4c1.4.1 2.5 1.3 2.5 2.8-.1 1.4-1.2 2.5-2.6 2.5z"/><path d="M777.8 177.9c-1.5 0-2.7-1.2-2.6-2.7l.1-5.7c0-1.4 1.3-2.5 2.7-2.6 1.4 0 2.6 1.2 2.6 2.7l-.1 5.7c-.1 1.4-1.3 2.6-2.7 2.6zm7.4 7.6s-.1 0 0 0c-1.5 0-2.7-1.2-2.6-2.7l.2-8.2a2.65 2.65 0 0 1 2.6-2.6h.1c1.4 0 2.6 1.2 2.6 2.7l-.2 8.2c-.1 1.5-1.3 2.6-2.7 2.6zm-38.1-14.6h-3.3c-1.5 0-2.6-1.2-2.6-2.6a2.65 2.65 0 0 1 2.6-2.6h3.3c1.5 0 2.6 1.2 2.6 2.6s-1.1 2.6-2.6 2.6z"/><path d="M738.5 176.2c-1.5 0-2.6-1.2-2.6-2.6a7.92 7.92 0 0 1 7.9-7.9c1.5 0 2.6 1.2 2.6 2.6a2.65 2.65 0 0 1-2.6 2.6 2.65 2.65 0 0 0-2.6 2.6 2.69 2.69 0 0 1-2.7 2.7zm68.3-5.3h-5.2c-1.5 0-2.6-1.2-2.6-2.6a2.65 2.65 0 0 1 2.6-2.6h5.2c1.5 0 2.6 1.2 2.6 2.6a2.65 2.65 0 0 1-2.6 2.6z"/><path d="M812 176.2c-1.5 0-2.6-1.2-2.6-2.6a2.65 2.65 0 0 0-2.6-2.6c-1.5 0-2.6-1.2-2.6-2.6a2.65 2.65 0 0 1 2.6-2.6 7.92 7.92 0 0 1 7.9 7.9c0 1.3-1.2 2.5-2.7 2.5zm-46.6-31.5c-1.5 0-2.6-1.2-2.6-2.6v-5.3c0-1.5 1.2-2.6 2.6-2.6 1.5 0 2.6 1.2 2.6 2.6v5.3a2.65 2.65 0 0 1-2.6 2.6zM728 158.2c-.7 0-1.3-.3-1.9-.8a2.66 2.66 0 0 1 0-3.7l28.4-28.4a2.66 2.66 0 0 1 3.7 0 2.66 2.66 0 0 1 0 3.7l-28.4 28.4c-.4.6-1.1.8-1.8.8zm78.8-34.5h-35.5c-1.5 0-2.6-1.2-2.6-2.6 0-1.5 1.2-2.6 2.6-2.6h35.5c1.5 0 2.6 1.2 2.6 2.6a2.65 2.65 0 0 1-2.6 2.6z"/><path d="M756.5 129.8c-.7 0-1.3-.3-1.9-.8a2.66 2.66 0 0 1 0-3.7c4.5-4.5 10.4-6.9 16.7-6.9h0c1.5 0 2.6 1.2 2.6 2.6a2.65 2.65 0 0 1-2.6 2.6c-4.9 0-9.5 1.9-13 5.4-.5.5-1.2.8-1.8.8zm8.9 9.6c-1.5 0-2.6-1.2-2.6-2.6a7.92 7.92 0 0 1 7.9-7.9c1.5 0 2.6 1.2 2.6 2.6 0 1.5-1.2 2.6-2.6 2.6a2.65 2.65 0 0 0-2.6 2.6c-.1 1.5-1.3 2.7-2.7 2.7z"/><use xlink:href="#M"/><use xlink:href="#M" y="15.7"/><path d="M770.6 149.9a7.92 7.92 0 0 1-7.9-7.9c0-1.5 1.2-2.6 2.6-2.6 1.5 0 2.6 1.2 2.6 2.6a2.65 2.65 0 0 0 2.6 2.6c1.5 0 2.6 1.2 2.6 2.6.1 1.5-1 2.7-2.5 2.7zm-175.7 52v-28.6c1 1.1 2.2 2 3.4 2.8 5 3.4 11.6 5.3 18.5 5.3 1.3 0 2.4-1.1 2.4-2.4s-1.1-2.4-2.4-2.4c-12.1 0-22-6.4-22-14.2v-6.5c4.1 4.1 10.6 6.7 17.8 6.7 1.3 0 2.4-1.1 2.4-2.4s-1.1-2.4-2.4-2.4c-9.8 0-17.8-5.6-17.8-12.5v-4.1c3.6 3 8.1 4.7 12.8 4.6 1.3 0 2.4-1.1 2.4-2.4s-1.1-2.4-2.4-2.4c-7.1 0-12.8-4.4-12.8-9.7v-6.4c2.7 2.4 6.1 3.8 9.7 3.8 1.3 0 2.4-1.1 2.4-2.4s-1.1-2.4-2.4-2.4c-5.4 0-9.7-4.4-9.7-9.7 0-1.3-1.1-2.4-2.4-2.4s-2.4 1.1-2.4 2.4v.1c0 5.4-4.3 9.7-9.7 9.7-1.3 0-2.4 1.1-2.4 2.4s1.1 2.4 2.4 2.4c3.6 0 7.1-1.3 9.7-3.8v6.4c0 5.4-5.8 9.7-12.8 9.7-1.3 0-2.4 1.1-2.4 2.4s1.1 2.4 2.4 2.4c5.1 0 9.6-1.8 12.8-4.6v4.1c0 6.9-8 12.5-17.8 12.5-1.3 0-2.4 1.1-2.4 2.4s1.1 2.4 2.4 2.4c7.2 0 13.7-2.6 17.8-6.7v6.5c0 7.8-9.9 14.2-22 14.2-1.3 0-2.4 1.1-2.4 2.4s1.1 2.4 2.4 2.4c7 0 13.6-1.9 18.5-5.3 1.2-.8 2.4-1.8 3.4-2.9v28.2h-.5c-6.8 0-13.4 1.5-19.6 4.3.2-.9.3-1.7.3-2.6.1-2.6-.6-5.2-2.1-8.1h0l-.7-1.5c-.4-.8-1.1-1.3-2-1.5h-.4c-.9-1.9-2.2-3.9-4.3-5.1l-.6-.4a2.99 2.99 0 0 0-2.9 0l-.6.4c-2 1.2-3.4 3.2-4.3 5.1h-.5c-.9.2-1.6.7-2 1.5l-.8 1.5c-1.5 3.1-2.2 5.8-2.2 8.4a13.33 13.33 0 0 0 .3 2.8c-5.7-2.8-11.8-4.5-18.2-4.8v-40.8a28.78 28.78 0 0 0 5.8 5.2c6.5 4.4 15.1 6.9 24.3 6.9 1.3 0 2.4-1.1 2.4-2.4s-1.1-2.4-2.4-2.4c-16.6 0-30.1-8.9-30.1-19.8v-10.6c5.2 6.1 14.3 10.1 24.6 10.1 1.3 0 2.4-1.1 2.4-2.4s-1.1-2.4-2.4-2.4c-13.5 0-24.6-7.8-24.6-17.4v-7.3c4.1 4.4 10.6 7.2 17.9 7.2 1.3 0 2.4-1.1 2.4-2.4s-1.1-2.4-2.4-2.4c-9.9 0-17.9-6.1-17.9-13.7V96.8a18.42 18.42 0 0 0 13.7 6.1c1.3 0 2.4-1.1 2.4-2.4s-1.1-2.4-2.4-2.4c-7.6 0-13.7-6.2-13.7-13.7 0-1.3-1.1-2.4-2.4-2.4s-2.4 1.1-2.4 2.4v.2c0 7.6-6.1 13.8-13.7 13.8-1.3 0-2.4 1.1-2.4 2.4s1.1 2.4 2.4 2.4a18.42 18.42 0 0 0 13.7-6.1v10.4c0 7.6-8 13.7-17.9 13.7-1.3 0-2.4 1.1-2.4 2.4s1.1 2.4 2.4 2.4c7.3 0 13.8-2.8 17.9-7.2v7.3c0 9.6-11 17.4-24.6 17.4-1.3 0-2.4 1.1-2.4 2.4s1.1 2.4 2.4 2.4c10.3 0 19.3-4 24.6-10.1v10.7c0 10.9-13.5 19.8-30.1 19.8-1.3 0-2.4 1.1-2.4 2.4s1.1 2.4 2.4 2.4c9.1 0 17.8-2.4 24.3-6.9a28.78 28.78 0 0 0 5.8-5.2v40.5c-23.6 1.2-42.4 20.1-43.6 43.6H465c2.2-1.7 4-4 5.1-6.5 1.5-3 2.3-6.2 2.4-9.5.1-4.3-1-8.7-3.5-13.5h0l-1.3-2.6a3.33 3.33 0 0 0-2.3-1.7c-.5-.1-1.1-.1-1.6.1-2-4.7-4.5-7.8-7.4-9.6l-1.1-.6a3.07 3.07 0 0 0-3.2 0l-1.1.7c-3.6 2.2-5.9 6-7.4 9.6-.5-.2-1-.2-1.5-.1h-.1a3.33 3.33 0 0 0-2.3 1.7l-1.3 2.6c-2.6 5.2-3.8 9.8-3.7 14.1.1 3.3.9 6.6 2.5 9.6 1 2.3 2.5 4.3 4.3 5.9h-15.6c-1.3 0-2.4 1.1-2.4 2.4s1.1 2.4 2.4 2.4h206.9c1.3 0 2.4-1.1 2.4-2.4.5-23.9-17-43.6-40.3-46.2zm-136.5 41.8h0c-.1.1-.3.2-.4.3-1.2.5-2.4.8-3.6 1.1h-.9c-1.2-.1-2.4-.6-3.4-1.2-1.2-.8-2-2.2-1.9-3.7 0-.8.4-3 3.9-7.4.8-.9 1.5-1.8 2.2-2.5.7.7 1.4 1.6 2.2 2.5 3.6 4.4 3.9 6.6 3.9 7.4 0 1.3-.8 2.7-2 3.5h0zm1.6-14c-1.3-1.6-2.7-3.2-4.2-4.6-.9-.9-2.4-.9-3.3 0-1.5 1.5-2.9 3-4.2 4.6-3.2 3.9-4.9 7.3-5 10.1-.5-.7-1-1.5-1.3-2.3 0 0 0-.1-.1-.1a17.88 17.88 0 0 1-2-7.6c-.1-3.5 1-7.5 3.2-12l.3-.7a2.27 2.27 0 0 0 3.3-.1c.2-.2.4-.5.5-.9 1.9-5.3 4-8.6 6.6-10.2l.3-.2.3.2c2.6 1.5 4.7 4.9 6.6 10.2.4 1.2 1.8 1.9 3 1.5.3-.1.6-.3.8-.5l.4.7c2.1 4.1 3 7.8 3 11.3-.1 2.7-.8 5.3-2 7.7h0c-.4.8-.8 1.6-1.4 2.4-.1-2.7-1.8-5.9-4.8-9.5h0zm93.3-31.9c1.1.2 2.3-.4 2.7-1.5.9-2.4 1.8-4.1 2.9-4.9 1.1.8 2 2.5 2.9 4.9.4 1.1 1.5 1.8 2.7 1.5.8 1.7 1.3 3.5 1.3 5.3 0 1-.2 2.1-.6 3-.6-1.2-1.3-2.3-2.2-3.3l-2.4-2.7c-.9-.9-2.4-.9-3.3 0-.9.8-1.7 1.7-2.5 2.7-.9 1.1-1.7 2.2-2.3 3.5-.4-.9-.5-1.8-.6-2.8-.1-1.6.4-3.5 1.4-5.7h0zm7.9 11.6c0 .5-.2 1-.6 1.2h0l-.1.1c-.5.2-1.1.4-1.7.5h-.3c-.5-.1-1-.2-1.4-.5s-.7-.7-.6-1.2c0 0 0-1.1 2-3.5l.4-.5.4.5c1.9 2.3 1.9 3.3 1.9 3.4h0zm-31.9 35.9c.3-5.1 4.5-9.1 9.7-9.2 1.3 0 2.4-1.1 2.4-2.4s-1.1-2.4-2.4-2.4c-3.6 0-7.1 1.3-9.7 3.8v-10.8c0-1.3-1.1-2.4-2.4-2.4s-2.4 1.1-2.4 2.4v10.9c-2.7-2.4-6.1-3.8-9.7-3.8-1.3 0-2.4 1.1-2.4 2.4s1.1 2.4 2.4 2.4c5.1 0 9.3 3.9 9.7 9h-38.9c1.3-22.8 20.8-40.2 43.6-38.9a41.28 41.28 0 0 1 38.9 38.9h-38.8zm81 0c.9-4.5 4.9-7.7 9.5-7.7 1.3 0 2.4-1.1 2.4-2.4s-1.1-2.4-2.4-2.4c-3.6 0-7.1 1.3-9.7 3.8v-10.8c0-1.3-1.1-2.4-2.4-2.4s-2.4 1.1-2.4 2.4v10.9c-2.7-2.4-6.1-3.8-9.7-3.8-1.3 0-2.4 1.1-2.4 2.4s1.1 2.4 2.4 2.4c4.5 0 8.5 3.2 9.5 7.6H573c-.5-10.3-4.5-20.2-11.4-28 16.7-15.5 42.9-14.5 58.4 2.2 6.5 7 10.4 16.2 11 25.8h-20.7zm-135.4-42.4c1 .9 2.5.7 3.3-.2.8-1 .8-2.4-.2-3.3-2.2-2-4.5-6.6-3.3-9.5.4-.8.8-1.5 1.3-2.3 1.9-2.9 4.2-6.4.6-14.6-.5-1.2-1.8-1.8-3-1.4s-1.8 1.8-1.4 3c0 .1.1.2.1.2 2.6 5.8 1.4 7.6-.2 10.1a27.55 27.55 0 0 0-1.7 2.9c-2.3 5.5 1.3 12.2 4.5 15.1zm122.8-101.3a2.335 2.335 0 1 0 3.2-3.4s-.1 0-.1-.1c-2.2-2-4.5-6.6-3.3-9.5.4-.8.8-1.5 1.3-2.3 1.9-2.9 4.2-6.4.6-14.6-.6-1.2-2-1.7-3.1-1.1-1.1.5-1.6 1.9-1.2 3 2.6 5.8 1.4 7.6-.2 10.1a27.55 27.55 0 0 0-1.7 2.9c-2.2 5.4 1.4 12.1 4.5 15zm-157.1 89.7c1 .9 2.5.8 3.3-.2s.8-2.5-.2-3.3c-2.2-2-4.5-6.6-3.3-9.5.4-.8.8-1.5 1.3-2.3 1.9-2.9 4.2-6.4.6-14.6-.5-1.2-1.8-1.8-3-1.4-1.2.5-1.8 1.8-1.4 3 0 .1.1.2.1.2 2.6 5.8 1.4 7.6-.2 10.1a27.55 27.55 0 0 0-1.7 2.9c-2.3 5.6 1.3 12.3 4.5 15.1zm48.8-66.2a2.335 2.335 0 1 0 3.2-3.4s-.1 0-.1-.1c-2.2-2-4.5-6.6-3.3-9.5.4-.8.8-1.5 1.3-2.3 1.9-2.9 4.2-6.4.6-14.6-.5-1.2-1.8-1.8-3-1.4-1.2.5-1.8 1.8-1.4 3 0 .1.1.2.1.2 2.6 5.8 1.4 7.6-.2 10.1a27.55 27.55 0 0 0-1.7 2.9c-2.3 5.5 1.3 12.2 4.5 15.1zm63-39.4a2.27 2.27 0 0 0 3.3-.1 2.27 2.27 0 0 0-.1-3.3s-.1 0-.1-.1c-2.2-2-4.5-6.6-3.3-9.5.4-.8.8-1.5 1.3-2.3 1.9-2.9 4.2-6.4.6-14.6-.5-1.2-1.8-1.8-3-1.4s-1.8 1.8-1.4 3c0 .1.1.2.1.2 2.6 5.8 1.4 7.6-.2 10.1a27.55 27.55 0 0 0-1.7 2.9c-2.2 5.6 1.4 12.3 4.5 15.1z"/><path d="M325.7 157.4c2.2-2.3 3.6-6.4 3.6-11.4 0-7.6-3.3-13.3-7.6-13.3h-98.8c-4.3 0-7.6 5.7-7.6 13.3 0 5 1.4 9.1 3.6 11.4-2.2 2.3-3.6 6.4-3.6 11.4s1.4 9.1 3.6 11.4c-2.2 2.3-3.6 6.4-3.6 11.4 0 7.6 3.3 13.3 7.6 13.3h15c1.5 2.8 3.3 5.5 5.4 7.9-11.1.9-22.3 3.6-22.3 9.2v13l-3.7 11.1 3.6 1.2 3.9-11.7V227c1.5.9 3.5 1.6 6 2.3 5.5 1.5 12.9 2.3 20.6 2.3s15.1-.8 20.6-2.3c2.4-.6 4.4-1.4 6-2.3v8.6l3.9 11.7 3.6-1.2-3.7-11.1v-13c0-5-8.7-7.3-15.6-8.4l6.6-11.3 44.2 42.4c1.4 1.3 3.1 2 5 2h.1a7.17 7.17 0 0 0 7.2-7.2c0-2-.8-3.8-2.2-5.2l-30.5-29.4h25.2c4.3 0 7.6-5.7 7.6-13.3 0-5-1.4-9.1-3.6-11.4 2.2-2.3 3.6-6.4 3.6-11.4-.2-5-1.6-9.1-3.7-11.4zm-102.9 43.7c-1.5 0-3.8-3.7-3.8-9.5s2.3-9.5 3.8-9.5 3.8 3.7 3.8 9.5-2.2 9.5-3.8 9.5zm0-22.8c-1.5 0-3.8-3.7-3.8-9.5s2.3-9.5 3.8-9.5 3.8 3.7 3.8 9.5-2.2 9.5-3.8 9.5zm0-22.8c-1.5 0-3.8-3.7-3.8-9.5s2.3-9.5 3.8-9.5 3.8 3.7 3.8 9.5-2.2 9.5-3.8 9.5zm13.1 45.6h-7.7c1.4-2.4 2.2-5.7 2.2-9.5s-.8-7.1-2.2-9.5h34.1l-26.7 18.4.3.6zm5 1.4l-.4-.8 4.1-2.8 16.2 16.2-2.6 4.4a37.5 37.5 0 0 1-17.3-17zm37 19.5c0 .4-1.2 2-6.9 3.5-5.2 1.4-12.2 2.2-19.7 2.2s-14.4-.8-19.7-2.2c-5.7-1.5-6.9-3.2-6.9-3.5s1-1.8 5.8-3.2c4.2-1.3 10-2.1 16.2-2.4 3.4 3.1 7.3 5.5 11.4 7.3l1.5.7 4.3-7.3c10.6 1.4 14 4.1 14 4.9zm-15.1-10.3l-15-15 20.4-14.1 7.3 7.3-12.7 21.8zm61.6 25.3c1.4 1.3 1.4 3.5.1 4.8-.6.7-1.5 1-2.5 1h-.1c-.9 0-1.7-.3-2.4-1l-44.8-43 3.7-6.2 46 44.4zm-2.8-35.9h-29.1l-13.3-12.8-6.2-6.2h14.2c2 0 3.8-1 4.9-2.8l3.5-5.8c.4-.6 1-.9 1.6-.9h.8a1.97 1.97 0 0 1 1.9 1.9v.4l-.1.4c-.6 3.1 1.4 6.1 4.5 6.7.4.1.7.1 1.1.1h16.3c1.5 0 3.8 3.7 3.8 9.5s-2.3 9.5-3.9 9.5zm0-22.8h-16.3a1.97 1.97 0 0 1-1.9-1.9v-.4l.1-.4c.6-3.1-1.4-6.1-4.5-6.7-.4-.1-.7-.1-1.1-.1h-.8c-2 0-3.8 1-4.9 2.8l-3.5 5.8c-.4.6-1 .9-1.6.9h-58.9c1.4-2.4 2.2-5.7 2.2-9.5s-.8-7.1-2.2-9.5h93.4c1.5 0 3.8 3.7 3.8 9.5s-2.2 9.5-3.8 9.5zm0-22.8h-93.4c1.4-2.4 2.2-5.7 2.2-9.5s-.8-7.1-2.2-9.5h93.4c1.5 0 3.8 3.7 3.8 9.5s-2.2 9.5-3.8 9.5z" stroke-width=".75" class="F G"/><path d="M970 244.2h-42.1c-8.4 0-15.5-6.9-15.4-15.2 0-8.2 6.7-15 15-15.1 1.5 0 2.7-1.4 2.4-2.9-.2-1.1-.3-2.2-.3-3.3 0-9.1 7.8-16.5 17.4-16.5h.1c1.5 0 12.6 0 19.7-7.5.9 1.6 1.9 3.8 2.6 6.4 1.4 5.2 1.1 10.1-.8 14.7-1.1 2.5-3.6 4.2-6.3 4.2h-11.4c-1.3 0-2.4 1-2.5 2.3a2.42 2.42 0 0 0 2.4 2.6H970c8.3 0 15.3 6.6 15.4 14.9-.1 8.5-7 15.4-15.4 15.4m1.8-35.1c3.3-6.2 4.1-13.1 2.2-20.2-1.7-6.4-5-10.7-5.1-10.9l-.3-.4c-.9-1.2-2.7-1.1-3.5.1l-.2.4c-5.3 8.3-17.3 8.1-17.8 8.1h-.1c-12.3 0-22.4 9.6-22.4 21.4 0 .5 0 1 .1 1.5-4.3.6-8.2 2.6-11.3 5.7-3.7 3.7-5.7 8.6-5.8 13.8-.2 11.2 9.2 20.3 20.4 20.3h41.7c11 0 20.2-8.7 20.3-19.7.2-10.4-7.9-19.2-18.2-20.1" fill-rule="evenodd"/><use xlink:href="#N"/><use xlink:href="#O"/><use xlink:href="#N" x="165.5" y="22.1"/><path d="M1062.3 214.1a2.27 2.27 0 1 0 3.2-3.4s-.1 0-.1-.1c-2.2-2-4.5-6.6-3.3-9.5.4-.8.8-1.5 1.3-2.3 1.9-2.9 4.2-6.4.6-14.6-.5-1.2-1.8-1.8-3-1.4-1.2.5-1.8 1.8-1.4 3 0 .1.1.2.1.2 2.6 5.8 1.4 7.6-.2 10.1a27.55 27.55 0 0 0-1.7 2.9c-2.2 5.5 1.4 12.2 4.5 15.1z"/></g><path d="M1076 271.4h44.5c12.8 0 22.3-9.6 22.3-22.7 0-7.3-3.2-14.3-9.3-18.4-2.7-1.8-5.8-3.1-9.6-3.6-5.1-9.6-15-15.7-26.1-14.7-10.5.9-18.9 7.9-22.4 17.9-8.8.6-15.9 5.8-18.3 14.5-3.7 13.2 5 27 18.9 27z" fill="none" class="F G H"/><use xlink:href="#O" x="156.1" y="-27.1" class="I"/><defs ><path id="B" d="M19.8 243.1c-1.8 0-9.5-.3-14.5-5.3-5.5-5.5-5.3-14.5-5.3-15 0-1.3 1-2.3 2.5-2.5.5 0 9.3-.3 15 5.3 5.5 5.5 5.3 14.5 5.3 15 0 1.3-1 2.3-2.5 2.5h-.5zm.2-2.5h0zm0 0h0zm-15-15c.3 2.5 1.3 6.3 3.8 8.8s6.3 3.3 8.8 3.8c-.3-2.5-1.3-6.3-3.8-8.8s-6.3-3.6-8.8-3.8z"/><path id="C" d="M19.8 218.3c-1.8 0-9.5-.3-14.5-5.3-5.5-5.5-5.3-14.5-5.3-15 0-1.3 1-2.3 2.5-2.5.5 0 9.3-.3 15 5.3 5.5 5.5 5.3 14.5 5.3 15 0 1.3-1 2.3-2.5 2.5h-.5zm.2-2.5h0zm0 0h0zm-15-15c.3 2.5 1.3 6.3 3.8 8.8s6.3 3.3 8.8 3.8c-.3-2.5-1.3-6.3-3.8-8.8-2.5-2.8-6.3-3.5-8.8-3.8z"/><path id="D" d="M19.8 193.3c-1.8 0-9.5-.3-14.5-5.3-5.5-5.5-5.3-14.5-5.3-15 0-1.3 1-2.3 2.5-2.5.5 0 9.3-.3 15 5.3 5.5 5.5 5.3 14.5 5.3 15 0 1.3-1 2.3-2.5 2.5h-.5zm.2-2.5h0zm0 0h0zm-15-15c.3 2.5 1.3 6.3 3.8 8.8s6.3 3.3 8.8 3.8c-.3-2.5-1.3-6.3-3.8-8.8s-6.3-3.3-8.8-3.8z"/><path id="E" d="M36.8 243.1h-.5c-1.3 0-2.3-1-2.5-2.5 0-.5-.3-9.3 5.3-15 5.5-5.5 14.5-5.3 15-5.3 1.3 0 2.3 1 2.5 2.5 0 .5.3 9.3-5.3 15-5 5-12.8 5.3-14.5 5.3zm14.7-17.5c-2.5.3-6.3 1.3-8.8 3.8s-3.5 6.3-3.8 8.8c2.5-.3 6.3-1.3 8.8-3.8 2.6-2.6 3.3-6.3 3.8-8.8z"/><path id="F" d="M36.8 218.3h-.5c-1.3 0-2.3-1-2.5-2.5 0-.5-.3-9.3 5.3-15 5.5-5.5 14.5-5.3 15-5.3 1.3 0 2.3 1 2.5 2.5 0 .5.3 9.3-5.3 15-5 5.1-12.8 5.3-14.5 5.3zm14.7-17.5c-2.5.3-6.3 1.3-8.8 3.8s-3.5 6.3-3.8 8.8c2.5-.3 6.3-1.3 8.8-3.8 2.6-2.8 3.3-6.3 3.8-8.8z"/><path id="G" d="M27.8 281.1c-1.5 0-2.5-1-2.5-2.5v-130c0-1.5 1-2.5 2.5-2.5s2.5 1 2.5 2.5v130c0 1.5-1 2.5-2.5 2.5z"/><path id="H" d="M91.8 243.1c-1.8 0-9.5-.3-14.5-5.3-5.5-5.5-5.3-14.5-5.3-15 0-1.3 1-2.3 2.5-2.5.5 0 9.3-.3 15 5.3 5.5 5.5 5.3 14.5 5.3 15 0 1.3-1 2.3-2.5 2.5h-.5zm.2-2.5h0zm0 0h0zm-15-15c.3 2.5 1.3 6.3 3.8 8.8s6.3 3.3 8.8 3.8c-.3-2.5-1.3-6.3-3.8-8.8-2.5-2.6-6.3-3.6-8.8-3.8z"/><path id="I" d="M108.8 243.1h-.5c-1.3 0-2.3-1-2.5-2.5 0-.5-.3-9.3 5.3-15 5.5-5.5 14.5-5.3 15-5.3 1.3 0 2.3 1 2.5 2.5 0 .5.3 9.3-5.3 15-5 5-12.8 5.3-14.5 5.3zm14.7-17.5c-2.5.3-6.3 1.3-8.8 3.8s-3.5 6.3-3.8 8.8c2.5-.3 6.3-1.3 8.8-3.8s3.3-6.3 3.8-8.8z"/><path id="J" d="M733.3 249.7a7.92 7.92 0 0 1-7.9-7.9c0-1.5 1.2-2.6 2.6-2.6 1.5 0 2.6 1.2 2.6 2.6a2.65 2.65 0 0 0 2.6 2.6c1.5 0 2.6 1.2 2.6 2.6.1 1.5-1.1 2.7-2.5 2.7z"/><path id="K" d="M806.8 149.9c-1.5 0-2.6-1.2-2.6-2.6 0-1.5 1.2-2.6 2.6-2.6a2.65 2.65 0 0 0 2.6-2.6c0-1.5 1.2-2.6 2.6-2.6 1.5 0 2.6 1.2 2.6 2.6.1 4.3-3.5 7.8-7.8 7.8z"/><path id="L" d="M812 218.2c-1.5 0-2.6-1.2-2.6-2.6v-42c0-1.5 1.2-2.6 2.6-2.6 1.5 0 2.6 1.2 2.6 2.6v42c.1 1.4-1.1 2.6-2.6 2.6z"/><path id="M" d="M806.8 134.2h-36.2c-1.5 0-2.6-1.2-2.6-2.6 0-1.5 1.2-2.6 2.6-2.6h36.2c1.5 0 2.6 1.2 2.6 2.6a2.65 2.65 0 0 1-2.6 2.6z"/><path id="N" d="M936.8 168.3a2.27 2.27 0 1 0 3.2-3.4s-.1 0-.1-.1c-2.2-2-4.5-6.6-3.3-9.5.4-.8.8-1.5 1.3-2.3 1.9-2.9 4.2-6.4.6-14.6-.5-1.2-1.8-1.8-3-1.4-1.2.5-1.8 1.8-1.4 3 0 .1.1.2.1.2 2.6 5.8 1.4 7.6-.2 10.1a27.55 27.55 0 0 0-1.7 2.9c-2.3 5.6 1.3 12.3 4.5 15.1z"/><path id="O" d="M986.9 159.1c-.9-.9-2.4-1-3.3-.1s-1 2.4-.1 3.3l.1.1c2.1 2.1 4.2 6.9 2.8 9.7-.4.8-.9 1.5-1.4 2.2-2 2.8-4.5 6.2-1.4 14.5.4 1.2 1.7 1.9 3 1.5s1.9-1.7 1.5-3c0-.1-.1-.2-.1-.2-2.2-5.9-1-7.7.8-10.1.7-.9 1.3-1.8 1.8-2.8 2.5-5.2-.7-12.1-3.7-15.1z"/></defs></svg>