<svg xmlns="http://www.w3.org/2000/svg" viewBox="0 0 1118 674" xmlns:v="https://vecta.io/nano"><style><![CDATA[.M{font-size:18px}.N{font-family:IBMPlexSerif-Text}.O{fill:#5c6a7d}.P{fill:#253854}.Q{fill:#1c2a40}.R{font-family:IBMPlexSerif-SemiBold}.S{fill:#37485e}.T{enable-background:new}]]></style><path d="M180 355.7c1.8-6.2-4.7-4.6-4.7-4.6 2-5.4-6.7-3.9-11.4 3.1s-12.9 14.9-25.8 16.4-21.4 4.6-28.8-5.8c-7.6-14.7-17.2-17.1-20.1-17.5l-.1-.3c.2 0 2.5-1.8 1.2-3.6s-3.6-.2-4.2-.2c-.6-.1-.6-2.2-2.8-2.1s-1.4 2.2-2.1 2.4-4.2-1-5.6 1.4c-1.5 2.4 1.4 5 1.5 5.3.3 1.1-.7 3-.7 3-4 3.2-4.7 8.4-4.7 8.4 3.4-1.7 6-2 6.1-2-2.4 4.9-.8 7.1.7 7 1.7-.2 2-1.5 1.9-3l.2.3c-.1 2.5-1.4 10.2 0 18.5 1.5 8.6 5.8 18 10.9 27.4 3.8 7.1 9.4 14.5 14.7 19.2 5.2 4.6 10.2 6.4 11 6.6.5.1 1.1.2 1.7.2-.7 2.1-2.5 7.7-3.1 9.8-.9 2.6-7.4 5.2-10.3 5.7s-2.7.5-4.1 1-2.2 1.2-.7 1.2 6-.4 6.9-.4-5.3 3-4.1 3.4 5-2.1 10.5-4.1c5.5-2.1 7.4.7 9.3 1.5 1.7.8 3.4.5 2.1-.7-1.4-1.2-2.4-2.2-2.4-2.2 1.4-1.4 4.3-1.7 6.5-1s6.2 2.2 5.3.3-6-1.4-6-3.6 1.4-8.7 2.4-10.3c.5-.8 1.4-1.3 2.3-1.7 2.3-.5 4.6-1.2 6.8-2.2 7.3-1.7 11.7-6.2 19.1-18 2.6-4.2 8.5-12.4 12.3-19 2.1-3.7 3.5-8.1 3.5-8.1 9.3-3.9 3.1-10 3.1-10 8.6-5.9.8-9.3.8-9.3 8.3-.8 3.1-6.9 3.1-6.9 4.2-4-2.2-5.5-2.2-5.5zm-57.5 91.4c-2.9 2.2-3.9.5-2.9-2.6.8-2.6 3.2-7.2 4-8.7 1.1 0 2.2-.1 3.3-.2-.1 2.6-.7 8.7-4.4 11.5z" class="O"/><path d="M186.8 316.4c-2.5-2.4-4.8-5-7-7.7a27.91 27.91 0 0 1 2.2-21.9c2-1.5 4.4 0 8.3 3.9a13.88 13.88 0 0 1 2-7.7c2-3.3 11.8 7.7 19.5 17.7 5.3-2.3 10.9-3.9 16.6-4.8 59-11.2 118.7-17.8 178.8-19.7 27.3-2.9 54.8 4.2 77.2 20.2 1.5 1.1 17.3 17.1 26.3 15.8s13.6-2.4 7.4 1.5c-7.5 3.6-16.3 3.6-23.8 0 3 8.1 5.1 16.5 6.3 25 2.4 33.3-17.9 48.4-8.1 58.5 13.3 12.9-3.1 19.3-2.2 31.3.9 12.1 0 13.8-2.4 13.4s-5.9-1.1-8.5 7c-.7 2.1-1.7 4.1-3.1 5.9h-15.1a3.33 3.33 0 0 1-3.3-3.3c-.3-.6-.3-1.3 0-2 7-8.2 11.9-18.1 14.2-28.7 1.1-13.2-5.4-25.8-16.6-32.6h-3.1c1.9 5.9.3 12.4-4.2 16.7-3.8 11.2-5.6 23-5.5 34.8 0 3.3-6.1-1.5-6.6 2.4-.8 4.3-2 8.5-3.7 12.5h-15.1c-1.6 0-2.8-1.3-2.8-2.8-.2-.6-.2-1.2 0-1.8 4.4-5.4 8-11.5 10.5-18 3.2-11.1 1.5-23.1-4.8-32.9l-3.7-3.3c-3.1.8-6.1 1.9-9 3.1-3.7 1.1-8.1 2.2-12.5 3.9-27.5 7.2-56.6 5.3-82.9-5.3a200.74 200.74 0 0 0-3.3 26.7c1.3 6.7 1.3 13.6 0 20.4-1.8 1.5-3.9 0-4.8 0a12.75 12.75 0 0 1 0 3.9c-.6 1.9-1.6 3.7-2.8 5.3-10.8 1-17.1 1-18.9 0-2.6-1.5.2-3 1.4-4.4 3.5-3.4 6.1-7.8 7.4-12.5a65.69 65.69 0 0 0-7.4-39.4 373.17 373.17 0 0 0-11.4 38.3c-.2 3-1.2 5.9-2.8 8.3h-2.2c-.4 0-2.4 1.8-2.2 5.3-.4 2.3-1.2 4.4-2.4 6.4h-16c-2.4 0-6.2-1.2-6.2-3.6-.3-.8 1.5-2.6 1.8-3.4 4.3-4.9 7.8-10.5 10.1-16.7 2-13.3 1.5-26.9-1.5-40.1-21.9 0-30.6-12.5-43.8-13.6-7.4 0-17.5 0-24.9-1.3-19.3-3.9-32.8-6.1-35.7-13.6-1.1-3.5-8.5-3.9-7.4-3.9-2.3-13.1-2.3-19.7 0-19.7 13.1 2.7 26.7-1.7 35.7-11.6 3.5-4.2 7.5-8.3 12-11.9z" class="S"/><g fill-rule="evenodd"><path d="M733.7 359.4v20.9c0 2.1-1.1 6.8-1.6 7.8-.5 1.6-3.2 6.2-5.8 10.4-3.2 3.7-1.1 6.3-.5 8.9 1 2.6 1.5 6.8 1.5 9.4l-.1 29.2c0 1.6 0 3.2-1.6 3.1-1.1 0-1.4 2.1-1.1 6.2h-14.2c.5-2.3 1-3.9 1.3-4.8 1-2.3 2.5-3.6 3.4-4.1 1.6-.5.5-2.1.5-2.1-.4-8.8-1.4-17.7-2.4-26.5 0 0 0-3.7-2.6-5.7-2.6-2.1-7.3-5.2-7.3-5.2s-1.6-1.5-2.6-.5c-1 .5-1 1.6-1 2.6-.5 1-3.7 19.8-3.7 19.8l-3.7 15.1c-.5 1.5-.5 1.5-2.1 1.5-1.6.5-2.6 0-3.2 1.6-.5 1.6-1 4.2-1 4.2v4.1h-12.2c-.2-1.4-.1-2.8.4-4.1.7-2 4.5-4.7 5-5.2v-1.6c1.1-5.8 2.1-12 3.7-18.2 0-6.2-.5-13.1 0-19.8.5-6.8 1.1-10.9-6.8-15.1-6.8-3.1-9.5 0-14.7 1-5.8 1-21.6 5.2-46.3 5.1-24.7 0-27.3-3.2-32-2.2-3.2 1-5.8 5.2-9 8.3-3.2 3.6-3.2 6.8-3.2 8.3 0 1.6 2.1 12.5 2.6 14.6 1.6 4.7 2.6 17.7 1.6 18.2-1.1.5-4.2 0-4.2 2.1v8.3h-14.2c0-1.6.2-3 .5-4.1 1.2-3.8 3.8-8.1 4.3-8.9 1-2.1.5-2.6.5-3.1 0 0 0-6.3-.5-8.3 0-1.6-2.1-10.9-2.6-13-1.1-2.1-2.6-7.8-4.7-10.5-2.6-2-5.3-3.1-5.3-3.1-1.1 9.9.5 38.6.5 41.2 0 2.1-2.1 3.1-3.2 3.7-1.6.5-1.6 3.6-2.1 6.2h-14.2c-.3-2.2-.3-4 0-5.2.5-1.9 1.6-4.1 1.6-4.1s4.6-7 4.6-7.5c.5-.5.5-2.1.6-2.6-.5 0-3.5-25.3-3.5-26.4s-1-8.3-3.1-11c-2.1-2.6-6.3-4.2-8.4-5.2-1.6-1.1-10-6.3-12.1-9.4-2.6-3.1-7.3-9.9-10.5-16.7-2.6-6.3-7.9-18.8-9.4-25-1.6-6.3-4.7-17.7-4.7-21.4-.5-3.7-1.5-14.1-1.5-16.2s-1-5.2-2.6-6.2c-2.1-1.1-3.5-1.7-6.3-1s-20.1 6.1-23.7 6.1-4.8-2.8-6.4-3.3-4.2-.7-5.5-1.9-1.8-3.2-1.8-4.7c0-1 1.1-6.3 2.1-8.3 2.6-4.2 8.4-12 11.1-14.6 2.1-3.1 11.1-13 13.7-15.1 2.7-2.1 7.6-6.4 12-8.9s5.9-2.5 10.1-3.6c4.2-1 5.7-1.2 5.7-1.2s.1-1.7 2.7-5 4.2-4.7 6.3-6.2c2.1-1.6 4.8-2.6 6.3-1.5 1.6 1.6 1.4 4 .3 6.6s-1.9 5.3-1.9 5.3 15.2 8.9 18.9 11.5c12.1 7.8 20.5 19.8 27.3 20.9s10.5.6 15.2.6l106.7-4.5c9.5 0 18.4-.5 23.6 1.1 5.3 2.1 22.1 7.8 31 19.8 8.9 11.5 14.1 24 13.6 33.9-1 9.9-3.7 13-4.2 15.1s-3.2 5.2-3.2 11.5l-.7 8.6z" class="P"/><path d="M630.5 116c2.2 0-.7 2.4 4 7.7 2.2 2.4 8.3 6.2 12.4 9.3 3.8 2.9 5.5 5.2 6.6 7.1 1.3 2.2-.6 6.3 0 6.6.9 0 1.5-.6 3.9-2.2.8-.8 6.5-4.2 12.3-4.8 6.1-.6 12.2 1.7 12.6 2.5 1 1-2.1 7.7-6.7 12-2.7 2.5-7.8 3.1-7.8 3.9 0 1.6.8 2.4 4.8 2.4 3 .6 15.5 2.3 25.1 3.2 2.3.2 4.5.4 6.7.5.8 0 1.5.1 2.1.1.3 0 .7.1 1 .1h0c2.2.1 4.1.2 5.8.2 22.6.9 70.3 3.7 86.9 5.5l52.9 6.2c16.5 1.8 25.2 1.8 40.8 1.9 14.8.1 52.1-1.5 63.4-4.1 16.5-1.7 37.3-2.4 46.9-3.3 9.5-.8 25.2-1.6 32.1 2.7 7.8 4.3 18.2 11.8 22.5 19.6 4.3 8.6 8.2 22.4 9.2 27.2.5 2.8 2.8 17.3 3.5 32.6.8 17.2.1 38.2 1.6 46.9.1.5 6.7 6.7 10.6 14.3 2 3.9 4.7 17.3 4.2 27.3-.7 11.9-4.4 26.7-5.4 23.3s-6.5-10.3-11.3-19.9c-3.9-7.8-7.3-18.5-7.6-20.6-.5-3.2-.9-7.3 0-12 .9-4.6 3.1-9.7 2.7-11.5-.9-4.3-2.6-21.6-2.5-26 0-4.3-2.4-41.5-3.3-45.8-.9-5.2-6.9-21.1-4.3-13.7s-.1 26.6-.1 32.7l-.1 31.1c-.9 6.1.8 19.9-2.7 25.9-3.5 6.9-5.2 9.5-5.2 9.5-1.8 2.9-2.3 4.3-1.8 4.3.9 0 11.2 11.3 13.9 13.9 1.7 2.6 4.3 7 2.5 13-2.6 6-6.2 38-6.3 44.9 0 6.9.8 30.3.8 32 0 2.6.9 4.3.8 6-.9.9-7.2 8-7.7 13-.2 2.4.1 7.1.9 14l-35.8-.1c1.1-4.7 2.2-7.9 3.1-9.6 2.4-4.5 5.9-7.2 7.4-8.6 2.7-3.4 6.2-21.6 6.2-37.1.1-14.7-5.1-36.3-16.3-50.2-16.7 30.2-21.1 57.9-20.3 76-7 .8-10.4 5.1-13.1 11.2-.4.7-1.2 3.6-2.3 8.7l-31.2-.1c1.1-3.9 2.3-6.8 3.5-8.6 10.4-15.9 19.1-25.5 20.6-28.5 2.6-5.1 5.3-16.4 5.3-20.7v-.3c0-5.4-.1-17.9-6-18.7-1.8-.4-1.3 8.6-4.8 8.6s-2.8-6.8-6.3-6.4c-3.4.5-2 5.7-5.7 5.7-4.5-.9-2.2-5.6-5.3-6.3-1.3-.3-2.7-.3-3.7.6-1.6 1.2-.8 3.4-4.3 3.4s-4.5-5.6-4.5-7c-10.4-6.1-16.6-11.7-18.3-14.3-2.6-2.6-9.6-10.4-9.6-10.4l-29.5 1.6c-5.2 0-18.2-.9-23.4-.9-6.1 0-12.2.8-19.1.8-6.1 0-15.7-1.8-19.1-2.7-2.6-.9-3.5-.9-6.1 0-3.5.9-9.6 14.6-9.7 19v9.5c.9 1.7 5.2 11.3 5.2 13.9s-4.3 5.2-6.1 8.6c-1.7 4.3-7 12.1-6.2 21.6 0 8.7 1.7 12.1 1.7 17.3 0 2.6 1.3 7.8-3.1 7.8-1.6.3-4.7 3.1-6.6 6.9-1 2.1-1.7 5.2-2.1 9.5l-30-.1c1.2-5.2 3-8.6 5.3-10.3 4.3-2.6 6.1-2.6 7-6 1.7-4.3 4.4-16.4 5.3-19.9.9-4.3 1.8-20.8 1.8-24.2 0-4.3 0-11.3-.8-15.6-1.7-3.5-3.5-13.9-3.5-13.9-1.8 9.5-7.1 26.8-8.8 27.6-2.6 1.7-4.4 3.4-5.3 6-.8 1.7-2.6 16.4-4.4 21.6-.9 4.3-1.8 20.7-2.7 22.5-1.7.8-5.2.8-6.9 2.6-1.7 1.2-2.9 4.3-3.5 9.5l-28.7-.1c1.3-3.4 2.6-5.7 3.8-6.9 4.2-4.2 8.4-6.5 9.3-7.7.8-2.6 7-13.8 7.8-17.3.9-3.5 8-28.5 8-32s-1.7-6.9-2.6-11.2c0-4.3-.8-17.9-.8-23.2v-.4c0-4.1-.1-5.8-4.4-5.8h-.6c-3.4 0-8.2-.1-10.7-.9-2.6-1.7-7-6.1-9.5-9.5-3.5-6.9-6-11.3-6.9-13.8-.9-3.5-6.9-20.8-9.5-27.7-3.4-6.1-12-21.7-16.4-27.7-4.3-5.1-11.9-13.7-16.3-18.1h0c-.1 0-.1-.1-.2-.2-4-4.8-3-3.8-7-7.8s-8.8-4.9-13.6-6.5c-4.8-.8-12.9.8-19.3-.1-7.3-1.6-13.7-2.5-17.7-4.1S591 228.8 587 228c-4.1-.8-13.7.7-15.3-.9s-2.4-4-4-6.4c-1.6-3.2-6.4-11.3-3.9-14.5 4-4.8 29.1-27.2 32.3-30.4 2.5-3.2 16.2-16.8 19.4-19.2 2.4-2.4 15-8.8 12.1-8.8s-12.1-3.4-16.4-9.1c-5.3-6.9-3-16-1.8-16s1.5 6.4 6.2 10.3c2.7 2.3 10.8 4.3 13.7 4.3 4.6 0 3.6.5 5.1.5s-2.4-1-4.7-5.9c-2.8-5.9-1.8-15.9.8-15.9z" class="Q"/></g><path d="M30.1 483.4h245.5v115.2H30.1z" opacity=".1" class="O T"/><text transform="translate(40.034 511.225)" class="M O R">Chicken:</text><text transform="translate(40.034 534.225)" class="M N O">used as an umbrella term</text><text transform="translate(40.034 557.225)" class="M N O">for poultry: chicken, duck,</text><text transform="translate(40.034 580.325)" font-size="19.184" class="N O">turkey and geese</text><text transform="translate(816.022 56.225)" class="M Q R">Cattle:</text><text transform="translate(816.022 79.225)" class="M N Q">cattle and cow of all ages,</text><text transform="translate(816.022 102.225)" class="M N Q">bred for meat production,</text><text transform="translate(816.022 125.325)" class="M N Q">excluded are dairy cows</text><path d="M803.6 31.5h241.6v111H803.6z" opacity=".1" class="O T"/><text transform="translate(528.07 520.885)" class="M P R">Sheep:</text><text transform="translate(528.07 543.885)" class="M N P">includes goats and sheep</text><text transform="translate(528.07 566.885)" class="M N P">of all ages,</text><text transform="translate(528.07 589.985)" class="M N P">as these are very often</text><text transform="translate(528.07 612.985)" class="M N P">combined in the statistics</text><path d="M516.4 493.9h241.8v135H516.4zM226.5 179.1h175.4v65H226.5z" opacity=".1" class="O T"/><text><tspan x="237.109" y="206.039" class="M R S">Pig:</tspan><tspan y="227.639" x="237.109" class="M N S">representing pork</tspan></text></svg>