<?xml version="1.0" encoding="UTF-8"?>
<svg width="1226px" height="634px" viewBox="0 0 1226 634" version="1.1" xmlns="http://www.w3.org/2000/svg" xmlns:xlink="http://www.w3.org/1999/xlink">
    <title>Artboard</title>
    <g id="Artboard" stroke="none" stroke-width="1" fill="none" fill-rule="evenodd">
        <g id="Group-4" transform="translate(31.000000, 124.000000)">
            <rect id="Rectangle" fill="#00C1FF" fill-rule="nonzero" opacity="0.1" x="0" y="0" width="523" height="110"></rect>
            <g id="Make-your-own-rules:-2" transform="translate(12.000000, 11.000000)" fill="#1C2B40" font-family="IBMPlexSerif-Bold, IBM Plex Serif" font-size="17" font-weight="bold">
                <text id="Make-your-own-rules:">
                    <tspan x="0" y="17">Make your own rules: </tspan>
                    <tspan x="0" y="39" font-family="IBMPlexSerif, IBM Plex Serif" font-weight="normal">e.g. a "once a day/week rule", changing from larger to smaller </tspan>
                    <tspan x="0" y="61" font-family="IBMPlexSerif, IBM Plex Serif" font-weight="normal">quantities... And take the pressure off: every reduction is </tspan>
                    <tspan x="0" y="83" font-family="IBMPlexSerif, IBM Plex Serif" font-weight="normal">great!</tspan>
                </text>
            </g>
        </g>
        <g id="Group" transform="translate(672.000000, 391.000000)">
            <rect id="Rectangle" fill="#00C1FF" fill-rule="nonzero" opacity="0.1" x="0" y="0" width="523" height="154"></rect>
            <text id="If-you-eat-meat,-the" font-family="IBMPlexSerif-Bold, IBM Plex Serif" font-size="17" font-weight="bold" fill="#1C2B40">
                <tspan x="12" y="28">If you eat meat,</tspan>
                <tspan x="140.163" y="28" font-family="IBMPlexSerif-Medium, IBM Plex Serif" font-weight="400"> </tspan>
                <tspan x="144.107" y="28" font-family="IBMPlexSerif, IBM Plex Serif" font-weight="normal">then it should be organic and from species-</tspan>
                <tspan x="12" y="50" font-family="IBMPlexSerif, IBM Plex Serif" font-weight="normal">appropriate, regional production, preferably from the direct </tspan>
                <tspan x="12" y="72" font-family="IBMPlexSerif, IBM Plex Serif" font-weight="normal">marketer. Find out whether there are suppliers of organic </tspan>
                <tspan x="12" y="94" font-family="IBMPlexSerif, IBM Plex Serif" font-weight="normal">meat in your region. Make sure the animal feed is not coming </tspan>
                <tspan x="12" y="116" font-family="IBMPlexSerif, IBM Plex Serif" font-weight="normal">from overseas. And you just learned which animals cause the </tspan>
                <tspan x="12" y="138" font-family="IBMPlexSerif, IBM Plex Serif" font-weight="normal">least CO2 equivalents!</tspan>
            </text>
        </g>
        <g id="Group-3" transform="translate(672.000000, 124.000000)">
            <rect id="Rectangle" fill="#00C1FF" fill-rule="nonzero" opacity="0.1" x="0" y="0" width="523" height="110"></rect>
            <text id="If-you-fear-protein" font-family="IBMPlexSerif-Bold, IBM Plex Serif" font-size="17" font-weight="bold" fill="#1C2B40">
                <tspan x="12" y="28">If you fear protein deficiency</tspan>
                <tspan x="253.706" y="28" font-family="IBMPlexSerif-Medium, IBM Plex Serif" font-weight="400"> </tspan>
                <tspan x="257.65" y="28" font-family="IBMPlexSerif, IBM Plex Serif" font-weight="normal">by eating less meat, don ́t </tspan>
                <tspan x="12" y="50" font-family="IBMPlexSerif, IBM Plex Serif" font-weight="normal">worry! You can still follow a healthy, balanced diet: </tspan>
                <tspan x="12" y="72" font-family="IBMPlexSerif, IBM Plex Serif" font-weight="normal">Legumes, cereals and dairy products are high-quality sources </tspan>
                <tspan x="12" y="94" font-family="IBMPlexSerif, IBM Plex Serif" font-weight="normal">of protein.</tspan>
            </text>
        </g>
        <g id="Group-2" transform="translate(31.000000, 391.000000)">
            <rect id="Rectangle" fill="#00C1FF" fill-rule="nonzero" opacity="0.1" x="0" y="0" width="523" height="198"></rect>
            <text id="If-you-miss-the-tast" font-family="IBMPlexSerif-Bold, IBM Plex Serif" font-size="17" font-weight="bold" fill="#1C2B40">
                <tspan x="12" y="28">If you miss the taste of meat,</tspan>
                <tspan x="249.915" y="28" font-family="IBMPlexSerif-Medium, IBM Plex Serif" font-weight="400"> </tspan>
                <tspan x="253.859" y="28" font-family="IBMPlexSerif, IBM Plex Serif" font-weight="normal">you are well served with </tspan>
                <tspan x="12" y="50" font-family="IBMPlexSerif, IBM Plex Serif" font-weight="normal">strongly spiced dishes like curries. Also "as if" versions, for </tspan>
                <tspan x="12" y="72" font-family="IBMPlexSerif, IBM Plex Serif" font-weight="normal">example noodles with soy Bolognese sauce or sliced meat with </tspan>
                <tspan x="12" y="94" font-family="IBMPlexSerif, IBM Plex Serif" font-weight="normal">seitan, are a good alternative for some people.</tspan>
                <tspan x="12" y="116" font-family="IBMPlexSerif, IBM Plex Serif" font-weight="normal"></tspan>
                <tspan x="12" y="138" font-family="IBMPlexSerif, IBM Plex Serif" font-weight="normal">Others, e.g. celebrity chef Jamie Oliver prefer to cook without </tspan>
                <tspan x="12" y="160" font-family="IBMPlexSerif, IBM Plex Serif" font-weight="normal">trying to replace meat - because meat alternatives such as tofu </tspan>
                <tspan x="12" y="182" font-family="IBMPlexSerif, IBM Plex Serif" font-weight="normal">etc. are often not well received by meat eaters.</tspan>
            </text>
        </g>
        <g id="Group-5" transform="translate(232.000000, 49.000000)">
            <g id="Group-2" transform="translate(0.000000, 20.132826)">
                <path d="M0.292168528,8.99641031 C1.1451471,6.46798484 4.40136376,3.11274342 10.8055061,1.52005486 C20.4924378,-0.889052295 35.4801343,-0.495794705 45.1737144,3.13895529 C61.2758322,9.17668048 58.5257375,27.464899 53.9483608,30.9638679 C49.3709842,34.4628367 43.7978296,35.3920233 36.1278449,33.3474974 C29.9654418,31.7048352 24.6348674,27.4094583 18.8209044,24.2734499 C13.1858315,21.2339334 6.45194388,20.1393996 2.95610351,17.4070011 C-0.114881225,15.0066758 -0.354770427,10.9140868 0.292168528,8.99641031 Z" id="Path-3" fill="#1C2B40"></path>
                <path d="M6.57323826,8.93712367 C7.87658838,10.6846025 14.8307012,11.5636596 20.6990755,13.4509949 C25.8889519,15.1201175 30.9538386,21.2055108 35.9554996,22.7176586 C41.7675808,24.47482 46.8895111,23.6884932 49.7059945,20.790211 C52.5224778,17.8919288 52.8769597,13.0754627 48.9204279,9.44208198 C44.9638961,5.80870124 39.8375685,5.2478287 35.067937,4.59453032 C30.2983054,3.94123194 2.77780776,3.84836483 6.57323826,8.93712367 Z" id="Path-2" stroke="#FFFFFF" stroke-width="1.6734375" fill="#1C2B40"></path>
                <ellipse id="Oval" stroke="#FFFFFF" stroke-width="1.6734375" cx="42.12605" cy="15.0641886" rx="3.6815625" ry="3.0121875"></ellipse>
            </g>
            <g id="Arrow" transform="translate(71.735953, 16.143306) rotate(-105.000000) translate(-71.735953, -16.143306) translate(61.735953, -5.356694)" fill="#1C2B40" fill-rule="nonzero">
                <path d="M1.0603125,40.4232 C0.8653125,40.4232 0.6810375,40.305225 0.6059625,40.1126625 C0.507975,39.8616 0.6322875,39.5793375 0.8828625,39.48135 C9.078225,36.2867625 14.637675,31.3947 17.406675,24.94215 C21.8853375,14.50575 14.1272521,1.04980332 14.0819146,0.939628322 C13.9800271,0.690515822 14.0994646,0.405815822 14.3480896,0.303928322 C14.5981771,0.201553322 14.8823896,0.321478322 14.9837896,0.570103322 C15.0305896,0.684178322 22.9398,14.5189125 18.3022125,25.3267875 C15.4269375,32.02845 9.6851625,37.0965 1.237275,40.3895625 C1.178775,40.412475 1.1193,40.4232 1.0603125,40.4232 Z" id="Path"></path>
                <path d="M8.0510625,42.7749 C8.0023125,42.7749 7.953075,42.7675875 7.9048125,42.752475 L0.420225,40.400775 C0.266175,40.352025 0.1457625,40.2306375 0.09945,40.0756125 C0.0531375,39.921075 0.0862875,39.7528875 0.1886625,39.6280875 L5.6301375,32.9464125 C5.7997875,32.737275 6.1069125,32.7065625 6.31605,32.8762125 C6.5247,33.04635 6.5563875,33.353475 6.38625,33.562125 L1.3986375,39.6861 L8.1973125,41.822325 C8.454225,41.90325 8.5970625,42.1767375 8.5161375,42.43365 C8.450325,42.6418125 8.25825,42.7749 8.0510625,42.7749 Z" id="Path"></path>
            </g>
            <g id="Group-2" transform="translate(85.875000, 27.257826)">
                <path d="M0.17186384,5.29200607 C0.673615943,3.80469697 2.58903751,1.83102554 6.35618007,0.894149919 C12.0543752,-0.522971938 20.8706673,-0.291643944 26.5727732,1.84644429 C36.0446072,5.39804734 34.4269044,16.1558229 31.7343299,18.2140399 C29.0417554,20.2722569 25.7634292,20.8188373 21.2516735,19.6161749 C17.6267305,18.6499031 14.4910985,16.1232108 11.0711202,14.2784999 C7.75637147,12.4905491 3.79526111,11.8467057 1.73888442,10.2394124 C-0.0675771914,8.82745636 -0.208688486,6.42005104 0.17186384,5.29200607 Z" id="Path-3" fill="#1C2B40"></path>
                <path d="M3.86661074,5.25713157 C4.63328728,6.28506029 8.72394187,6.80215272 12.1759268,7.91234992 C15.2287952,8.89418675 18.2081403,12.4738299 21.1502939,13.3633286 C24.5691652,14.3969529 27.5820654,13.9344078 29.2388203,12.2295359 C30.8955752,10.524664 31.1040939,7.69144865 28.7767223,5.55416587 C26.4493506,3.41688308 23.4338638,3.08695806 20.6281982,2.7026649 C17.8225326,2.31837173 1.63400456,2.26374402 3.86661074,5.25713157 Z" id="Path-2" stroke="#FFFFFF" stroke-width="0.984375" fill="#1C2B40"></path>
                <ellipse id="Oval" stroke="#FFFFFF" stroke-width="0.984375" cx="24.7800294" cy="8.86128742" rx="2.165625" ry="1.771875"></ellipse>
            </g>
        </g>
        <g id="Group" transform="translate(905.000000, 322.000000)">
            <polygon id="Rectangle" stroke="#1C2B40" stroke-width="1.93101266" fill="#1C2B40" stroke-linejoin="round" points="3.94379719 35.4018987 42.9951244 35.4018987 46.9879747 50.85 0 50.85"></polygon>
            <path d="M23.4939873,40.8502682 C23.8733758,40.8502682 25.0849288,39.9354591 25.4376142,39.6545349 C36.5219227,30.8255621 41.1949367,23.9549005 41.1949367,17.6549729 C41.1949367,7.9044006 33.2699517,0 23.4939873,0 C13.7180229,0 5.79303797,7.9044006 5.79303797,17.6549729 C5.79303797,23.9651119 10.5482085,30.9422771 21.6679729,39.7896665 C22.0032193,40.0564038 23.1145989,40.8502682 23.4939873,40.8502682 Z" id="Oval" stroke="#FFFFFF" stroke-width="1.35" fill="#1C2B40" stroke-linejoin="round"></path>
            <circle id="Oval" fill="#FFFFFF" cx="23.1721519" cy="17.3791139" r="5.79303797"></circle>
        </g>
        <g id="cook" transform="translate(267.000000, 319.000000)" fill-rule="nonzero">
            <path d="M42.8582278,0.478481013 C42.5848101,0.205063291 42.1746835,0.205063291 41.9012658,0.478481013 L30.2810127,12.0987342 C27.6835443,14.6962025 27.5468354,18.9341772 30.0075949,21.6683544 L25.9063291,25.4278481 L21.6,21.5316456 C24.2658228,17.5670886 23.8556962,12.0987342 20.3012658,8.61265823 C16.4734177,4.78481013 5.74177215,0.273417722 1.64050633,4.44303797 C-2.46075949,8.5443038 2.05063291,19.3443038 5.81012658,23.1037975 C7.79240506,25.0860759 10.4582278,26.1113924 13.0556962,26.1113924 C15.0379747,26.1113924 17.0202532,25.564557 18.7291139,24.4025316 L22.4886076,28.5037975 L18.9341772,31.7848101 L18.4556962,31.3063291 C18.1822785,31.0329114 17.7721519,31.0329114 17.4987342,31.3063291 L1.98227848,46.8227848 C0.410126582,48.3949367 0.410126582,50.9924051 1.98227848,52.564557 C2.80253165,53.3848101 3.8278481,53.7265823 4.85316456,53.7265823 C5.87848101,53.7265823 6.90379747,53.3164557 7.72405063,52.564557 L23.3088608,36.9797468 C23.5822785,36.7063291 23.5822785,36.2962025 23.3088608,36.0227848 L22.8303797,35.5443038 L25.9746835,32.1265823 L29.0506329,35.4759494 L28.5721519,35.9544304 C28.435443,36.0911392 28.3670886,36.2278481 28.3670886,36.4329114 C28.3670886,36.6379747 28.435443,36.7746835 28.5721519,36.9113924 L44.156962,52.4962025 C44.9088608,53.2481013 45.9341772,53.6582278 47.0278481,53.6582278 C48.121519,53.6582278 49.1468354,53.2481013 49.8987342,52.4962025 C50.6506329,51.7443038 51.0607595,50.7189873 51.0607595,49.6253165 C51.0607595,48.5316456 50.6506329,47.5063291 49.8987342,46.7544304 L34.1772152,31.1696203 C33.9037975,30.8962025 33.4936709,30.8962025 33.2202532,31.1696203 L32.7417722,31.6481013 L29.2556962,28.435443 L32.878481,24.4708861 C34.1772152,25.6329114 35.8860759,26.2481013 37.5265823,26.2481013 C39.3037975,26.2481013 41.0810127,25.564557 42.4481013,24.1974684 L54.0683544,12.5772152 C54.3417722,12.3037975 54.3417722,11.8936709 54.0683544,11.6202532 L42.8582278,0.478481013 Z" id="Shape" fill="#1C2B40"></path>
            <path d="M41.6962025,7.10886076 L33.4253165,15.4481013 C33.1518987,15.721519 33.1518987,16.1316456 33.4253165,16.4050633 C33.5620253,16.5417722 33.7670886,16.6101266 33.9037975,16.6101266 C34.0405063,16.6101266 34.2455696,16.5417722 34.3822785,16.4050633 L42.721519,8.06582278 C42.9949367,7.79240506 42.9949367,7.38227848 42.721519,7.10886076 C42.4481013,6.83544304 41.9696203,6.83544304 41.6962025,7.10886076 Z" id="Path" fill="#FFFFFF"></path>
            <path d="M35.7493671,18.7291139 C35.8860759,18.8658228 36.0911392,18.9341772 36.2278481,18.9341772 C36.364557,18.9341772 36.5696203,18.8658228 36.7063291,18.7291139 L45.0455696,10.3898734 C45.3189873,10.1164557 45.3189873,9.70632911 45.0455696,9.43291139 C44.7721519,9.15949367 44.3620253,9.15949367 44.0886076,9.43291139 L35.7493671,17.7721519 C35.4759494,18.0455696 35.4759494,18.4556962 35.7493671,18.7291139 Z" id="Path" fill="#FFFFFF"></path>
            <path d="M38.0734177,21.0531646 C38.2101266,21.1898734 38.4151899,21.2582278 38.5518987,21.2582278 C38.6886076,21.2582278 38.8936709,21.1898734 39.0303797,21.0531646 L47.3696203,12.7139241 C47.643038,12.4405063 47.643038,12.0303797 47.3696203,11.756962 C47.0962025,11.4835443 46.6860759,11.4835443 46.4126582,11.756962 L38.0734177,20.0962025 C37.8,20.3696203 37.8,20.7797468 38.0734177,21.0531646 Z" id="Path" fill="#FFFFFF"></path>
            <circle id="Oval" fill="#FFFFFF" transform="translate(5.336697, 49.254583) rotate(-45.000000) translate(-5.336697, -49.254583) " cx="5.33669696" cy="49.2545825" r="1"></circle>
            <circle id="Oval" fill="#FFFFFF" transform="translate(46.483405, 49.202203) rotate(-45.000000) translate(-46.483405, -49.202203) " cx="46.4834051" cy="49.2022025" r="1"></circle>
            <circle id="Oval" fill="#FFFFFF" transform="translate(16.544800, 19.885049) rotate(-45.000000) translate(-16.544800, -19.885049) " cx="16.5448003" cy="19.8850489" r="1"></circle>
            <circle id="Oval" fill="#FFFFFF" transform="translate(17.699047, 14.751891) rotate(-45.000000) translate(-17.699047, -14.751891) " cx="17.6990468" cy="14.7518909" r="1"></circle>
            <circle id="Oval" fill="#FFFFFF" transform="translate(14.808379, 11.204569) rotate(-45.000000) translate(-14.808379, -11.204569) " cx="14.808379" cy="11.2045694" r="1"></circle>
            <circle id="Oval" fill="#FFFFFF" transform="translate(13.329381, 16.679705) rotate(-45.000000) translate(-13.329381, -16.679705) " cx="13.3293805" cy="16.6797046" r="1"></circle>
            <circle id="Oval" fill="#FFFFFF" transform="translate(10.196683, 13.507444) rotate(-45.000000) translate(-10.196683, -13.507444) " cx="10.1966833" cy="13.5074438" r="1"></circle>
            <circle id="Oval" fill="#FFFFFF" transform="translate(9.894126, 8.842698) rotate(-45.000000) translate(-9.894126, -8.842698) " cx="9.89412608" cy="8.84269823" r="1"></circle>
            <circle id="Oval" fill="#FFFFFF" transform="translate(12.376704, 20.847172) rotate(-45.000000) translate(-12.376704, -20.847172) " cx="12.3767043" cy="20.8471716" r="1"></circle>
            <circle id="Oval" fill="#FFFFFF" transform="translate(8.485861, 18.164657) rotate(-45.000000) translate(-8.485861, -18.164657) " cx="8.48586076" cy="18.1646567" r="1"></circle>
            <circle id="Oval" fill="#FFFFFF" transform="translate(6.211456, 13.784019) rotate(-45.000000) translate(-6.211456, -13.784019) " cx="6.21145595" cy="13.7840195" r="1"></circle>
            <circle id="Oval" fill="#FFFFFF" transform="translate(5.235601, 8.323211) rotate(-45.000000) translate(-5.235601, -8.323211) " cx="5.23560076" cy="8.32321139" r="1"></circle>
        </g>
        <g id="Group-6" transform="translate(898.000000, 45.000000)" stroke-width="0.831496063">
            <g id="brett" transform="translate(0.000000, 17.763111)" fill="#1C2B40" stroke="#FFFFFF">
                <path d="M0,33.2598425 L51.5527559,33.2598425 L51.5527559,36.5858268 C51.5527559,39.3411623 49.3191151,41.5748031 46.5637795,41.5748031 L4.98897638,41.5748031 C2.23364081,41.5748031 3.37431289e-16,39.3411623 0,36.5858268 L0,33.2598425 L0,33.2598425 Z" id="Rectangle"></path>
                <path d="M2.49448819,0 L49.0582677,0 C50.4359355,3.41777092e-15 51.5527559,1.1168204 51.5527559,2.49448819 L51.5527559,33.2598425 L51.5527559,33.2598425 L0,33.2598425 L0,2.49448819 C-1.68715644e-16,1.1168204 1.1168204,-1.96737258e-15 2.49448819,0 Z" id="Rectangle" stroke-linejoin="round"></path>
            </g>
            <g id="broccoli" transform="translate(43.761487, 17.473387) rotate(31.000000) translate(-43.761487, -17.473387) translate(31.761487, 4.473387)" fill="#1C2B40" fill-rule="nonzero" stroke="#FFFFFF">
                <g id="Broccoli">
                    <path d="M23.5373438,14.1431706 C23.9092142,13.7426003 24.0683003,13.1889895 23.9658169,12.6521084 C23.8633334,12.1152273 23.5115098,11.6591424 23.0182362,11.4237165 C23.3358729,10.8205435 23.2668515,10.0866276 22.8423276,9.5532514 C22.4178037,9.01987519 21.7180872,8.78794101 21.0590236,8.96214173 C20.943766,8.33703023 20.4845121,7.83107254 19.8734488,7.656 C19.9448419,7.43291245 19.9821027,7.20031466 19.9839685,6.96608924 C19.9836033,5.75164544 19.087194,4.72370566 17.8840945,4.55809974 C17.8840945,4.50451444 17.8840945,4.45092913 17.8840945,4.39734383 C17.8822497,3.05711495 16.7962394,1.97110462 15.4560105,1.96925984 C15.1497856,1.96873742 14.8462793,2.02671055 14.5618058,2.14006299 C14.3674119,1.12817929 13.5547357,0.349666872 12.5354409,0.198883608 C11.516146,0.048100344 10.512879,0.557982107 10.0338478,1.47024672 C9.31627959,0.84019893 8.29543047,0.690721745 7.42735005,1.08859194 C6.55926962,1.48646213 6.00609546,2.35736666 6.01495013,3.31224147 C6.01495013,3.38592126 6.01495013,3.45960105 6.01495013,3.53328084 C5.30655531,3.86866591 4.80571225,4.52783594 4.67243154,5.30019766 C4.53915083,6.07255938 4.79011069,6.86146244 5.34513386,7.41486614 C5.34513386,7.47849869 5.34513386,7.53878215 5.32838845,7.59906562 L5.32838845,7.59906562 C4.49107426,7.48879917 3.69814709,8.00462813 3.45960105,8.81478215 C2.81984249,8.5801142 2.10185834,8.74573016 1.62953205,9.23692048 C1.15720575,9.72811081 1.01981977,10.4520272 1.27934908,11.0821102 C1.11690352,11.1412244 0.964437554,11.2247984 0.827223097,11.3299423 C0.0743065864,11.9084271 -0.0680456112,12.9873069 0.509060367,13.7412808 L0.509060367,13.7412808 C-0.0734774069,14.407525 -0.0559216364,15.4069214 0.549656499,16.0522947 C1.15523464,16.697668 2.15149448,16.7787093 2.85341732,16.2396955 C2.94113376,16.17195 3.02190783,16.0956633 3.09455118,16.011958 C3.56001841,16.3521911 4.16551496,16.4351815 4.70536234,16.2327388 C5.24520973,16.030296 5.64683667,15.5696342 5.77381627,15.0072336 C6.09681165,15.0177905 6.41617464,14.9364981 6.69481365,14.7727979 L9.48794751,16.8324829 L9.48794751,25.6204724 C9.48794751,25.8054371 9.63789099,25.9553806 9.82285564,25.9553806 L14.4780787,25.9553806 C14.6630434,25.9553806 14.8129869,25.8054371 14.8129869,25.6204724 L14.8129869,16.711916 L17.492252,14.7326089 C17.7047652,14.8452532 17.9387851,14.9114637 18.1788136,14.9268556 C18.2553151,15.4952173 18.6114116,15.9874809 19.127283,16.2380085 C19.6431545,16.4885362 20.2502189,16.4640217 20.74421,16.1727139 C20.8093914,16.2625288 20.8834442,16.3455576 20.9652493,16.4205459 C21.6155108,17.0135926 22.6083761,17.0206582 23.2670119,16.4369261 C23.9256477,15.8531939 24.0379215,14.8666718 23.5272966,14.1498688 L23.5373438,14.1431706 Z M15.5397375,12.0064567 L13.8651969,13.252315 L13.8651969,11.0754121 C14.1011935,11.1509679 14.3475001,11.1893827 14.5952966,11.1892808 C14.8470656,11.1879875 15.0969825,11.1461463 15.3354436,11.0653648 C15.3354436,11.1189501 15.3354436,11.1691864 15.3354436,11.2261207 C15.3370369,11.4980013 15.4036387,11.7655571 15.5296903,12.0064567 L15.5397375,12.0064567 Z M9.11619948,9.83290289 C9.39424441,10.4026798 9.8849459,10.8404625 10.4826247,11.0519685 L10.4826247,13.3963255 L8.82817848,12.1739108 C9.13916345,11.5801044 9.07640189,10.859654 8.66742257,10.3285669 C8.84530605,10.0772122 8.99489835,9.91199089 9.11619948,9.83290289 Z" id="Shape"></path>
                </g>
            </g>
            <g id="rübe" transform="translate(9.146457, 11.942638)">
                <path d="M10.9704686,28.6513938 C17.6549845,28.6513938 39.911811,34.3417935 39.911811,27.050383 C39.911811,22.8124454 33.2885742,13.9460592 26.2353958,7.61217782 C21.1535163,3.04855836 15.7374228,0 12.9381032,0 C6.25358722,0 0,8.09126669 0,15.3826772 C0,22.6740876 4.28595256,28.6513938 10.9704686,28.6513938 Z" id="Oval" stroke="#FFFFFF" fill="#1C2B40"></path>
                <path d="M4.27057895,15.1685342 C8.42325203,18.6730288 12.0196523,21.2011084 15.0597797,22.7527731 C18.0999071,24.3044378 23.1026756,26.1653275 30.0680851,28.3354423" id="Path-5" stroke="#1C2B40" stroke-linecap="round" transform="translate(17.169332, 21.751988) rotate(-6.000000) translate(-17.169332, -21.751988) "></path>
                <line x1="9.14645669" y1="11.6409449" x2="15.7984252" y2="3.32598425" id="Path-6" stroke="#FFFFFF" stroke-linecap="round"></line>
                <line x1="12.4724409" y1="16.6299213" x2="19.1244094" y2="8.31496063" id="Path-6" stroke="#FFFFFF" stroke-linecap="round"></line>
                <line x1="19.5401575" y1="18.7086614" x2="26.5797482" y2="8.10708661" id="Path-6" stroke="#FFFFFF" stroke-linecap="round"></line>
                <line x1="30.7372285" y1="22.2425197" x2="34.5633383" y2="16.6299213" id="Path-6" stroke="#FFFFFF" stroke-linecap="round"></line>
            </g>
            <g id="egg/avocado" transform="translate(3.325984, 31.067048)" fill="#1C2B40" stroke="#FFFFFF">
                <ellipse id="Oval" cx="9.97795276" cy="6.6519685" rx="9.97795276" ry="6.6519685"></ellipse>
                <path d="M17.7374722,16.6299213 C26.1811727,16.6299213 29.1023622,11.0215437 29.1023622,6.95925441 C29.1023622,2.89696517 8.31496063,3.56505131 8.31496063,6.95925441 C8.31496063,10.3534575 9.29377172,16.6299213 17.7374722,16.6299213 Z" id="Path-4"></path>
                <path d="M17.5959426,11.6409449 C23.1218822,11.6409449 29.1023622,8.95864236 29.1023622,6.30893609 C29.1023622,3.65922981 23.4622195,1.66299213 17.93628,1.66299213 C12.4103405,1.66299213 8.31496063,3.65922981 8.31496063,6.30893609 C8.31496063,8.95864236 12.0700031,11.6409449 17.5959426,11.6409449 Z" id="Oval"></path>
                <ellipse id="Oval" cx="16.6299213" cy="6.6519685" rx="3.32598425" ry="1.66299213"></ellipse>
            </g>
        </g>
    </g>
</svg>