<?xml version="1.0" encoding="UTF-8"?>
<svg width="1226px" height="634px" viewBox="0 0 1226 634" version="1.1" xmlns="http://www.w3.org/2000/svg" xmlns:xlink="http://www.w3.org/1999/xlink">
    <title>Artboard</title>
    <g id="Artboard" stroke="none" stroke-width="1" fill="none" fill-rule="evenodd">
        <g id="Group-4" transform="translate(31.000000, 124.000000)">
            <rect id="Rectangle" fill="#00C1FF" fill-rule="nonzero" opacity="0.1" x="0" y="0" width="523" height="110"></rect>
            <g id="Make-your-own-rules:-2" transform="translate(12.000000, 11.000000)" fill="#1C2B40" font-family="IBMPlexSerif-Bold, IBM Plex Serif" font-size="17" font-weight="bold">
                <text id="Make-your-own-rules:">
                    <tspan x="0" y="17">Make your own rules: </tspan>
                    <tspan x="0" y="39" font-family="IBMPlexSerif, IBM Plex Serif" font-weight="normal">e.g. a "once a day/week rule", changing from larger to smaller </tspan>
                    <tspan x="0" y="61" font-family="IBMPlexSerif, IBM Plex Serif" font-weight="normal">quantities... And take the pressure off: every reduction is </tspan>
                    <tspan x="0" y="83" font-family="IBMPlexSerif, IBM Plex Serif" font-weight="normal">great!</tspan>
                </text>
            </g>
        </g>
        <g id="Group" transform="translate(672.000000, 391.000000)">
            <rect id="Rectangle" fill="#00C1FF" fill-rule="nonzero" opacity="0.1" x="0" y="0" width="523" height="154"></rect>
            <text id="If-you-eat-meat,-the" font-family="IBMPlexSerif-Bold, IBM Plex Serif" font-size="17" font-weight="bold" fill="#1C2B40">
                <tspan x="12" y="28">If you eat meat,</tspan>
                <tspan x="140.163" y="28" font-family="IBMPlexSerif-Medium, IBM Plex Serif" font-weight="400"> </tspan>
                <tspan x="144.107" y="28" font-family="IBMPlexSerif, IBM Plex Serif" font-weight="normal">then it should be organic and from species-</tspan>
                <tspan x="12" y="50" font-family="IBMPlexSerif, IBM Plex Serif" font-weight="normal">appropriate, regional production, preferably from the direct </tspan>
                <tspan x="12" y="72" font-family="IBMPlexSerif, IBM Plex Serif" font-weight="normal">marketer. Find out whether there are suppliers of organic </tspan>
                <tspan x="12" y="94" font-family="IBMPlexSerif, IBM Plex Serif" font-weight="normal">meat in your region. Make sure the animal feed is not coming </tspan>
                <tspan x="12" y="116" font-family="IBMPlexSerif, IBM Plex Serif" font-weight="normal">from overseas. And you just learned which animals cause the </tspan>
                <tspan x="12" y="138" font-family="IBMPlexSerif, IBM Plex Serif" font-weight="normal">least CO2 equivalents!</tspan>
            </text>
        </g>
        <g id="Group-3" transform="translate(672.000000, 124.000000)">
            <rect id="Rectangle" fill="#00C1FF" fill-rule="nonzero" opacity="0.1" x="0" y="0" width="523" height="110"></rect>
            <text id="If-you-fear-protein" font-family="IBMPlexSerif-Bold, IBM Plex Serif" font-size="17" font-weight="bold" fill="#1C2B40">
                <tspan x="12" y="28">If you fear protein deficiency</tspan>
                <tspan x="253.706" y="28" font-family="IBMPlexSerif-Medium, IBM Plex Serif" font-weight="400"> </tspan>
                <tspan x="257.65" y="28" font-family="IBMPlexSerif, IBM Plex Serif" font-weight="normal">by eating less meat, don ́t </tspan>
                <tspan x="12" y="50" font-family="IBMPlexSerif, IBM Plex Serif" font-weight="normal">worry! You can still follow a healthy, balanced diet: </tspan>
                <tspan x="12" y="72" font-family="IBMPlexSerif, IBM Plex Serif" font-weight="normal">Legumes, cereals and dairy products are high-quality sources </tspan>
                <tspan x="12" y="94" font-family="IBMPlexSerif, IBM Plex Serif" font-weight="normal">of protein.</tspan>
            </text>
        </g>
        <g id="Group-2" transform="translate(31.000000, 391.000000)">
            <rect id="Rectangle" fill="#00C1FF" fill-rule="nonzero" opacity="0.1" x="0" y="0" width="523" height="198"></rect>
            <text id="If-you-miss-the-tast" font-family="IBMPlexSerif-Bold, IBM Plex Serif" font-size="17" font-weight="bold" fill="#1C2B40">
                <tspan x="12" y="28">If you miss the taste of meat,</tspan>
                <tspan x="249.915" y="28" font-family="IBMPlexSerif-Medium, IBM Plex Serif" font-weight="400"> </tspan>
                <tspan x="253.859" y="28" font-family="IBMPlexSerif, IBM Plex Serif" font-weight="normal">you are well served with </tspan>
                <tspan x="12" y="50" font-family="IBMPlexSerif, IBM Plex Serif" font-weight="normal">strongly spiced dishes like curries. Also "as if" versions, for </tspan>
                <tspan x="12" y="72" font-family="IBMPlexSerif, IBM Plex Serif" font-weight="normal">example noodles with soy Bolognese sauce or sliced meat with </tspan>
                <tspan x="12" y="94" font-family="IBMPlexSerif, IBM Plex Serif" font-weight="normal">seitan, are a good alternative for some people.</tspan>
                <tspan x="12" y="116" font-family="IBMPlexSerif, IBM Plex Serif" font-weight="normal"></tspan>
                <tspan x="12" y="138" font-family="IBMPlexSerif, IBM Plex Serif" font-weight="normal">Others, e.g. celebrity chef Jamie Oliver prefer to cook without </tspan>
                <tspan x="12" y="160" font-family="IBMPlexSerif, IBM Plex Serif" font-weight="normal">trying to replace meat - because meat alternatives such as tofu </tspan>
                <tspan x="12" y="182" font-family="IBMPlexSerif, IBM Plex Serif" font-weight="normal">etc. are often not well received by meat eaters.</tspan>
            </text>
        </g>
        <g id="Group-7" transform="translate(234.000000, 50.000000)">
            <g id="Arrow" transform="translate(69.504528, 15.383877) rotate(-105.000000) translate(-69.504528, -15.383877) translate(59.504528, -6.116123)" fill="#1C2B40" fill-rule="nonzero">
                <path d="M1.053,40.1444193 C0.859344828,40.1444193 0.67634069,40.0272579 0.601783448,39.8360234 C0.504471724,39.5866924 0.627926897,39.3063766 0.876773793,39.2090648 C9.01561655,36.036509 14.5367255,31.1781848 17.286629,24.7701352 C21.7344041,14.4057103 14.0298228,1.0425633 13.984798,0.933148127 C13.8836132,0.685753644 14.0022269,0.403017092 14.2491373,0.301832265 C14.4975,0.200163299 14.7797525,0.31926123 14.8804532,0.566171575 C14.9269304,0.679459851 22.7815945,14.4187821 18.1759903,25.15212 C15.3205448,31.8075641 9.61836828,36.8406621 1.22874207,40.1110138 C1.17064552,40.1337683 1.11158069,40.1444193 1.053,40.1444193 Z" id="Path"></path>
                <path d="M7.99553793,42.4799007 C7.94712414,42.4799007 7.89822621,42.4726386 7.85029655,42.4576303 L0.417326897,40.122149 C0.26433931,40.0737352 0.144757241,39.9531848 0.0987641379,39.799229 C0.0527710345,39.6457572 0.0856924138,39.4787297 0.187361379,39.3547903 L5.59130897,32.7191959 C5.75978897,32.5115007 6.06479586,32.481 6.27249103,32.64948 C6.47970207,32.8184441 6.51117103,33.123451 6.3422069,33.3306621 L1.38899172,39.4124028 L8.14077931,41.5338952 C8.39592,41.6142621 8.53777241,41.8858634 8.45740552,42.1410041 C8.3920469,42.347731 8.20129655,42.4799007 7.99553793,42.4799007 Z" id="Path"></path>
            </g>
            <g id="Group-2" transform="translate(0.000000, 19.823290)" stroke="#1C2B40" stroke-width="1.65998396">
                <path d="M6.52039296,8.865274 C7.81326484,10.598704 14.7114703,11.470694 20.5326661,13.3428561 C25.6808186,14.9985599 30.7049863,21.0350299 35.6664367,22.5350208 C41.4317919,24.2780556 46.5125446,23.4980504 49.306385,20.6230689 C52.1002253,17.7480873 52.4518573,12.970343 48.5271339,9.36617271 C44.6024105,5.7620024 39.5172959,5.20563898 34.7860096,4.55759277 C30.0547233,3.90954656 2.75547568,3.81742604 6.52039296,8.865274 Z" id="Path-2"></path>
                <path d="M0.28981965,8.924084 C1.13594074,6.41598572 4.36597916,3.08771864 10.7186357,1.50783444 C20.3276896,-0.881904792 35.1948931,-0.491808782 44.810542,3.11371977 C60.7832074,9.1029049 58.055222,27.244096 53.514645,30.714935 C48.974068,34.185774 43.4457186,35.1074905 35.8373965,33.0794014 C29.7245357,31.4499454 24.4368163,27.189101 18.6695944,24.0783044 C13.0798245,21.063224 6.40007372,19.9774897 2.93233803,17.2670582 C-0.113957642,14.8860302 -0.351918263,10.8263434 0.28981965,8.924084 Z" id="Path-3"></path>
                <ellipse id="Oval" cx="41.7873792" cy="14.9430806" rx="3.65196472" ry="2.98797113"></ellipse>
            </g>
            <g id="Group-2" transform="translate(84.165517, 27.271566)" stroke="#1C2B40" stroke-width="1.2">
                <path d="M3.65708996,4.97226237 C4.38222245,5.94449052 8.25121596,6.43356317 11.5161475,7.48360189 C14.4035896,8.41223575 17.2214923,11.7979081 20.0042189,12.6392073 C23.2378311,13.6168225 26.0874707,13.1793413 27.6544507,11.5668517 C29.2214307,9.95436199 29.4186504,7.27467065 27.2173925,5.25320121 C25.0161346,3.23173178 22.1640486,2.91968447 19.5104141,2.55621507 C16.8567796,2.19274568 1.54546244,2.14107808 3.65708996,4.97226237 Z" id="Path-2"></path>
                <path d="M0.162551021,5.00524712 C0.637114587,3.59853112 2.44874483,1.73180741 6.01175652,0.845698446 C11.4011824,-0.494633557 19.7397444,-0.275840578 25.1328692,1.74639066 C34.0914511,5.10554231 32.5614071,15.2803843 30.0147357,17.2270722 C27.4680642,19.1737602 24.3673813,19.6907229 20.100105,18.5532295 C16.6715874,17.6393172 13.7058666,15.2495393 10.4712073,13.5047881 C7.33607548,11.8137213 3.58960656,11.2047659 1.64465916,9.68456741 C-0.0639153732,8.34912129 -0.197380243,6.0721665 0.162551021,5.00524712 Z" id="Path-3"></path>
                <ellipse id="Oval" cx="23.4372692" cy="8.38111914" rx="2.04827586" ry="1.67586207"></ellipse>
            </g>
        </g>
        <g id="cooking" transform="translate(266.000000, 318.000000)" fill="#1C2B40" fill-rule="nonzero">
            <path d="M43.0253071,0.47985258 C42.7511057,0.205651106 42.3398034,0.205651106 42.065602,0.47985258 L30.4120393,12.1334152 C27.8071253,14.7383292 27.6700246,18.9884521 30.1378378,21.7304668 L26.0248157,25.5007371 L21.7061425,21.5933661 C24.3796069,17.6174447 23.9683047,12.1334152 20.4036855,8.63734644 C16.5648649,4.7985258 5.802457,0.274201474 1.68943489,4.45577396 C-2.42358722,8.56879607 2.1007371,19.3997543 5.87100737,23.1700246 C7.85896806,25.1579853 10.5324324,26.1862408 13.1373464,26.1862408 C15.1253071,26.1862408 17.1132678,25.6378378 18.827027,24.4724816 L22.5972973,28.5855037 L19.0326781,31.8759214 L18.5528256,31.3960688 C18.2786241,31.1218673 17.8673219,31.1218673 17.5931204,31.3960688 L2.03218673,46.9570025 C0.455528256,48.5336609 0.455528256,51.1385749 2.03218673,52.7152334 C2.85479115,53.5378378 3.88304668,53.8805897 4.91130221,53.8805897 C5.93955774,53.8805897 6.96781327,53.4692875 7.79041769,52.7152334 L23.4199017,37.0857494 C23.6941032,36.8115479 23.6941032,36.4002457 23.4199017,36.1260442 L22.9400491,35.6461916 L26.0933661,32.2186732 L29.1781327,35.5776413 L28.6982801,36.0574939 C28.5611794,36.1945946 28.492629,36.3316953 28.492629,36.5373464 C28.492629,36.7429975 28.5611794,36.8800983 28.6982801,37.017199 L44.3277641,52.646683 C45.0818182,53.4007371 46.1100737,53.8120393 47.2068796,53.8120393 C48.3036855,53.8120393 49.331941,53.4007371 50.0859951,52.646683 C50.8400491,51.892629 51.2513514,50.8643735 51.2513514,49.7675676 C51.2513514,48.6707617 50.8400491,47.6425061 50.0859951,46.8884521 L34.3194103,31.2589681 C34.0452088,30.9847666 33.6339066,30.9847666 33.3597052,31.2589681 L32.8798526,31.7388206 L29.3837838,28.5169533 L33.0169533,24.5410319 C34.3194103,25.7063882 36.0331695,26.3233415 37.6783784,26.3233415 C39.460688,26.3233415 41.2429975,25.6378378 42.6140049,24.2668305 L54.2675676,12.6132678 C54.541769,12.3390663 54.541769,11.9277641 54.2675676,11.6535627 L43.0253071,0.47985258 Z M19.1697789,22.4845209 C15.6737101,25.6378378 10.258231,25.5007371 6.8992629,22.141769 C3.47174447,18.7142506 -0.70982801,8.70589681 2.71769042,5.34692875 C3.60884521,4.45577396 4.97985258,4.11302211 6.48796069,4.11302211 C10.8751843,4.11302211 16.9761671,7.06068796 19.5125307,9.5970516 C22.8714988,12.9560197 22.9400491,18.3714988 19.8552826,21.8675676 L19.1697789,22.4845209 Z M6.83071253,51.7555283 C5.802457,52.7837838 4.08869779,52.7837838 2.99189189,51.7555283 C1.96363636,50.7272727 1.96363636,49.0135135 2.99189189,47.9167076 L18.1415233,32.7670762 L21.980344,36.6058968 L6.83071253,51.7555283 Z M21.980344,34.6179361 L20.129484,32.7670762 L23.6255528,29.5452088 L25.0651106,31.1218673 L21.980344,34.6179361 Z M33.8395577,32.7670762 L48.9891892,47.9167076 C49.4690418,48.3965602 49.8117936,49.0820639 49.8117936,49.8361179 C49.8117936,50.590172 49.5375921,51.2071253 48.9891892,51.7555283 C47.9609337,52.7837838 46.1786241,52.7837838 45.1503686,51.7555283 L30.0692875,36.5373464 L33.8395577,32.7670762 Z M31.9201474,32.7670762 L30.0692875,34.6179361 L26.5732187,30.7791155 C26.5732187,30.7791155 26.5732187,30.7791155 26.5732187,30.7791155 L24.2425061,28.2427518 C24.2425061,28.2427518 24.2425061,28.2427518 24.2425061,28.2427518 L20.0609337,23.7184275 L20.1980344,23.5813268 C20.3351351,23.444226 20.4036855,23.3756757 20.5407862,23.2385749 C20.677887,23.1014742 20.7464373,23.0329238 20.8835381,22.8958231 L21.0206388,22.7587224 L25.6820639,27.0088452 C25.6820639,27.0088452 25.6820639,27.0088452 25.6820639,27.0088452 L28.0127764,29.202457 C28.0127764,29.202457 28.0127764,29.202457 28.0127764,29.202457 L31.9201474,32.7670762 Z M28.3555283,27.6257985 L27.0530713,26.4604423 L31.0289926,22.7587224 L31.9201474,23.6498771 L28.3555283,27.6257985 Z M41.6542998,23.3756757 C39.460688,25.5692875 35.8960688,25.5692875 33.702457,23.3756757 L31.4402948,21.1135135 C29.246683,18.9199017 29.246683,15.3552826 31.4402948,13.1616708 L42.5454545,1.91941032 L52.8280098,12.2019656 L41.6542998,23.3756757 Z" id="Shape"></path>
            <path d="M41.8599509,7.12923833 L33.5653563,15.4923833 C33.2911548,15.7665848 33.2911548,16.177887 33.5653563,16.4520885 C33.702457,16.5891892 33.9081081,16.6577396 34.0452088,16.6577396 C34.1823096,16.6577396 34.3879607,16.5891892 34.5250614,16.4520885 L42.8882064,8.08894349 C43.1624079,7.81474201 43.1624079,7.4034398 42.8882064,7.12923833 C42.6140049,6.85503686 42.1341523,6.85503686 41.8599509,7.12923833 Z" id="Path"></path>
            <path d="M35.8960688,18.782801 C36.0331695,18.9199017 36.2388206,18.9884521 36.3759214,18.9884521 C36.5130221,18.9884521 36.7186732,18.9199017 36.855774,18.782801 L45.2189189,10.419656 C45.4931204,10.1454545 45.4931204,9.73415233 45.2189189,9.45995086 C44.9447174,9.18574939 44.5334152,9.18574939 44.2592138,9.45995086 L35.8960688,17.8230958 C35.6218673,18.0972973 35.6218673,18.5085995 35.8960688,18.782801 Z" id="Path"></path>
            <path d="M38.2267813,21.1135135 C38.3638821,21.2506143 38.5695332,21.3191646 38.7066339,21.3191646 C38.8437346,21.3191646 39.0493857,21.2506143 39.1864865,21.1135135 L47.5496314,12.7503686 C47.8238329,12.4761671 47.8238329,12.0648649 47.5496314,11.7906634 C47.27543,11.5164619 46.8641278,11.5164619 46.5899263,11.7906634 L38.2267813,20.1538084 C37.9525799,20.4280098 37.9525799,20.839312 38.2267813,21.1135135 Z" id="Path"></path>
            <circle id="Oval" transform="translate(5.396221, 49.395771) rotate(-45.000000) translate(-5.396221, -49.395771) " cx="5.39622066" cy="49.3957709" r="1"></circle>
            <circle id="Oval" transform="translate(46.660876, 49.343241) rotate(-45.000000) translate(-46.660876, -49.343241) " cx="46.6608759" cy="49.3432408" r="1"></circle>
            <circle id="Oval" transform="translate(16.636452, 19.942049) rotate(-45.000000) translate(-16.636452, -19.942049) " cx="16.636452" cy="19.9420494" r="1"></circle>
            <circle id="Oval" transform="translate(17.794007, 14.794177) rotate(-45.000000) translate(-17.794007, -14.794177) " cx="17.7940072" cy="14.7941772" r="1"></circle>
            <circle id="Oval" transform="translate(14.895053, 11.236687) rotate(-45.000000) translate(-14.895053, -11.236687) " cx="14.8950533" cy="11.2366873" r="1"></circle>
            <circle id="Oval" transform="translate(13.411815, 16.727517) rotate(-45.000000) translate(-13.411815, -16.727517) " cx="13.4118153" cy="16.727517" r="1"></circle>
            <circle id="Oval" transform="translate(10.270138, 13.546163) rotate(-45.000000) translate(-10.270138, -13.546163) " cx="10.2701382" cy="13.5461629" r="1"></circle>
            <circle id="Oval" transform="translate(9.966714, 8.868046) rotate(-45.000000) translate(-9.966714, -8.868046) " cx="9.96671366" cy="8.86804585" r="1"></circle>
            <circle id="Oval" transform="translate(12.456408, 20.906930) rotate(-45.000000) translate(-12.456408, -20.906930) " cx="12.4564082" cy="20.9069301" r="1"></circle>
            <circle id="Oval" transform="translate(8.554412, 18.216726) rotate(-45.000000) translate(-8.554412, -18.216726) " cx="8.55441155" cy="18.2167257" r="1"></circle>
            <circle id="Oval" transform="translate(6.273487, 13.823531) rotate(-45.000000) translate(-6.273487, -13.823531) " cx="6.27348715" cy="13.8235314" r="1"></circle>
            <circle id="Oval" transform="translate(5.294835, 8.347070) rotate(-45.000000) translate(-5.294835, -8.347070) " cx="5.29483467" cy="8.3470699" r="1"></circle>
        </g>
        <g id="Group" transform="translate(905.000000, 322.000000)" stroke="#1C2B40" stroke-width="1.62">
            <polygon id="Rectangle" stroke-linejoin="round" points="3.94379719 35.4018987 42.9951244 35.4018987 46.9879747 50.85 0 50.85"></polygon>
            <path d="M23.4939873,40.8037058 C24.0314748,40.7926929 24.2157885,40.6292477 24.5684739,40.3483235 C35.6527824,31.5193507 41.1949367,23.9549005 41.1949367,17.6549729 C41.1949367,7.9044006 33.2699517,0 23.4939873,0 C13.7180229,0 5.79303797,7.9044006 5.79303797,17.6549729 C5.79303797,23.9651119 11.3529202,31.5438761 22.4726845,40.3912655 C22.807931,40.6580028 22.9564999,40.8147187 23.4939873,40.8037058 Z" id="Oval" fill="#FFFFFF" stroke-linejoin="round"></path>
            <circle id="Oval" cx="23.1721519" cy="17.3791139" r="5.79303797"></circle>
        </g>
        <g id="Group-5" transform="translate(898.000000, 45.000000)">
            <g id="brett" transform="translate(0.000000, 17.837500)" stroke="#1C2B40" stroke-width="1.2812499">
                <path d="M0,33.25 L51.5375,33.25 L51.5375,36.575 C51.5375,39.3295202 49.3045202,41.5625 46.55,41.5625 L4.9875,41.5625 C2.23297981,41.5625 2.11368827e-15,39.3295202 0,36.575 L0,33.25 L0,33.25 Z" id="Rectangle"></path>
                <path d="M2.49375,0 L49.04375,0 C50.4210101,3.41675951e-15 51.5375,1.11648991 51.5375,2.49375 L51.5375,33.25 L51.5375,33.25 L0,33.25 L0,2.49375 C-1.68665717e-16,1.11648991 1.11648991,-1.07926905e-15 2.49375,0 Z" id="Rectangle" stroke-linejoin="round"></path>
            </g>
            <g id="broccoli" transform="translate(43.749599, 17.552988) rotate(31.000000) translate(-43.749599, -17.552988) translate(31.749599, 4.552988)" fill-rule="nonzero">
                <g id="Broccoli" fill="#FFFFFF" stroke="#1C2B40" stroke-width="0.9">
                    <path d="M23.5303785,14.1389852 C23.9021388,13.7385335 24.0611778,13.1850865 23.9587247,12.6483643 C23.8562716,12.1116421 23.5045521,11.6556921 23.0114245,11.4203359 C23.3289672,10.8173414 23.2599662,10.0836427 22.8355679,9.55042432 C22.4111696,9.01720596 21.7116602,8.78534041 21.0527917,8.95948958 C20.9375681,8.33456307 20.4784501,7.8287551 19.8675677,7.65373437 C19.9389397,7.43071285 19.9761895,7.19818388 19.9780547,6.96402778 C19.9776896,5.74994337 19.0815456,4.72230779 17.8788021,4.55675087 C17.8788021,4.50318142 17.8788021,4.44961198 17.8788021,4.39604253 C17.8769579,3.05621026 16.7912689,1.97052131 15.4514366,1.96867708 C15.1453024,1.96815481 14.8418858,2.02611079 14.5574965,2.13942969 C14.3631602,1.12784543 13.5507245,0.349563395 12.5317313,0.198824753 C11.512738,0.0480861098 10.5097679,0.557816984 10.0308785,1.46981163 C9.31352264,0.839950292 8.29297562,0.690517341 7.42515208,1.08826979 C6.55732855,1.48602225 6.00431808,2.35666905 6.01317014,3.31126128 C6.01317014,3.38491927 6.01317014,3.45857726 6.01317014,3.53223524 C5.30498495,3.86752106 4.80429011,4.52649602 4.67104884,5.29862918 C4.53780757,6.07076234 4.78869317,6.85943194 5.34355208,7.41267187 C5.34355208,7.47628559 5.34355208,7.53655122 5.32681163,7.59681684 L5.32681163,7.59681684 C4.48974522,7.48658302 3.6970527,8.00225934 3.45857726,8.81217361 C2.81900802,8.5775751 2.10123634,8.74314205 1.62904982,9.23418702 C1.1568633,9.72523199 1.01951798,10.4489342 1.27897049,11.0788307 C1.116573,11.1379274 0.964152149,11.2214766 0.826978299,11.3265894 C0.074284597,11.9049031 -0.0680254746,12.9834636 0.508909722,13.7372144 L0.508909722,13.7372144 C-0.0734556629,14.4032614 -0.0559050876,15.4023621 0.549493841,16.0475444 C1.15489277,16.6927266 2.1508578,16.773744 2.85257292,16.2348898 C2.9402634,16.1671642 3.02101357,16.0909002 3.09363542,16.0072196 C3.5589649,16.347352 4.16428226,16.4303179 4.70396989,16.2279351 C5.24365752,16.0255522 5.64516562,15.5650267 5.77210764,15.0027925 C6.09500743,15.0133464 6.41427592,14.932078 6.69283247,14.7684262 L9.48513976,16.8275017 L9.48513976,25.6128906 C9.48513976,25.7978005 9.63503886,25.9476997 9.81994878,25.9476997 L14.4737943,25.9476997 C14.6587042,25.9476997 14.8086033,25.7978005 14.8086033,25.6128906 L14.8086033,16.7069705 L17.4870755,14.7282491 C17.6995259,14.8408601 17.9334765,14.907051 18.173434,14.9224384 C18.2499128,15.4906318 18.605904,15.9827498 19.1216227,16.2332033 C19.6373415,16.4836568 20.2442263,16.4591496 20.7380712,16.167928 C20.8032334,16.2577162 20.8772642,16.3407205 20.9590451,16.4156866 C21.6091142,17.0085578 22.6016856,17.0156213 23.2601265,16.4320619 C23.9185675,15.8485025 24.030808,14.8622723 23.5203342,14.1456814 L23.5303785,14.1389852 Z M15.5351389,12.0029036 L13.8610937,13.2483932 L13.8610937,11.0721345 C14.0970205,11.147668 14.3432543,11.1860715 14.5909774,11.1859696 C14.842672,11.1846767 15.0925149,11.1428478 15.3309054,11.0620903 C15.3309054,11.1156597 15.3309054,11.1658811 15.3309054,11.2227986 C15.3324982,11.4945987 15.3990804,11.7620754 15.5250946,12.0029036 L15.5351389,12.0029036 Z M9.11350174,9.82999306 C9.39146439,10.3996014 9.88202066,10.8372545 10.4795226,11.0486979 L10.4795226,13.3923611 L8.82556597,12.1703082 C9.13645891,11.5766776 9.07371593,10.8564404 8.66485764,10.3255104 C8.84268847,10.0742301 8.99223651,9.90905765 9.11350174,9.82999306 Z" id="Shape"></path>
                </g>
                <g id="Broccoli" fill="#1C2B40">
                    <path d="M23.5303785,14.1389852 C23.9021388,13.7385335 24.0611778,13.1850865 23.9587247,12.6483643 C23.8562716,12.1116421 23.5045521,11.6556921 23.0114245,11.4203359 C23.3289672,10.8173414 23.2599662,10.0836427 22.8355679,9.55042432 C22.4111696,9.01720596 21.7116602,8.78534041 21.0527917,8.95948958 C20.9375681,8.33456307 20.4784501,7.8287551 19.8675677,7.65373437 C19.9389397,7.43071285 19.9761895,7.19818388 19.9780547,6.96402778 C19.9776896,5.74994337 19.0815456,4.72230779 17.8788021,4.55675087 C17.8788021,4.50318142 17.8788021,4.44961198 17.8788021,4.39604253 C17.8769579,3.05621026 16.7912689,1.97052131 15.4514366,1.96867708 C15.1453024,1.96815481 14.8418858,2.02611079 14.5574965,2.13942969 C14.3631602,1.12784543 13.5507245,0.349563395 12.5317313,0.198824753 C11.512738,0.0480861098 10.5097679,0.557816984 10.0308785,1.46981163 C9.31352264,0.839950292 8.29297562,0.690517341 7.42515208,1.08826979 C6.55732855,1.48602225 6.00431808,2.35666905 6.01317014,3.31126128 C6.01317014,3.38491927 6.01317014,3.45857726 6.01317014,3.53223524 C5.30498495,3.86752106 4.80429011,4.52649602 4.67104884,5.29862918 C4.53780757,6.07076234 4.78869317,6.85943194 5.34355208,7.41267187 C5.34355208,7.47628559 5.34355208,7.53655122 5.32681163,7.59681684 L5.32681163,7.59681684 C4.48974522,7.48658302 3.6970527,8.00225934 3.45857726,8.81217361 C2.81900802,8.5775751 2.10123634,8.74314205 1.62904982,9.23418702 C1.1568633,9.72523199 1.01951798,10.4489342 1.27897049,11.0788307 C1.116573,11.1379274 0.964152149,11.2214766 0.826978299,11.3265894 C0.074284597,11.9049031 -0.0680254746,12.9834636 0.508909722,13.7372144 L0.508909722,13.7372144 C-0.0734556629,14.4032614 -0.0559050876,15.4023621 0.549493841,16.0475444 C1.15489277,16.6927266 2.1508578,16.773744 2.85257292,16.2348898 C2.9402634,16.1671642 3.02101357,16.0909002 3.09363542,16.0072196 C3.5589649,16.347352 4.16428226,16.4303179 4.70396989,16.2279351 C5.24365752,16.0255522 5.64516562,15.5650267 5.77210764,15.0027925 C6.09500743,15.0133464 6.41427592,14.932078 6.69283247,14.7684262 L9.48513976,16.8275017 L9.48513976,25.6128906 C9.48513976,25.7978005 9.63503886,25.9476997 9.81994878,25.9476997 L14.4737943,25.9476997 C14.6587042,25.9476997 14.8086033,25.7978005 14.8086033,25.6128906 L14.8086033,16.7069705 L17.4870755,14.7282491 C17.6995259,14.8408601 17.9334765,14.907051 18.173434,14.9224384 C18.2499128,15.4906318 18.605904,15.9827498 19.1216227,16.2332033 C19.6373415,16.4836568 20.2442263,16.4591496 20.7380712,16.167928 C20.8032334,16.2577162 20.8772642,16.3407205 20.9590451,16.4156866 C21.6091142,17.0085578 22.6016856,17.0156213 23.2601265,16.4320619 C23.9185675,15.8485025 24.030808,14.8622723 23.5203342,14.1456814 L23.5303785,14.1389852 Z M6.0265625,7.79435417 C6.0243021,7.6501088 6.04004814,7.50614497 6.07343576,7.36579861 C6.10389631,7.24291533 6.06243865,7.11336013 5.96629687,7.03098958 C5.4822472,6.62767718 5.25386789,5.99431292 5.36914053,5.37489609 C5.48441317,4.75547927 5.92534876,4.24667361 6.52207986,4.04449306 C6.68113187,3.98914672 6.77432123,3.82427325 6.73970573,3.65946267 C6.63072661,3.14103376 6.76137652,2.60110504 7.09531656,2.18985204 C7.4292566,1.77859903 7.93086482,1.53989079 8.46062413,1.54012153 C9.02404692,1.5393802 9.55299599,1.81133986 9.88021441,2.27000521 C9.95637083,2.37543059 10.0866889,2.4272151 10.2144344,2.40281428 C10.3421798,2.37841345 10.4442368,2.28224271 10.4761745,2.15617014 C10.693449,1.29714943 11.5171536,0.734981965 12.3962787,0.845724465 C13.2754038,0.956466965 13.9339563,1.70535286 13.9314036,2.59142187 C13.9301466,2.61595845 13.9301466,2.64054329 13.9314036,2.66507986 C13.9264664,2.79196995 13.9937397,2.91073207 14.1051116,2.97173835 C14.2164835,3.03274462 14.352783,3.02549372 14.4570538,2.95301562 C15.0522907,2.52826212 15.8490366,2.51898521 16.4540019,2.92976417 C17.0589673,3.34054312 17.3442413,4.08452487 17.1690069,4.79446528 C17.1454527,4.8956347 17.1701903,5.00200666 17.2359687,5.08240104 C17.3012559,5.16293684 17.4001692,5.20868427 17.503816,5.20628038 L17.5573854,5.20628038 C18.5273983,5.20812277 19.3132904,5.99401486 19.3151328,6.96402778 C19.3151328,7.17739372 19.2740976,7.38876897 19.1946016,7.58677257 L19.1577726,7.58677257 C19.0718077,7.59706325 18.9867461,7.61385174 18.9033177,7.63699392 L18.8497483,7.65373437 C18.7694725,7.67795515 18.6911298,7.70817301 18.6153819,7.74413281 L18.5316797,7.79435417 C18.3744021,7.88025975 18.233792,7.99365501 18.1165165,8.12916319 L18.0696432,8.17938455 L18.0696432,8.17938455 C17.9969427,8.16117608 17.9231263,8.14775492 17.8486693,8.13920747 L17.7984479,8.13920747 L17.6310434,8.13920747 L17.5439931,8.13920747 L17.4000252,8.13920747 L17.3129748,8.13920747 L17.1957917,8.16599219 L17.0886528,8.19947309 L17.0016024,8.2296059 L16.874375,8.28317535 L16.8208056,8.30996007 C16.7705842,8.33674479 16.7237109,8.36352951 16.6768377,8.39701042 L16.6768377,8.39701042 C16.6208412,8.43505546 16.5671755,8.47642276 16.5161293,8.52088976 L16.4960408,8.52088976 C16.4541926,8.54738369 16.4187439,8.5828324 16.39225,8.62468056 L16.39225,8.62468056 L16.39225,8.62468056 L16.39225,8.62468056 C16.3587691,8.65816146 16.3353325,8.69833854 16.3085477,8.73851562 C16.2704166,8.78349615 16.2346551,8.83043305 16.2014089,8.87913542 L16.1813203,8.9193125 C16.0275078,9.18239354 15.9466081,9.4817224 15.946954,9.78646788 C15.889909,9.83284841 15.8362063,9.88319469 15.7862457,9.93713194 L15.7862457,9.93713194 C15.743841,9.98466098 15.704691,10.0349966 15.6690625,10.087796 C15.1095791,10.535605 14.330005,10.5864177 13.7171259,10.2150234 L13.7171259,10.2150234 C13.5516553,10.1145057 13.403541,9.98787361 13.278526,9.84003733 L13.278526,9.84003733 L13.2316528,9.78646788 C13.168161,9.70601368 13.0713171,9.65907163 12.9688277,9.65907163 C12.8663383,9.65907163 12.7694944,9.70601368 12.7060026,9.78646788 L12.6591293,9.84003733 L12.6591293,9.84003733 C12.4122983,10.1321528 12.0775463,10.3365277 11.7049236,10.422605 L11.681487,10.422605 L11.5207786,10.4493898 C11.385315,10.468803 11.2477753,10.468803 11.1123116,10.4493898 L10.9348628,10.4159089 L10.9348628,10.4159089 C10.2943905,10.2669227 9.79137877,9.7716696 9.63245573,9.13359028 C9.59942688,9.0032938 9.49167614,8.90538237 9.35882164,8.88494322 C9.22596714,8.86450406 9.09376906,8.92550029 9.0231033,9.03984375 C8.85483965,9.21089081 8.6530977,9.34538544 8.43049132,9.4349184 C8.43049132,9.40813368 8.40705469,9.38469705 8.39701042,9.35791233 C8.38696615,9.3311276 8.35683333,9.25746962 8.3333967,9.21059635 C8.28950078,9.12466782 8.23795519,9.04286722 8.17938455,8.96618576 C7.79448406,8.46744757 7.16743099,8.21945322 6.54551649,8.32000434 L6.49864323,8.25639062 C6.37042347,8.08166306 6.21023356,7.93283414 6.0265625,7.8177908 C6.0265625,7.8177908 6.0265625,7.80439844 6.0265625,7.79435417 Z M15.5351389,12.0029036 L13.8610937,13.2483932 L13.8610937,11.0721345 C14.0970205,11.147668 14.3432543,11.1860715 14.5909774,11.1859696 C14.842672,11.1846767 15.0925149,11.1428478 15.3309054,11.0620903 C15.3309054,11.1156597 15.3309054,11.1658811 15.3309054,11.2227986 C15.3324982,11.4945987 15.3990804,11.7620754 15.5250946,12.0029036 L15.5351389,12.0029036 Z M8.67490191,10.3288585 C8.62982378,10.2706864 8.58058953,10.2158574 8.52758594,10.1648021 C8.52758594,10.1447135 8.52758594,10.124625 8.52758594,10.1078845 C8.7345158,10.042066 8.93160389,9.94858995 9.11350174,9.82999306 C9.39146439,10.3996014 9.88202066,10.8372545 10.4795226,11.0486979 L10.4795226,13.3923611 L8.82556597,12.1703082 C9.13645891,11.5766776 9.07371593,10.8564404 8.66485764,10.3255104 L8.67490191,10.3288585 Z M5.58796267,14.3063898 C5.48586503,14.2799711 5.3772873,14.3032007 5.29493663,14.3690813 C5.21258597,14.4349618 5.16608872,14.5357921 5.16945139,14.6411988 C5.17259698,15.0819899 4.89784422,15.4770026 4.4834933,15.6274022 C4.06914238,15.7778018 3.60498224,15.6509971 3.32465365,15.3108168 C3.25242772,15.2243437 3.14155224,15.1799962 3.02961462,15.1928084 C2.917677,15.2056205 2.81968958,15.273874 2.76887066,15.3744306 C2.6071345,15.6963965 2.29089155,15.9122841 1.93213262,15.9456412 C1.57337369,15.9789983 1.22274982,15.8251154 1.00442708,15.538487 L1.00442708,15.538487 C0.645933658,15.0830176 0.722192397,14.4236038 1.17517969,14.0619792 L1.22540104,14.0284983 C1.30712103,13.9650766 1.35493636,13.8674421 1.35493636,13.7639991 C1.35493636,13.6605561 1.30712103,13.5629216 1.22540104,13.4995 C0.885752088,13.2266797 0.75108036,12.7717176 0.887502902,12.3579771 C1.02392544,11.9442366 1.40279336,11.6586037 1.83810156,11.6413099 C1.96507691,11.6352799 2.07768514,11.5578629 2.12878549,11.4414677 C2.17988585,11.3250724 2.16066297,11.1897783 2.07916406,11.0922231 L2.0657717,11.0486979 C1.71294446,10.5881784 1.79984964,9.92889767 2.25996094,9.57553819 C2.44320755,9.44110104 2.66551522,9.37052718 2.89275,9.37465278 C3.12982102,9.37475924 3.35989681,9.4549908 3.5456276,9.60232292 C3.6475269,9.68291422 3.78684929,9.69728123 3.90305058,9.63918059 C4.01925187,9.58107994 4.0913517,9.46100182 4.08801823,9.3311276 C4.07061906,8.96932343 4.24370986,8.62476917 4.54435747,8.42273945 C4.84500508,8.22070974 5.2294181,8.19063159 5.55782986,8.34344097 L5.55782986,8.34344097 C5.63626901,8.37831415 5.71041823,8.4221296 5.77880382,8.47401649 L5.77880382,8.47401649 C5.84399023,8.52442695 5.90249406,8.58293078 5.95290451,8.64811719 C5.99706572,8.7054315 6.03521166,8.76713817 6.06673958,8.83226215 C6.14026216,8.98228505 6.31313014,9.05514676 6.47185851,9.00301476 C6.90272972,8.85908709 7.37726746,9.00915458 7.64703819,9.37465278 C7.70149738,9.44616119 7.74546633,9.52507983 7.77761372,9.6090191 L7.77761372,9.62910764 C7.8099357,9.71537855 7.83130714,9.80536355 7.84122743,9.89695486 L7.84122743,9.89695486 C7.85877315,10.0078683 7.85877315,10.1208505 7.84122743,10.2317639 C7.81386278,10.3572473 7.86069086,10.4873252 7.96175868,10.5665729 C8.02924547,10.6191567 8.08997176,10.679883 8.14255556,10.7473698 C8.4366744,11.1313782 8.42975682,11.6667992 8.1258151,12.0430807 L8.1258151,12.0430807 L8.06554948,12.1100425 C7.83819838,12.3588474 7.50121659,12.4770425 7.16826128,12.424763 C7.04851626,12.4086944 6.92940195,12.4583865 6.85657846,12.5547909 C6.78375497,12.6511953 6.76851933,12.779357 6.81671181,12.8901476 C6.81671181,12.9135842 6.81671181,12.9370208 6.84014844,12.9604575 C6.86358507,12.9838941 6.86358507,13.0240712 6.87028125,13.054204 C6.97182822,13.4439353 6.84179918,13.8574276 6.53547222,14.1188967 L6.53547222,14.1188967 L6.51538368,14.1389852 C6.25063069,14.3394957 5.90610993,14.4016835 5.58796267,14.3063898 L5.58796267,14.3063898 Z M14.2762569,16.2683707 C14.1906869,16.3308954 14.139772,16.4302417 14.1389852,16.5362179 L14.1389852,25.2780816 L10.1748464,25.2780816 L10.1748464,16.6634453 C10.1725575,16.5621839 10.1245509,16.4674018 10.0442708,16.4056424 L7.231875,14.3298264 C7.42858716,14.0659686 7.5448545,13.7508841 7.56668403,13.4224939 L7.56668403,13.4224939 C7.57763035,13.3111593 7.57763035,13.1990195 7.56668403,13.0876849 L7.70060764,13.0575521 L7.76756944,13.0575521 L7.87136024,13.0207231 C8.04630813,12.9485082 8.20808908,12.8478194 8.35013715,12.7227431 L8.41375087,12.6725217 L10.6167943,14.2996936 C10.7182207,14.3738149 10.8526042,14.3849222 10.9648238,14.3284595 C11.0770435,14.2719968 11.1482131,14.1574665 11.1491406,14.0318464 L11.1491406,11.1859696 L11.3265894,11.1859696 L11.4906458,11.1859696 L11.534171,11.1859696 L11.718316,11.1491406 L11.7350564,11.1491406 L11.9325937,11.1022674 L11.9627266,11.1022674 L12.1368273,11.0420017 L12.2238776,11.0051727 L12.3343646,10.9549514 C12.5457488,10.8509547 12.7408679,10.7167399 12.9135842,10.5565286 C12.9897603,10.6262802 13.0702755,10.6911396 13.1546467,10.7507179 L13.1546467,13.9280556 C13.1555742,14.0536757 13.2267439,14.168206 13.3389635,14.2246687 C13.4511832,14.2811314 13.5855667,14.2700241 13.6869931,14.1959028 L15.9436059,12.5218576 L15.9670425,12.5218576 C16.0509719,12.585799 16.1406364,12.6418392 16.2348898,12.6892622 L16.2884592,12.7160469 C16.3873361,12.7627098 16.4904901,12.7997107 16.5964835,12.8265339 C16.5810861,12.8949774 16.5699048,12.9643017 16.5630026,13.0341155 C16.5630026,13.0575521 16.5630026,13.0809887 16.5630026,13.1044253 C16.5630026,13.127862 16.5630026,13.1981719 16.5630026,13.241697 C16.5630026,13.2852222 16.5630026,13.2952665 16.5630026,13.3220512 C16.5630026,13.3488359 16.5630026,13.4057535 16.5630026,13.4492786 C16.5630026,13.4928038 16.5630026,13.5061962 16.5630026,13.5329809 C16.5630026,13.5597656 16.5797431,13.6133351 16.5931354,13.6535122 L16.616572,13.7338663 C16.616572,13.7740434 16.6467049,13.8142205 16.6634453,13.8577457 L16.6935781,13.9314036 C16.7136667,13.9782769 16.7404514,14.0218021 16.763888,14.0653273 L16.7940208,14.1188967 C16.8306665,14.1782267 16.8709192,14.2352514 16.9145521,14.2896493 L14.2762569,16.2683707 Z M22.8205833,14.3700035 L22.8540642,14.3934401 C23.1734832,14.6874102 23.2793699,15.1474778 23.1205984,15.5515057 C22.961827,15.9555336 22.5710513,16.2204269 22.1369519,16.2182987 C21.7028525,16.2161447 21.3147088,15.9474095 21.1599306,15.5418351 C21.118133,15.4368833 21.0262283,15.3600862 20.91552,15.3376016 L20.8485582,15.3376016 C20.7607244,15.3379714 20.6765536,15.3728422 20.6141918,15.4346962 C20.305184,15.7476712 19.8328527,15.8327398 19.4340679,15.647241 C19.035283,15.4617422 18.7960555,15.0456849 18.8363559,14.6077179 C18.8447487,14.5054969 18.8058251,14.4050684 18.730736,14.3352029 C18.6556469,14.2653374 18.5526773,14.2337435 18.4513255,14.2494722 C18.1821473,14.2891086 17.9081471,14.2218103 17.6879609,14.0619792 L17.6712205,14.0619792 L17.617651,14.0251502 L17.5707778,13.9916693 C17.2175385,13.6637303 17.1345381,13.1366777 17.3698924,12.7160469 C17.4318904,12.611535 17.432394,12.4816356 17.3712081,12.3766462 C17.3100223,12.2716569 17.1967537,12.2080618 17.0752604,12.2104852 C17.0051228,12.2174451 16.9344684,12.2174451 16.8643307,12.2104852 C16.658575,12.1783118 16.4672562,12.0849856 16.3152439,11.942638 L16.2884592,11.9125052 L16.2516302,11.8656319 L16.2516302,11.8656319 C15.9406297,11.5178745 15.9008605,11.0049887 16.1545356,10.6134462 L16.1913646,10.5665729 C16.2144511,10.5311891 16.2401939,10.4976115 16.2683707,10.4661302 L16.2683707,10.4661302 C16.3126399,10.4227089 16.3608349,10.3834803 16.4123385,10.348947 L16.4558637,10.3121181 L16.4558637,10.3121181 C16.5682542,10.240456 16.6274305,10.1089531 16.6065278,9.97730903 C16.6065278,9.97730903 16.6065278,9.97730903 16.6065278,9.97730903 L16.6065278,9.97730903 C16.599054,9.90272176 16.599054,9.82757424 16.6065278,9.75298698 C16.6129657,9.69524438 16.6241641,9.63813252 16.6400087,9.58223437 C16.6400087,9.58223437 16.6400087,9.55544965 16.6400087,9.54205729 C16.685084,9.40029641 16.7604889,9.27005155 16.8609826,9.160375 L16.8877674,9.13693837 L16.8877674,9.13693837 C16.9620624,9.06457955 17.0466869,9.00364992 17.1388741,8.95614149 L17.1388741,8.95614149 L17.2627535,8.90257205 L17.3129748,8.90257205 L17.4067214,8.87913542 L17.4971198,8.87913542 L17.5573854,8.87913542 L17.7448785,8.87913542 L17.875454,8.90257205 L17.9022387,8.90257205 C17.9548739,8.91645259 18.0063632,8.93436192 18.0562509,8.95614149 C18.2105336,9.02406734 18.391257,8.96669481 18.4781102,8.82221788 C18.5155549,8.75986347 18.55931,8.7015233 18.6086858,8.64811719 C18.6580887,8.59442293 18.7130862,8.54615981 18.7727422,8.50414931 L18.7961788,8.50414931 C18.976826,8.38541347 19.1894232,8.3246714 19.4055312,8.33004861 L19.4055312,8.33004861 C19.654195,8.33943043 19.8914695,8.43671298 20.0751493,8.60459201 C20.3263233,8.83124457 20.4512666,9.16609248 20.4099583,9.50188021 C20.3875683,9.63360091 20.4456362,9.76602357 20.557694,9.83878835 C20.6697518,9.91155313 20.8143442,9.91072807 20.9255642,9.83668924 C21.2410741,9.62962271 21.6437395,9.60883506 21.9788949,9.78231093 C22.3140503,9.9557868 22.5295776,10.29655 22.5426918,10.6737118 C22.5552534,10.9471482 22.4589397,11.2144187 22.2748446,11.4169878 L22.2313194,11.4571649 C22.1409865,11.5469738 22.1094408,11.6802622 22.149935,11.8010343 C22.1904291,11.9218064 22.2959474,12.009138 22.4221606,12.0263403 C22.8553847,12.0810441 23.2084569,12.4002458 23.3064265,12.8257779 C23.4043961,13.25131 23.2264493,13.6927673 22.8607604,13.9314036 C22.7739819,13.9899027 22.7195495,14.0856141 22.7136351,14.1901018 C22.7077207,14.2945894 22.7510048,14.395832 22.8306276,14.46375 L22.8205833,14.3700035 Z" id="Shape"></path>
                </g>
            </g>
            <g id="rübe" transform="translate(9.143750, 12.018750)" stroke="#1C2B40" stroke-width="1.2812499">
                <path d="M10.9672221,28.6429151 C17.6497599,28.6429151 39.9,34.3316308 39.9,27.0423781 C39.9,22.8056946 33.2787232,13.9419322 26.227632,7.60992517 C21.1472564,3.0476562 15.7327656,0 12.9342745,0 C6.25173661,0 0,8.08887225 0,15.378125 C0,22.6673777 4.28468422,28.6429151 10.9672221,28.6429151 Z" id="Oval" fill="#FFFFFF"></path>
                <path d="M4.26931516,15.1640454 C8.42075935,18.6675029 12.0160953,21.1948344 15.0553231,22.7460399 C18.0945509,24.2972454 23.0958389,26.1575844 30.0591871,28.327057" id="Path-5" stroke-linecap="round" transform="translate(17.164251, 21.745551) rotate(-6.000000) translate(-17.164251, -21.745551) "></path>
                <line x1="9.14375" y1="11.6375" x2="15.79375" y2="3.325" id="Path-6" stroke-linecap="round"></line>
                <line x1="12.46875" y1="16.625" x2="19.11875" y2="8.3125" id="Path-6" stroke-linecap="round"></line>
                <line x1="19.534375" y1="18.703125" x2="26.5718825" y2="8.1046875" id="Path-6" stroke-linecap="round"></line>
                <line x1="30.7281325" y1="23.0671875" x2="34.55311" y2="17.45625" id="Path-6" stroke-linecap="round"></line>
            </g>
            <g id="egg/avocado" transform="translate(3.325000, 31.137500)" fill="#FFFFFF" stroke="#1C2B40" stroke-width="1.2812499">
                <ellipse id="Oval" cx="9.975" cy="6.65" rx="9.975" ry="6.65"></ellipse>
                <path d="M17.7322232,16.625 C26.173425,16.625 29.09375,11.0182821 29.09375,6.95719497 C29.09375,2.89610788 8.3125,3.56399631 8.3125,6.95719497 C8.3125,10.3503936 9.29102143,16.625 17.7322232,16.625 Z" id="Path-4"></path>
                <path d="M17.5907355,11.6375 C23.1150398,11.6375 29.09375,8.95599124 29.09375,6.30706909 C29.09375,3.65814695 23.4552764,1.6625 17.9309722,1.6625 C12.4066679,1.6625 8.3125,3.65814695 8.3125,6.30706909 C8.3125,8.95599124 12.0664312,11.6375 17.5907355,11.6375 Z" id="Oval"></path>
                <ellipse id="Oval" cx="16.625" cy="6.65" rx="3.325" ry="1.6625"></ellipse>
            </g>
            <path d="M49.19375,19.4234991 C49.8150703,19.4234991 50.4,19.3970563 50.4,18.9 C50.4,18.4029437 49.6650703,17.7545776 49.04375,17.7545776 C48.4224297,17.7545776 48.1654121,18.1072746 48.1654121,18.6043309 C48.1654121,19.1013872 48.5724297,19.4234991 49.19375,19.4234991 Z" id="Oval" stroke="#FFFFFF" stroke-width="0.5" fill="#FFFFFF"></path>
        </g>
    </g>
</svg>